<svg xmlns="http://www.w3.org/2000/svg" enable-background="new 0 0 500 500" version="1.1" viewBox="0 0 500 500" xml:space="preserve"><path d="m1 188v-186.98h499.91v499.83h-499.91v-312.85m275.07 245.59c0.30344 0.082672 0.6069 0.16538 1.5386 0.50412 1.4234 0.98798 2.8468 1.9759 4.4277 3.4816 0.29968 0.18072 0.59936 0.36148 1.1738 1.1725 1.5792 0.79096 3.1583 1.5819 5.0202 3.0041 1.2561 0.36029 2.5123 0.72058 4.5614 1.24 2.0692 0.27945 4.1385 0.5589 7.1078 0.98981 6.5323 0.040619 13.137 0.349 18.856-5.2045 7.6773-7.0166 15.389-13.997 23.023-21.059 8.9383-8.269 23.44-11.384 34.477-4.0046 6.5685 4.3916 12.894 9.1496 19.506 13.473 4.3485 2.8435 9.3094 4.3525 14.225 1.7277 4.642-2.4788 4.6652-7.3588 5.0209-12.772 0.32944-1.7123 0.98938-3.436 0.931-5.135-0.25186-7.3349-0.71414-14.663-0.95145-22.9-0.66135-7.8246-1.1067-15.675-2.0333-23.468-1.4954-12.577-2.5049-25.29-5.1907-37.626-3.3069-15.189-8.1012-30.054-12.292-45.049-3.5443-12.68-6.9635-25.301-6.5984-38.729 0.26407-9.7131-0.63849-19.458-0.87238-30.127 0.012176-7.1003 0.095886-14.202-0.0094-21.3-0.029571-1.993-0.61462-3.9778-0.98932-6.8833-0.33429-11.872-1.0254-23.747-0.90979-35.614 0.1351-13.871-3.5218-26.857-8.2814-39.587-1.9292-5.1599-5.0852-9.8612-7.8013-15.462-0.65244-1.132-1.3048-2.264-1.9884-4.1207-4.5852-7.5962-8.6295-15.598-16.157-21.822-0.9585-1.2497-1.7399-2.7045-2.9072-3.7123-4.2355-3.6567-8.6004-7.1636-13.201-11.387-6.2521-4.3518-12.504-8.7036-19.437-13.374-5.0913-2.3219-10.183-4.6438-15.624-7.6521-9.5196-2.0828-19.039-4.1657-28.672-7.1252-1.2684-0.36826-2.5315-1.0316-3.8061-1.0546-6.1072-0.11008-12.219-0.12879-18.326-0.003433-2.3328 0.047887-4.6558 0.56668-7.8039 0.99305-1.2278 0.33046-2.4545 0.66523-3.6837 0.99069-7.5035 1.9867-15.007 3.9714-23.274 5.9981-2.3917 0.96322-4.7835 1.9264-7.8852 2.9963-1.7634 0.96526-3.5269 1.9305-5.7716 3.0122 0 0-0.46878 0.15948-0.97807 0.043904-0.18114 0.27994-0.36227 0.55989-1.0213 0.95564 0 0-0.46693 0.15403-1.0742 0.097503-0.50464 0.61853-1.0093 1.2371-1.9644 1.9087 0 0-0.42862 0.14827-1.0368 0.092056-0.50586 0.61809-1.0117 1.2362-2.1669 2.1294-4.0755 3.3114-8.151 6.6229-12.96 9.99-1.1544 0.4945-2.6605 0.67985-3.409 1.5312-7.6377 8.6876-15.152 17.484-22.854 26.673 0 0-0.049499 0.44807-0.61998 0.66128-0.40936 0.63828-0.81871 1.2766-1.5268 2.5737-0.87578 1.5336-1.6257 3.1572-2.6467 4.5871-10.758 15.066-14.802 32.525-17.042 50.351-1.5575 12.395-1.4546 24.996-2.1879 37.499-0.94392 16.094-1.4729 32.237-3.1834 48.251-0.93072 8.714-3.6358 17.272-9.1533 24.615-2.2712 3.0225-3.8221 6.5863-6.2195 10.067-0.17262 0.30548-0.34523 0.61093-0.4393 0.94724 0 0-0.04525-0.071258-0.56807 0.060028-0.17579 0.29938-0.35159 0.59879-0.42345 0.93921 0 0-0.087967-0.069-0.64857 0.13712-0.39635 0.62854-0.79269 1.2571-1.398 2.4191-0.33764 0.44153-0.67528 0.88306-1.5739 1.5534-0.4067 0.63751-0.8134 1.275-1.371 2.3345 0 0-0.060379 0.44409-0.70204 0.69736-13.303 16.554-27.058 32.703-38.172 50.977-11.288 18.56-21.34 37.412-25.246 59.076-1.6344 9.0648 5.0256 15.971 13.808 13.492 8.335-2.3522 16.559-5.0967 24.87-7.5362 10.791-3.1674 21.621-6.2037 33.202-9.1426 2.3978 1.0439 4.7957 2.0878 7.4953 3.7726 6.0727 4.9218 8.2002 11.866 9.7215 19.093 1.7728 8.4221 1.7897 17.403 7.7672 24.474 3.3346 3.9449 6.7528 7.8191 10.384 12.354 4.9417 4.8106 9.8833 9.6212 15.094 15.074 3.2612 1.6968 6.5225 3.3936 10.503 5.4541 12.484 3.6164 22.277-1.9318 31.74-9.0795 8.7231-6.5891 15.483-15.898 27.167-19.261 0.80644-0.58191 1.6129-1.1638 2.8898-1.8582 0 0 0.45497-0.16437 1.1239-0.023742 0.45041-0.04892 0.90082-0.09787 1.9395-0.083588 0.46257-0.35379 0.92514-0.70758 2.0577-0.91711 0.45149-0.049347 0.903-0.098725 2.0122 0.00299 0.77226-0.38141 1.5445-0.76285 3.212-1.0017 2.7146-0.04898 5.4292-0.097992 8.761 0.13162 0.78989 0.24005 1.5798 0.4801 3.0107 0.86856 0.43521 0.045594 0.87045 0.091156 1.5391 0.72458 0.60626 0.041016 1.2125 0.082062 2.2883 0.28516 0 0 0.48099 0.12427 0.62659 0.62393 0.30179 0.072815 0.60361 0.14563 1.5304 0.49234 0.79541 0.24402 1.5908 0.48804 2.8394 0.89551 0 0 0.47159 0.098328 0.52298 0.013214 0 0-0.083771 0.053559 0.20096 0.68012 1.6039 0.71341 3.2077 1.4268 5.4162 2.3931 0.75821 0.32376 1.5164 0.64749 2.4265 1.4841 0.29944 0.17148 0.59885 0.34293 0.93616 0.41498 0 0-0.052765 0.095673 0.10278 0.59952z"/><path fill="#B1FDFC" d="m215.89 31.955c7.5038-1.9853 15.008-3.97 22.511-5.9567 1.2292-0.32546 2.4559-0.66022 4.3532-0.78941 10.24 0.381 19.81 0.56072 29.38 0.74044 9.5196 2.0828 19.039 4.1657 28.763 6.946 1.3927 1.9646 2.4107 3.4733 3.8014 4.4531 4.0054 2.8219 8.1297 5.4801 12.274 8.0972 1.5822 0.99919 3.3451 1.7122 5.0263 2.5551 6.1e-4 -5.34e-4 -6.11e-4 7.78e-4 0.043823 0.34473 0.57419 1.1691 0.91745 2.266 1.6626 2.7773 7.3777 5.0623 12.02 12.448 15.833 20.115 2.7221 5.4738 4.8917 11.756 5.1852 17.78 0.44977 9.2347-0.62845 18.638-9.1354 25.004-1.1161 0.83527-1.7792 2.3825-2.4372 3.7067-5.6257 11.324-8.4013 23.379-9.164 35.953-0.24008 3.9586-0.72324 7.9028-0.94815 11.862-0.60294 10.613 2.9983 21.592-2.8373 31.768-0.43604 0.76033-0.53049 2.2618-0.068237 2.9029 2.8737 3.9856 0.8967 7.7129-0.088623 11.658-1.448 5.7971-5.0429 8.8716-11.158 9.184-2.0145 0.10292-3.9944 0.88094-6.4406 1.2807-3.8781-0.051315-7.3058-0.033126-10.974-0.005889-0.66153 0.20113-1.0823 0.39323-1.8726 0.5385-1.1042 0.068497-1.8387 0.18382-2.9295 0.35176-10.347 3.6719-17.221 10.706-19.344 20.898-1.8527 8.8955-0.14688 17.859 4.7972 25.784-0.66705 0.78513-1.4799 1.8752-1.2529 2.1731 2.9141 3.8252 5.8647 7.6382 9.0814 11.206 0.79407 0.88077 2.5984 1.2738 3.899 1.1999 5.0187-0.2851 6.3235 1.061 5.6042 5.8307-0.23093 1.5312-0.38373 3.8713 0.48517 4.6295 3.2946 2.8745 1.8096 5.2607-0.17792 7.728-2.2162 2.7511-4.8798 2.7097-8.0715 1.5733-2.518-0.89648-5.3389-0.94217-8.0252-1.3658-0.056976 0.41156-0.11398 0.82309-0.17096 1.2346 4.3244 3.2087 8.6489 6.4174 14.265 10.584-4.3076 2.5679-7.2792 4.0726-9.9177 6.027-1.2786 0.94708-1.8205 2.8313-2.8995 4.1208-1.1756 1.4049-2.5871 2.6123-3.8958 3.9058-1.0043-1.2811-2.8342-2.5488-2.8551-3.8457-0.058197-3.6067-1.9251-3.9198-4.8014-3.9702-4.006-0.070191-8.0678-1.6343-11.658 1.7953-0.75017 0.71661-2.7701 0.10413-4.4876 0.10413 0.78337-5.107-0.13847-7.0674-5.7232-6.1502-7.7839 1.2784-9.7499-1.715-8.9259-9.6061 0.21976-2.1045-1.706-4.5796-3.0181-6.6491-0.97765-1.5419-2.5537-2.7045-3.8632-4.036 0.32658-0.337 0.65317-0.67401 0.97975-1.011 3.4353 1.206 6.8707 2.412 10.158 3.9525 0.27304 2.2073 0.56576 4.1281 1.2294 5.9109 0.1264 0.3396 2.3687 0.44534 2.5227 0.12485 0.66147-1.3773 1.7046-3.6334 1.1295-4.3076-1.0038-1.1769-3.0966-1.4251-4.7405-2.4299-1.7153-4.3159-3.2354-8.2798-8.5217-8.9015-1.0761-0.12656-2.9929-3.0078-2.6745-3.5666 3.4271-6.0161-1.4906-4.3336-3.7721-4.5122-1.5638-2.9911-3.0056-5.6294-4.3352-8.323-1.5342-3.1082-3.9941-6.1945-4.2168-9.4171-0.36858-5.3347 1.1852-10.805-2.6677-15.586-0.49634-0.61591-0.31166-2.2532 0.15062-3.0895 2.3386-4.2307 1.413-6.7227-2.9871-8.3606-1.0228-0.38074-2.4679-2.5456-2.3218-2.7202 3.3927-4.0529 0.92624-8.5077 0.82024-12.675-0.11542-4.5368-2.0537-9.13-1.6348-13.551 0.48904-5.1609 1.2081-10.002-1.6259-14.689-0.18704-0.30931 0.69003-1.13 0.76154-1.7488 0.55034-4.7626 1.4139-9.153-1.5926-14.011-2.4026-3.8822-2.276-9.3382-3.2041-14.109-0.076675-0.3942 0.24336-1.0594 0.58873-1.312 3.6541-2.6728 1.2665-5.5821 0.3206-8.3795-0.47072-1.3921-1.6605-2.6359-1.8119-4.0245-0.58276-5.345-0.74426-10.736-1.3396-16.079-0.26987-2.4221-2.3277-5.2243-1.596-7.0696 2.1419-5.402-1.568-8.8025-3.3421-12.84-0.77629-1.7665-2.9119-3.0382-3.3915-4.815-2.0799-7.7061-3.8668-15.496-5.561-23.299-0.5517-2.5409-1.4005-5.5543-0.56493-7.7668 3.6755-9.7328 7.1106-19.679 14.622-27.416 0.86989-0.89614 1.282-2.2367 2.0862-3.6027 0.72627-0.4108 1.2726-0.59012 2.1606-0.81258 1.7808-1.6807 3.2198-3.3182 4.6586-4.9562-3.05e-4 -4.58e-4 3.05e-4 3.32e-4 0.36543-0.006951 3.5674-2.3314 6.7955-4.6222 9.9209-7.0455 0.23915-0.18542-0.24741-1.3068-0.39664-1.9932m92.378 73.167c1.2641-0.75729 2.516-1.5358 3.7946-2.2679 3.9899-2.2847 7.9078-4.0714 7.2643-10.257-0.44244-4.2531 0.70895-8.9627 2.2278-13.069 3.1801-8.597-0.19492-16.107-4.4615-22.517-6.1334-9.2152-15.645-15.238-25.504-20.101-12.491-6.1622-25.963-7.3631-39.674-6.049-5.0994 0.48877-10.183 1.297-15.22 2.2461-11.091 2.0896-20.534 7.0101-27.017 16.614-1.483 2.1969-2.6244 4.6213-4.0396 6.8676-5.1923 8.2421-4.8071 19.391 0.9944 27.171-4.5251 8.051 6.4375 8.8171 6.2834 14.887 1.6947-0.20059 2.9322-0.71459 3.898-0.39851 4.4561 1.4583 8.7816 3.3314 13.268 4.6733 2.0988 0.62776 4.4571 0.50431 6.6971 0.4979 1.2173-0.003487 2.498-0.86203 3.6388-0.67079 5.7795 0.96882 11.597 1.8729 17.25 3.3721 3.3637 0.89218 7.7696 0.59586 9.0365 5.4976 0.16425 0.6355 2.6121 1.1661 3.8554 0.93959 2.8792-0.52448 5.6667-2.21 8.4947-2.2178 5.4304-0.01503 10.687-4.455 16.285-0.67903 0.44016 0.29685 1.537-0.30898 2.3007-0.57522 3.3278-1.1601 6.6453-2.3497 10.627-3.9636m-82.858 82.965c8.4386 8.3059 18.219 10.171 29.004 5.5142 7.8988-3.4109 13.059-9.7477 13.612-18.247 0.94934-14.602 1.0814-29.273 1.0438-43.913-0.009217-3.5964-1.3484-7.5699-3.1964-10.711-5.9327-10.084-15.377-13.586-26.67-12.609-9.6028 0.83038-19.927 10.043-20.13 18.043-0.37834 14.91-0.36635 29.831-0.90251 44.734-0.24315 6.7585 1.9248 12.166 7.239 17.189m6.6184 87.694c-1.9851 1.1433-1.9851 1.1433 0.70442 4.1518-0.11041-1.629-0.17891-2.6396-0.70442-4.1518m29.662 35.254c-0.34753-0.60449-0.69507-1.209-1.0426-1.8136-0.4024 0.38144-0.80481 0.76288-1.2072 1.1443 0.61227 0.37436 1.2245 0.74872 2.2498 0.66925m16.801 3.7775c0.2796-0.4018 0.5592-0.80359 0.83881-1.2054-0.41418-0.10797-0.82834-0.21597-1.2425-0.32398-0.049836 0.46878-0.099671 0.93756 0.40372 1.5294m-37.223-6.3177c-0.25624 0.24326-0.51491 0.48419-0.75525 0.74225-0.006256 0.006714 0.18773 0.19992 0.2883 0.30615 0.25638-0.24359 0.51276-0.48718 0.46695-1.0484z"/><path fill="#A1FDFD" d="m181 53.166c4.0755-3.3114 8.151-6.6229 12.829-10.056 0.78825-0.11041 0.97368-0.099346 1.1625 0.30972 0.004471 1.4588 0.005509 2.5196-0.1125 3.7906-0.32063 0.47255-0.5748 0.66555-1.2303 0.79762-1.1163 0.66935-1.8837 1.3303-2.8161 2.2251-0.72163 0.74465-1.2784 1.2555-2.1534 1.8003-1.1059 0.67819-1.8934 1.3225-2.6813 1.9664-3.66e-4 -3.24e-4 2.44e-4 5.08e-4 -0.29822 0.15641-2.7662 3.7186-5.2339 7.2812-7.8438 11.162-0.38118 1.4392-0.62004 2.5599-1.1724 3.7333-0.77077 0.68446-1.228 1.3163-1.8148 2.2404-0.37671 1.0972-0.6239 1.9023-1.2259 2.7814-1.0819 1.1203-2.0687 2.0705-2.4967 3.2273-5.7488 15.537-3.3733 31.28-1.1186 47.026 0.74701 5.2166 2.0337 10.486 1.8294 15.683-0.51134 13.007-1.363 26.027-2.8065 38.96-0.92802 8.3148-3.2728 16.463-4.7568 24.726-2.0596 11.468-8.065 20.933-15.261 29.635-7.5721 9.157-15.879 17.704-23.524 26.804-3.8899 4.6304-7.0313 9.8896-10.511 14.865-1.53e-4 0 1.52e-4 0-0.29631 0.15448-4.4912 5.2784-9.0475 10.152-12.807 15.577-8.5019 12.267-17.544 24.305-24.592 37.391-5.9205 10.994-9.3804 23.32-13.822 35.097-1.3111 3.4762 0.91207 8.5038 3.7981 8.4699 2.9222-0.034301 6.0512-0.38077 8.7073-1.4988 5.9433-2.5015 11.581-5.7188 17.467-8.3705 10.509-4.7345 19.851-11.76 31.246-14.853 8.6159-2.3383 16.798-6.2351 25.318-8.9887 2.8689-0.92716 6.9097-1.7176 9.157-0.40955 6.1981 3.6075 12.129 7.936 17.336 12.858 2.1481 2.0308 1.3848 6.9224 3.3388 9.4252 3.4859 4.4651 2.9781 9.2637 3.193 14.207 0.28474 6.5503 0.93826 13.084 1.311 19.631 0.33205 5.8328 0.16499 11.713 0.81616 17.504 0.93497 8.3159 5.9621 14.556 11.257 20.347 2.6607-0.90646 5.1223-1.7469 7.5852-2.5838 4.2319-1.4379 8.506-2.7634 12.686-4.338 5.2339-1.9715 10.253-4.6379 15.607-6.1438 17.517-4.9269 34.431-3.2548 50.454 5.6959 8.6941 4.8567 21.914 3.4948 26.94-4.1827 4.9861-7.6167 8.6184-16.217 12.074-24.7 1.9291-4.735 0.68985-10.557 4.7925-14.785 0.92502-0.95325 0.92682-2.7962 1.3695-4.2247 2.3761-7.6669 4.5423-15.407 7.1902-22.979 3.4116-9.7558 6.9574-19.481 10.919-29.023 3.4662-8.3488 6.1219-16.706 5.0156-25.887-0.093231-0.77365 0.34326-1.6044 0.49652-2.4156 1.0294-5.4488 2.5223-10.862 2.956-16.359 0.5903-7.4814 0.34601-15.027 0.5213-22.544 0.026672-1.1434 0.38092-2.2801 0.59213-3.4182 1.4873-8.0144 3.1704-15.999 4.3922-24.054 0.71802-4.7331-0.01181-9.7686 1.2048-14.322 1.4456-5.4107-0.39951-9.3723-3.1556-13.641 0.37042-0.46724 0.6373-0.69284 1.2106-0.97427 1.0666-0.3987 1.8268-0.74156 2.7416-0.73964 1.4559 2.7514 3.8387 5.1414 3.876 7.5675 0.1875 12.216-0.13388 24.445-0.47888 36.663-0.27847 9.8631-2.4219 19.977-0.85532 29.506 1.6881 10.268-0.089386 19.964-0.66507 29.885-0.24634 4.2452-1.6551 8.4167-2.4436 12.639-0.51599 2.7628-0.66919 5.4229-4.1735 6.5981-0.96011 0.32196-1.0917 3.3363-1.4633 5.144-0.71674 3.4861-0.1496 8.7969-2.2143 10.152-6.132 4.0242-6.9017 10.697-10.142 16.087-1.434 2.385-3.3231 4.6342-4.1398 7.2186-1.0973 3.4724-0.93225 7.348-2.0602 10.805-2.6998 8.2754-5.6148 16.498-8.8607 24.573-3.5547 8.8439-7.5786 17.499-11.738 26.28-1.4468 1.3477-2.5532 2.6523-4.0121 4.0002-3.2703 1.9071-6.0126 4.1832-9.1547 5.519-3.1758 1.3502-7.0844 3.082-10.074 2.3154-5.7873-1.4839-11.134-4.6526-16.702-7.0334-5.4371-2.3249-10.744-5.4694-16.433-6.5548-6.5021-1.2406-13.396-1.0883-20.055-0.62442-4.7971 0.3342-9.4896 2.1692-14.587 3.3804-11.338 3.8205-19.783 11.322-28.138 18.952-5.4936 5.017-12.022 3.5517-15.555-2.9222-5.2907-9.6949-5.7773-20.548-6.3058-30.882-0.47948-9.3745 0.55536-18.841-1.5655-28.182-0.51045-2.2482-1.086-4.6099-0.91138-6.8636 0.83499-10.775-5.7687-17.157-13.399-22.784-2.0099-1.4822-4.8932-1.7703-7.3641-2.6389-7.0091-2.4639-14.373-2.7901-20.911 0.25244-14.534 6.7638-28.614 14.497-42.967 21.659-5.7392 2.8639-11.515 6.6826-17.623 7.5203-7.7595 1.0641-12.911 0.10214-11.854-9.5002 0.57458-5.2184 0.934-10.617 2.5857-15.532 6.1291-18.241 16.852-34.032 27.448-49.877 2.342-3.5021 3.9654-7.4848 5.9194-11.246-2.44e-4 -1.22e-4 3.66e-4 -1.22e-4 0.34198-0.043335 1.7802-1.6811 3.2188-3.3189 4.9184-5.1621 3.7535-4.4018 7.2462-8.5983 11.021-12.945 0.7609-1.05 1.2394-1.95 1.9282-2.969 0.47243-0.32046 0.66554-0.57446 1.0719-1.031 0.76095-1.05 1.2395-1.95 2.0213-3.0108 1.1013-1.7198 1.8994-3.2789 2.6971-4.8386-3.05e-4 -6.1e-4 3.05e-4 -6.1e-4 0.31382-0.053039 0.77087-0.68411 1.2282-1.3159 1.6857-1.9476 1.53e-4 0-1.52e-4 0 0.29826-0.15671 4.7662-5.3856 9.2341-10.614 14.038-15.91 0.77884-1.0222 1.2211-1.9778 2.0051-2.9766 1.7805-1.6811 3.2194-3.3189 4.7711-5.2128 0.37094-0.75201 0.62907-1.248 1.2007-1.7964 0.77119-0.68417 1.2288-1.3158 1.8054-2.1579 0.32031-0.4727 0.57439-0.6658 1.1986-0.827 0.77251-1.0125 1.2275-1.9875 1.7143-3.2802 0.34393-1.1059 0.65607-1.8941 1.3183-2.731 1.4012-1.2466 2.853-2.2781 3.4323-3.6721 2.2245-5.3531 5.0668-10.666 6.0432-16.279 2.522-14.497 3.904-29.189 6.2593-43.72 1.8539-11.437 1.6237-22.856 0.82599-34.281-0.50464-7.227-2.8037-14.427-2.5637-21.581 0.25723-7.6658 2.5674-15.26 3.9377-22.893 0.32779-1.8259 0.48161-3.683 0.75902-5.8788 1.6808-3.4511 3.3181-6.5492 5.0683-9.9034 0.37118-0.75192 0.62944-1.2478 1.17-1.8937 0.76077-1.05 1.2392-1.95 1.98-3.0571 1.7548-3.0136 3.2473-5.8201 4.7399-8.6266z"/><path fill="#98FCFD" d="m414.84 416.99c-0.1846 4.5717-0.20776 9.4517-4.8498 11.93-4.9153 2.6248-9.8762 1.1158-14.225-1.7277-6.6114-4.3232-12.937-9.0812-19.506-13.473-11.037-7.3791-25.538-4.2644-34.477 4.0046-7.6345 7.0629-15.346 14.043-23.676 21.207-1.6812-0.06372-2.7095-0.27496-3.7378-0.48621 0.39615-1.4994 0.31509-3.4731 1.2616-4.4254 10.475-10.539 16.82-23.635 23.297-36.697 2.5531-5.1479 5.5896-10.063 8.5462-15 0.90643-1.5136 3.2433-2.7268 3.2738-4.1139 0.14648-6.6527 5.2173-7.1375 9.4303-7.0071 6.8396 0.21155 13.641 1.6666 21.505 2.7394-3.4495 6.7132 1.6895 8.1671 4.4881 11.526 3.3041 3.9649 5.391 8.718 10.798 10.64 2.4882 0.88461 4.643 2.7069 8.035 4.7619 0-5.6112-0.078125-9.4174 0.036804-13.218 0.048981-1.6198 0.5357-3.2224 0.76392-4.8413 0.66208-4.6957 2.6769-9.7213 1.6625-14.029-2.4431-10.375-2.2993-20.918-3.7697-31.285-1.3962-9.8444-4.6155-19.45-6.6812-29.277-2.8797-13.699-9.5318-26.562-13.754-40.038-2.5506-8.1408-4.3262-16.698-5.0731-25.189-1.0606-12.059-0.82596-24.229-1.2041-36.351-0.1268-4.0657-0.1597-8.1639-0.71637-12.181-1.267-9.1424-2.7073-18.267-4.4219-27.334-0.23316-1.2329-2.4444-2.0916-3.8026-3.5864-0.01712-5.1553 0.028595-9.8478 0.43933-14.549 1.9114-1.328 4.5339-2.4518 4.8152-4.0008 1.1333-6.2404 2.7538-12.774 1.936-18.897-1.2146-9.0952-4.4384-17.913-6.5468-26.909-0.28784-1.2283 0.92453-2.8083 1.4423-4.2254 2.5977 4.91 5.7538 9.6112 7.683 14.771 4.7596 12.731 8.4165 25.717 8.2814 39.587-0.11557 11.867 0.5755 23.742 0.6398 36.369-0.097595 8.7196 0.04068 16.685 0.28259 24.647 0.037873 1.2473 0.54666 2.4803 0.83768 3.7198 0.38232 9.7307 1.2849 19.476 1.0208 29.189-0.36502 13.428 3.0541 26.049 6.5984 38.729 4.1912 14.994 8.9854 29.86 12.292 45.049 2.6858 12.336 3.6953 25.049 5.1907 37.626 0.92658 7.793 1.3719 15.643 1.7134 24.253-0.15686 9.8875 0.006195 18.99 0.16925 28.093z"/><path fill="#9DFDFC" d="m368.1 164c1.2954 1.032 3.5067 1.8907 3.7398 3.1236 1.7147 9.0666 3.1549 18.191 4.4219 27.334 0.55667 4.0167 0.58957 8.1149 0.71637 12.181 0.37811 12.121 0.14343 24.292 1.2041 36.351 0.74686 8.4911 2.5225 17.048 5.0731 25.189 4.2223 13.476 10.874 26.339 13.754 40.038 2.0657 9.8268 5.285 19.432 6.6812 29.277 1.4703 10.367 1.3266 20.91 3.7697 31.285 1.0144 4.3078-1.0005 9.3334-1.6625 14.029-0.22821 1.6189-0.71494 3.2216-0.76392 4.8413-0.11493 3.8004-0.036804 7.6067-0.036804 13.218-3.3919-2.055-5.5468-3.8773-8.035-4.7619-5.4069-1.9224-7.4938-6.6756-10.798-10.64-2.7986-3.3584-7.9376-4.8123-4.4881-11.526-7.8637-1.0728-14.665-2.5279-21.505-2.7394-4.213-0.13031-9.2838 0.35443-9.4303 7.0071-0.030518 1.3871-2.3674 2.6004-3.2738 4.1139-2.9566 4.937-5.9932 9.852-8.5462 15-6.4777 13.062-12.823 26.158-23.297 36.697-0.94653 0.95233-0.86548 2.926-1.2616 4.4254 1.0283 0.21124 2.0566 0.42249 3.4222 0.61829-4.7502 5.2739-11.355 4.9655-18.328 4.4887 0.78699-2.2805 1.8119-4.308 3.2824-5.9319 3.3016-3.6459 6.8245-7.0913 10.598-10.661 1.4468-1.3477 2.5532-2.6523 4.0052-4.0012 2.4857-2.6458 5.3824-4.9313 6.6244-7.9075 3.7975-9.1007 6.8962-18.491 10.414-27.712 0.81836-2.1452 3.2952-4.1366 3.1707-6.081-0.59033-9.2143 8.8537-13.33 10.343-21.356 0.059936-0.32291 0.86655-0.44971 1.2057-0.78778 2.2316-2.2246 4.5804-4.3564 6.6003-6.7624 2.2781-2.7135 4.2506-5.6836 6.0573-8.1364 0.25198-2.1274 0.16986-4.1548 0.76694-5.9572 1.6896-5.1006 4.1514-9.992 5.3817-15.186 1.3244-5.5905 1.7734-11.034 8.8959-12.691 3.1433-0.73135 3.0717-3.8499-0.16312-5.2139-3.7267-1.5713-3.7692-3.6383-1.9956-6.5835 0.84393-1.4015 1.8984-2.7534 2.3784-4.2786 0.71469-2.2704 1.794-4.8458 1.328-6.9891-1.3922-6.4034-4.4001-12.561-5.0765-18.993-1.5845-15.069-2.2559-30.237-3.1443-45.374-0.53009-9.0304-0.67905-18.083-1.2422-27.111-0.084748-1.3582-1.4988-2.6334-2.2237-4.3725 0.5286-9.4376 0.98294-18.45 1.4373-27.462z"/><path fill="#98FCFD" d="m180.64 53.194c-1.1257 2.7786-2.6182 5.5851-4.7096 8.6653-1.0411 1.2293-1.4834 2.1849-1.9257 3.1405-0.25826 0.49587-0.51651 0.99174-1.233 1.7887-9.1522 6.8271-11.379 16.97-14.608 26.395-1.7471 5.1-2.8627 10.668-2.9292 16.042-0.1591 12.853 1.2605 25.757 0.5876 38.563-0.87247 16.605-2.7628 33.189-5.0034 49.675-1.1014 8.1038-2.6127 16.688-6.3594 23.775-6.2201 11.766-14.435 22.472-21.692 33.7-0.94226 1.4577-1.1922 3.3629-1.7629 5.0608 0 0 3.05e-4 0-0.31336 0.05249-0.77102 0.68414-1.2284 1.3158-1.6857 1.9475 0 0-6.1e-4 0-0.3625 0.054749-1.1206 1.6849-1.8794 3.3151-2.9747 5.0118-0.77902 1.0222-1.2215 1.9778-1.6639 2.9334-0.12403 0.30652-0.31714 0.56052-1.1261 0.94763-0.98919 1.1412-1.4316 2.0968-1.874 3.0523-3.4926 4.1964-6.9853 8.3929-11.08 12.838-2.0411 1.8864-3.4797 3.5242-4.9183 5.1621 7e-6 0-6.03e-4 0-0.29928 0.15717-6.6746 9.4332-13.163 18.634-19.401 28.002-10.239 15.375-19.84 30.994-21.984 50.032-0.83681 7.4294 4.5071 15.768 10.884 14.616 5.6825-1.0265 11.454-2.5278 16.679-4.9253 12.055-5.5318 23.641-12.095 35.741-17.517 6.2515-2.8008 13.095-4.8996 19.863-5.6991 4.1338-0.48843 9.5994 0.9242 12.759 3.5431 6.2996 5.2209 12.223 10.739 13.949 20.129 1.1593 6.3052 2.3047 12.579 1.6537 18.691-1.9789 18.58-0.39912 36.291 9.2137 52.779 0.49664 0.85187-0.66237 2.669-1.0505 4.0367-3.2612-1.6968-6.5225-3.3936-9.9163-5.8116-1.4891-6.0166-3.3185-11.243-4.1084-16.621-1.9213-13.083-3.0444-26.287-5.1437-39.337-0.87538-5.4416-2.4155-11.276-5.3926-15.782-7.6742-11.617-20.502-11.378-31.541-7.8766-2.0079 0.63687-3.293 3.5523-4.9118 5.4159-10.813 3.0927-21.643 6.1291-32.434 9.2964-8.3114 2.4395-16.535 5.184-24.87 7.5362-8.7821 2.4783-15.442-4.4276-13.808-13.492 3.9059-21.664 13.958-40.516 25.246-59.076 11.114-18.274 24.869-34.423 38.665-50.879 1.0641-0.34021 1.6355-0.77899 2.574-1.226 1.5256-0.79568 2.9759-1.3574 3.7901-2.4108 3.0382-3.9308 6.1376-7.8581 8.7195-12.089 5.4242-8.8877 11.601-17.527 15.534-27.066 6.4906-15.739 6.5312-32.941 8.5459-49.641 1.1468-9.506 2.1626-19.046 2.7126-28.6 0.51079-8.8736 0.2249-17.79 0.48659-26.682 0.13545-4.6024 0.1274-9.3295 1.1935-13.757 1.8557-7.7073 4.5749-15.204 6.7127-22.85 0.31477-1.1259-0.57393-2.5883-0.90579-3.895 7.549-8.7656 15.063-17.562 22.701-26.249 0.74849-0.85138 2.2545-1.0367 3.7758-1.5591z"/><path fill="#9DFDFC" d="m173.37 456.03c0.028626-1.5496 1.1876-3.3667 0.691-4.2186-9.6128-16.488-11.193-34.199-9.2137-52.779 0.65099-6.1122-0.49438-12.386-1.6537-18.691-1.7264-9.3898-7.6499-14.908-13.949-20.129-3.16-2.6189-8.6256-4.0316-12.759-3.5431-6.7672 0.7995-13.611 2.8983-19.863 5.6991-12.1 5.4213-23.686 11.985-35.741 17.517-5.2248 2.3975-10.996 3.8988-16.679 4.9253-6.3772 1.1519-11.721-7.1868-10.884-14.616 2.1443-19.038 11.745-34.656 21.984-50.032 6.2382-9.3678 12.726-18.569 19.401-28.002-1.6554 3.6044-3.2788 7.587-5.6208 11.089-10.596 15.845-21.319 31.637-27.448 49.877-1.6517 4.9156-2.0112 10.314-2.5857 15.532-1.0573 9.6023 4.0941 10.564 11.854 9.5002 6.1083-0.83771 11.884-4.6564 17.623-7.5203 14.353-7.1622 28.433-14.895 42.967-21.659 6.5378-3.0426 13.902-2.7163 20.911-0.25244 2.4709 0.86862 5.3542 1.1567 7.3641 2.6389 7.6307 5.6273 14.234 12.01 13.399 22.784-0.17467 2.2537 0.40092 4.6154 0.91138 6.8636 2.1208 9.3405 1.086 18.807 1.5655 28.182 0.52856 10.334 1.0152 21.187 6.3058 30.882 3.5329 6.4738 10.062 7.9391 15.555 2.9222 8.3548-7.6299 16.8-15.131 28.407-18.692 2.3423 1.4939 6.2167-0.77744 6.0867 3.5347-11.046 3.3923-17.806 12.701-26.529 19.29-9.4625 7.1477-19.256 12.696-32.099 8.8976z"/><path fill="#91F8FC" d="m154.08 81.215c0.4082 1.0946 1.2969 2.557 0.98213 3.6829-2.1378 7.6461-4.857 15.142-6.7127 22.85-1.0661 4.4277-1.058 9.1548-1.1935 13.757-0.26169 8.8919 0.024201 17.808-0.48659 26.682-0.54999 9.5547-1.5658 19.095-2.7126 28.6-2.0147 16.7-2.0553 33.902-8.5459 49.641-3.9336 9.5389-10.11 18.178-15.534 27.066-2.5819 4.2304-5.6813 8.1577-8.7195 12.089-0.81419 1.0534-2.2645 1.6151-3.7908 2.4102-0.368 0.007629-0.36871 0.007141-0.36883-0.34992-0.021164-0.83224-0.042206-1.3074-0.063248-1.7826 0.33763-0.44156 0.67527-0.88309 1.4214-1.6557 0.78905-0.98541 1.1696-1.6397 1.5501-2.2941 0 0 0.087967 0.069 0.26665-0.059387 0.37498-0.39966 0.57128-0.67087 0.76758-0.94211 0 0 0.04525 0.071258 0.23607-0.064118 0.383-0.41534 0.57519-0.69528 0.76737-0.97525 1.8785-3.3176 3.4294-6.8814 5.7006-9.9038 5.5175-7.3425 8.2226-15.901 9.1533-24.615 1.7105-16.015 2.2395-32.157 3.1834-48.251 0.73332-12.503 0.63036-25.104 2.1879-37.499 2.24-17.827 6.2838-35.285 17.042-50.351 1.021-1.4299 1.7709-3.0535 3.1036-4.9832 0.85141-1.061 1.2459-1.7259 1.6404-2.3907 0 0 0.049499-0.44807 0.12584-0.66015z"/><path fill="#91F8FC" d="m112.38 375.91c1.2348-1.9405 2.52-4.8559 4.5278-5.4928 11.038-3.5013 23.867-3.7402 31.541 7.8766 2.9771 4.5066 4.5172 10.341 5.3926 15.782 2.0993 13.05 3.2225 26.254 5.1437 39.337 0.78989 5.3785 2.6192 10.604 3.974 16.3-4.9434-4.4107-9.8851-9.2213-14.62-14.534 0.60805-2.1605 1.5397-3.8968 1.3104-5.4632-0.64348-4.3958-1.84-8.7072-2.6835-13.078-1.7157-8.8902-3.4719-17.776-4.9678-26.704-1.3311-7.9446-9.9062-15.332-18.04-14.673-1.428 0.11554-2.6713 2.5142-3.9999 3.8584-2.3978-1.0439-4.7957-2.0878-7.5775-3.2086z"/><path fill="#9FFCFC" d="m370.07 94.611c-0.45859 1.7628-1.671 3.3428-1.3831 4.5711 2.1083 8.9966 5.3322 17.814 6.5468 26.909 0.81775 6.1236-0.8027 12.657-1.936 18.897-0.28131 1.549-2.9038 2.6728-4.8748 3.5552-0.38983-8.5276-1.5182-16.186-8.4927-22.001-1.2087-1.2956-2.2652-2.3176-2.9826-3.5056 1.9388-2.2538 4.305-4.1137 5.005-6.4687 3.0178-10.153-0.57468-19.86-4.4118-28.753-3.6678-8.5003-9.8964-15.895-14.99-23.781-2.181-3.3764-4.3394-6.7674-6.5081-10.152 4.3161 3.5634 8.681 7.0703 12.916 10.727 1.1673 1.0078 1.9487 2.4626 2.7235 4.0879-0.36771 1.1358-0.97089 2.1968-0.67334 2.6113 4.9028 6.8303 9.9057 13.589 14.983 20.291 0.13333 0.17597 1.3504-0.46906 2.0621-0.73121 0.6524 1.132 1.3048 2.2639 2.0164 3.7416z"/><path fill="#91EDFD" d="m120.11 379.44c1.1777-1.6646 2.421-4.0633 3.849-4.1788 8.1342-0.65805 16.709 6.7289 18.04 14.673 1.4959 8.9283 3.2521 17.814 4.9678 26.704 0.84349 4.3707 2.04 8.6821 2.6835 13.078 0.22929 1.5664-0.70232 3.3027-1.4359 5.1489-3.7124-3.7185-7.1306-7.5927-10.465-11.538-5.9775-7.0713-5.9944-16.052-7.7672-24.474-1.5213-7.2273-3.6489-14.172-9.8724-19.414z"/><path fill="#A8FDFD" d="m335.9 53.553c2.311 3.7143 4.4694 7.1053 6.6504 10.482 5.0941 7.8862 11.323 15.281 14.99 23.781 3.8371 8.8926 7.4296 18.6 4.4118 28.753-0.70004 2.3551-3.0663 4.2149-5.3358 6.3932-2.6527-0.5257-4.6355-1.142-7.0418-1.8611-2.4373 0.019005-4.451 0.14076-6.4623-0.10676 3.0699-4.7658 4.6871-10.046 7.2118-14.457 4.488-7.8414 2.0791-14.85 0.30383-21.81-2.7061-10.609-10.034-18.925-16.864-27.175-3.1585-3.8151-7.7961-6.4057-11.763-9.5514 0 4e-6 0.001221-0.001308-0.045776-0.34528-1.6827-2.7254-3.3185-5.1068-4.9543-7.4883 6.2521 4.3518 12.504 8.7036 18.899 13.385z"/><path fill="#9FFCFC" d="m232.32 427.85c-0.1888-4.3266-4.0632-2.0552-6.0468-3.5947 4.4701-1.4255 9.1626-3.2606 13.96-3.5948 6.6595-0.4639 13.553-0.61621 20.055 0.62442 5.6884 1.0854 10.996 4.2299 16.433 6.5548 5.5678 2.3809 10.915 5.5496 16.702 7.0334 2.9899 0.76657 6.8984-0.96527 10.074-2.3154 3.1421-1.3358 5.8844-3.6119 9.1547-5.519-3.0803 3.4836-6.6032 6.929-9.9048 10.575-1.4705 1.6239-2.4954 3.6513-3.7325 5.8561-2.0792 0.081024-4.1484-0.19842-6.6779-0.85718-1.7681-0.75015-3.076-1.1211-4.3838-1.4919-1.5792-0.79095-3.1584-1.5819-4.9868-2.9215-0.52686-0.74628-0.80444-0.94391-1.0821-1.1415-1.4234-0.98798-2.8468-1.9759-4.7202-3.2703-0.67535-0.51724-0.94009-0.64896-1.2442-0.70157 0 0 0.052765-0.095673-0.080017-0.27435-0.40689-0.36884-0.68106-0.55899-0.95523-0.74914-0.75821-0.32373-1.5164-0.64746-2.6579-1.4335-2.028-1.1606-3.6729-1.859-5.3177-2.5574 0 0 0.083771-0.053559 0.002014-0.17328-0.35263-0.098816-0.6235-0.077911-0.89438-0.056976-0.79544-0.24399-1.5908-0.48801-2.7182-1.0814-0.66931-0.44708-1.0067-0.54486-1.3441-0.64264 0 0-0.48099-0.12427-0.76651-0.48059-0.93579-0.40976-1.586-0.46323-2.2363-0.51666-0.43521-0.045594-0.87045-0.091156-1.6869-0.50879-1.3364-0.50641-2.2915-0.64075-3.2466-0.77512-2.7146 0.04898-5.4292 0.097992-8.8099-0.13217-1.5119 0.19049-2.3577 0.66016-3.2036 1.1298-0.45149 0.049377-0.903 0.098755-1.8775-0.10382-1.0563 0.20062-1.5896 0.6532-2.123 1.1058-0.45039 0.048981-0.9008 0.097931-1.8076-0.042755-0.68356-0.017761-0.91077 0.15405-1.138 0.3259-0.80644 0.58191-1.6129 1.1638-2.7382 1.7313z"/><path fill="#98FCFD" d="m368.04 90.507c-0.69611 0.62455-1.9132 1.2696-2.0465 1.0936-5.077-6.7019-10.08-13.461-14.983-20.291-0.29755-0.4145 0.30563-1.4755 0.80469-2.2924 7.5794 5.5293 11.624 13.531 16.224 21.49z"/><path fill="#ACFDFD" d="m316.66 40.009c1.9762 2.5405 3.612 4.9219 5.2941 7.6478-1.6342-0.49891-3.3971-1.2119-4.9793-2.2111-4.1442-2.6171-8.2685-5.2753-12.274-8.0972-1.3907-0.97981-2.4088-2.4885-3.6261-4.1099 5.0622 1.9676 10.153 4.2895 15.585 6.7705z"/><path fill="#ACFDFD" d="m414.92 416.57c-0.2486-8.6816-0.41165-17.784-0.32901-27.218 0.63141 6.9992 1.0937 14.327 1.3456 21.662 0.05838 1.699-0.60156 3.4227-1.0165 5.5561z"/><path fill="#ACFDFD" d="m215.51 31.976c0.53068 0.66563 1.0172 1.787 0.77809 1.9725-3.1254 2.4233-6.3535 4.7141-9.7704 6.7549 0.33545-2.1279 0.88557-3.9725 1.4357-5.817 2.3917-0.96322 4.7835-1.9264 7.5566-2.9104z"/><path fill="#B8FDFC" d="m387.93 213.58c-0.36523-0.77036-0.87402-2.0033-0.9119-3.2506-0.24191-7.9619-0.38019-15.927-0.26034-24.188 0.62244 1.6915 1.2075 3.6762 1.2371 5.6692 0.10529 7.0986 0.021576 14.2-0.064819 21.77z"/><path fill="#B8FDFC" d="m272.08 25.511c-9.5133 0.25864-19.084 0.078917-28.913-0.36317 2.0683-0.56656 4.3913-1.0853 6.7241-1.1332 6.1067-0.12536 12.219-0.10665 18.326 0.003433 1.2746 0.022972 2.5377 0.68635 3.8629 1.493z"/><path fill="#A4FDFD" d="m195 47.001c-0.001037-1.0608-0.002075-2.1216 0.21893-3.7447 0.40946-1.0739 0.59686-1.5855 0.78427-2.0971 0 0 0.42862-0.14827 0.96664-0.20391 1.0366-0.63594 1.5351-1.2163 2.0336-1.7966 1.5e-5 3e-6 0.46695-0.15403 0.83386-0.05753 0.63249-0.24785 0.89807-0.5922 1.1636-0.93655 0 0 0.46878-0.15948 0.84348 0.064068 0.96812 1.0729 1.5616 1.9222 1.9748 3.0029-0.7265 0.41071-1.2729 0.59005-2.1563 0.81084-2.1124 1.6805-3.8876 3.3195-5.9129 4.9586-0.41667 2.7e-5 -0.58333-4.9e-5 -0.75-1.22e-4z"/><path fill="#A8FDFD" d="m204 41c-0.59341-0.84933-1.1868-1.6987-1.9143-2.8297 1.6294-1.247 3.3928-2.2122 5.5112-3.2308-0.19513 1.7912-0.74526 3.6358-1.4458 5.771-0.15045 0.29057-0.15106 0.28978-0.48419 0.2899-0.77772-8e-6 -1.2223-1.41e-4 -1.6669-2.75e-4z"/><path fill="#A1FDFD" d="m288.09 441.44c1.1665 0.055267 2.4743 0.42618 3.8459 1.0968-1.1923-0.060577-2.4485-0.42087-3.8459-1.0968z"/><path fill="#A1FDFD" d="m267.05 428.39c1.5025 0.38513 3.1473 1.0835 4.873 2.1177-1.5229-0.37762-3.1268-1.091-4.873-2.1177z"/><path fill="#A1FDFD" d="m254.32 423.98c0.64651-0.004943 1.6016 0.1294 2.6175 0.56158-0.72913 0.0578-1.519-0.18225-2.6175-0.56158z"/><path fill="#A1FDFD" d="m242.33 424.91c0.517-0.54517 1.3628-1.0148 2.4271-1.2766-0.55379 0.58929-1.326 0.97073-2.4271 1.2766z"/><path fill="#A1FDFD" d="m259.06 425.42c0.53351-0.24048 1.1837-0.18701 1.8847 0.14175-0.55551 0.23422-1.1617 0.19318-1.8847-0.14175z"/><path fill="#91F8FC" d="m107 268c-0.57054 0.43939-1.1418 0.87817-1.8852 1.0918-0.17203-0.22519-0.11165-0.66928 0.27121-0.87973 0.79274-0.21136 1.2026-0.21225 1.6125-0.21313 0 0 7.02e-4 4.88e-4 0.00145 0.001098z"/><path fill="#98FCFD" d="m153.67 81.981c-0.10925 0.55826-0.50375 1.2231-1.2058 1.9547 0.10184-0.57155 0.51118-1.2098 1.2058-1.9547z"/><path fill="#A1FDFD" d="m238.29 425.87c0.23915-0.48419 0.77246-0.93677 1.4938-1.2095-0.27452 0.5336-0.73709 0.88739-1.4938 1.2095z"/><path fill="#A8FDFD" d="m198.7 39.13c-0.19488 0.60857-0.6934 1.1889-1.5047 1.7983 0.19182-0.58946 0.69647-1.208 1.5047-1.7983z"/><path fill="#A8FDFD" d="m195.7 41.131c0.1167 0.53968-0.070709 1.0513-0.48358 1.7272-0.4109 0.1533-0.59633 0.14224-1.0599 0.11507 0.22769-0.6342 0.73355-1.2523 1.5435-1.8423z"/><path fill="#98FCFD" d="m109.63 262.01c-0.10021 0.55127-0.48073 1.2056-1.1653 1.9243 0.0923-0.56415 0.48864-1.1927 1.1653-1.9243z"/><path fill="#98FCFD" d="m107 267.64c-0.40976 0.35794-0.81964 0.35883-1.5369 0.35919 0.099289-0.63803 0.50599-1.2755 1.1932-2.0274 0.30154 0.36078 0.32259 0.83597 0.34375 1.6682z"/><path fill="#A1FDFD" d="m262.02 426.37c0.26459-0.15204 0.60199-0.05426 0.9588 0.25589-0.28238 0.13959-0.5842 0.066772-0.9588-0.25589z"/><path fill="#A8FDFD" d="m200.75 38.106c-0.010926 0.40214-0.2765 0.74649-0.67008 0.93644 0.053147-0.43435 0.23428-0.71429 0.67008-0.93644z"/><path fill="#98FCFD" d="m111.69 259.95c0.067261 0.19827-0.12492 0.47821-0.5472 0.87811-0.057472-0.18548 0.11514-0.49094 0.5472-0.87811z"/><path fill="#A1FDFD" d="m235.29 426.07c-0.008027-0.11557 0.21918-0.28738 0.5683-0.33994 0.1219 0.11929-0.33307 0.28366-0.5683 0.33994z"/><path fill="#A1FDFD" d="m266.24 427.93c0.044281-0.10266 0.31516-0.12357 0.64209 0.017791 0.056061 0.16229-0.41553 0.063965-0.64209-0.017791z"/><path fill="#98FCFD" d="m110.68 260.97c0.065102 0.2056-0.1312 0.47681-0.55814 0.85593-0.054856-0.1915 0.12094-0.49091 0.55814-0.85593z"/><path fill="#A1FDFD" d="m274.96 432.32c0.19824-0.066253 0.47241 0.1239 0.86038 0.54245-0.18561 0.056915-0.48502-0.11453-0.86038-0.54245z"/><path fill="#A1FDFD" d="m275.99 433.34c0.22638-0.19931 0.49112-0.067597 0.85236 0.32162-0.16766 0.095673-0.47113 0.01297-0.85236-0.32162z"/><path fill="#A1FDFD" d="m281.96 437.32c0.19885-0.061218 0.47644 0.13641 0.86594 0.56757-0.1878 0.052765-0.48749-0.12799-0.86594-0.56757z"/><path fill="#ACFDFD" d="m194.88 47.211c0.28572-0.21021 0.45238-0.21014 1.2441-0.21026 1.3752-8e-5 2.1253 3e-5 2.8755 1.45e-4 -0.62433 1.1345-1.0364 2.4751-1.9063 3.3712-7.5113 7.7379-10.946 17.684-14.622 27.416-0.83553 2.2125 0.013229 5.2259 0.56493 7.7668 1.6942 7.8028 3.4811 15.593 5.561 23.299 0.47955 1.7768 2.6152 3.0484 3.3915 4.815 1.7741 4.0371 5.484 7.4377 3.3421 12.84-0.73167 1.8453 1.3261 4.6475 1.596 7.0696 0.59534 5.3432 0.75684 10.734 1.3396 16.079 0.1514 1.3886 1.3412 2.6323 1.8119 4.0245 0.94588 2.7975 3.3335 5.7067-0.3206 8.3795-0.34537 0.25261-0.6654 0.91777-0.58873 1.312 0.92806 4.7706 0.80151 10.227 3.2041 14.109 3.0065 4.8581 2.1429 9.2485 1.5926 14.011-0.071503 0.61874-0.94858 1.4395-0.76154 1.7488 2.8341 4.6867 2.115 9.5277 1.6259 14.689-0.4189 4.4206 1.5193 9.0139 1.6348 13.551 0.106 4.1669 2.5725 8.6217-0.82024 12.675-0.1461 0.17456 1.299 2.3395 2.3218 2.7202 4.4001 1.6379 5.3257 4.1299 2.9871 8.3606-0.46228 0.83632-0.64696 2.4736-0.15062 3.0895 3.8529 4.781 2.2991 10.251 2.6677 15.586 0.22264 3.2226 2.6825 6.3089 4.2168 9.4171 1.3296 2.6937 2.7714 5.3319 4.3352 8.323 2.2815 0.17868 7.1992-1.5039 3.7721 4.5122-0.31836 0.55887 1.5984 3.4401 2.6745 3.5666 5.2863 0.6217 6.8064 4.5855 8.5217 8.9015-3.4279-0.83862-6.8632-2.0446-10.299-3.2506-0.32658 0.337-0.65317 0.67401-0.97975 1.011 1.3095 1.3315 2.8856 2.494 3.8632 4.036 1.3121 2.0695 3.2379 4.5446 3.0181 6.6491-0.82402 7.8911 1.142 10.885 8.9259 9.6061 5.5847-0.91727 6.5066 1.0432 5.7232 6.1502 1.7175 0 3.7374 0.61249 4.4876-0.10413 3.59-3.4295 7.6517-1.8654 11.658-1.7953 2.8763 0.050415 4.7432 0.36352 4.8014 3.9702 0.020935 1.2969 1.8508 2.5646 2.8551 3.8457 1.3087-1.2935 2.7202-2.5009 3.8958-3.9058 1.079-1.2895 1.6209-3.1737 2.8995-4.1208 2.6385-1.9544 5.6101-3.4592 9.9177-6.027-5.6158-4.1669-9.9402-7.3756-14.265-10.584 0.056977-0.41153 0.11398-0.82306 0.17096-1.2346 2.6864 0.42358 5.5072 0.46927 8.0252 1.3658 3.1916 1.1364 5.8553 1.1779 8.0715-1.5733 1.9875-2.4672 3.4725-4.8535 0.17792-7.728-0.8689-0.75812-0.7161-3.0983-0.48517-4.6295 0.71927-4.7697-0.58548-6.1158-5.6042-5.8307-1.3006 0.073883-3.105-0.31915-3.899-1.1999-3.2166-3.5679-6.1673-7.3809-9.0814-11.206-0.22699-0.29794 0.58585-1.388 1.5149-1.9973 5.6572 5.2845 10.611 10.629 19.003 10.995 1.7516 0.14471 3.1084 0.18481 4.7331 0.36902 1.4737-0.046845 2.6795-0.23785 4.2803-0.38547 3.7313-1.0162 7.0676-2.0757 10.832-3.1118 2.3044-0.46558 4.221-0.83774 6.0477-1.4695 3.2127-1.1112 6.7567 0.39493 6.4824 3.1091-0.40189 3.9767-1.6157 7.8829-1.8783 11.859-0.30038 4.5479 0.11661 9.1538-4.4115 12.098-0.16632 0.10812-0.20633 0.70724-0.070129 0.94012 2.8276 4.8354 1.8212 8.7982-2.5848 12.11-0.44379 0.33356-0.46316 1.2129-0.71411 1.8248-3.709 9.0429-7.4853 18.059-11.08 27.147-0.63638 1.6089-1.3341 4.0286-0.60132 5.1866 2.1499 3.3972 0.60996 5.4424-1.4608 7.9118-1.2695 1.5139-2.8806 3.793-2.5775 5.3953 1.4592 7.7117-3.1958 13.946-4.467 20.953-0.10233 0.56403-0.72275 1.1258-1.2363 1.5093-5.0267 3.754-10.517 6.0221-16.938 4.8573-3.6849-0.66855-7.3717-0.094208-10.759-3.4382-2.2351-2.2065-6.2586-5.5539-10.663-2.2659-0.39163 0.2923-1.2594-0.10303-1.9045-0.091613-2.3065 0.040771-4.6676-0.1748-6.9064 0.24676-4.2133 0.79334-8.3309 2.0984-12.547 2.8737-0.97441 0.1792-2.6918-0.61777-3.2023-1.4785-3.2521-5.4839-6.8793-10.877-9.1185-16.78-1.3284-3.502-2.5323-6.0398-5.9595-7.796-2.4036-1.2316-3.4871-3.5979-0.80984-6.0681 0.80092-0.73901 1.3299-1.7727 2.1542-2.9063-3.1619-1.8741-6.0392-3.5796-9.1863-5.4449 1.0184-1.3197 1.9355-2.0084 2.1456-2.8697 0.77179-3.1629 1.7265-6.3862 1.7021-9.5798-0.008286-1.0818-2.848-2.007-4.1351-3.2679-0.69881-0.68454-1.4064-2.0886-1.1684-2.8877 2.2681-7.6178-6.1928-13.722-2.9428-21.418 0.037415-0.088562-0.20195-0.26535-0.24048-0.41892-1.1089-4.4192-2.7626-7.8771-7.2745-10.553-4.3805-2.5981-7.9098-4.8563-13.188-3.1852-1.9552 0.61905-4.7248 0.1784-6.6171-0.77899-8.0689-4.0825-7.9333-4.1613-13.697 2.4781-0.83664 0.96368-3.5322 1.8541-3.9003 1.4481-4.1355-4.5615-5.52-0.67664-7.1989 2.1697-1.5589 2.6429-2.9866 5.3632-4.5629 8.2139-2.39 0-5.4719-0.79806-7.8585 0.15152-6.8185 2.7131-7.9657 2.5215-11.635-4.4386 2.232-2.687 4.4593-5.3683 6.192-7.4542-3.5972 0.62405-8.0306 1.3932-12.456 1.7914 2.243-4.3568 4.1377-8.2654-0.41731-12.12-0.37498-0.31735 0.35474-2.577 1.1097-3.4876 4.3811-5.2849 8.9588-10.406 13.396-15.645 2.1137-2.4955 3.9481-5.2328 6.1226-7.6701 2.0449-2.2921 4.2372-4.497 6.6118-6.4378 2.2334-1.8253 5.2247-2.8575 7.1243-4.9327 6.23-6.8057 12.376-13.724 18.052-20.99 4.7436-6.073 9.3356-12.321 8.1561-21.029-0.46495-3.4325 0.89825-7.1129 1.4303-10.68 0.79631-5.3395 1.664-10.67 2.3672-16.021 0.50655-3.8553 1.0736-7.7365 1.1127-11.611 0.054672-5.4261-0.42964-10.855-0.53334-16.286-0.042862-2.2443 0.2848-4.4976 0.4763-6.7441 0.37204-4.3648 1.7124-8.8967 0.96834-13.058-1.938-10.841-4.9606-21.482-7.2271-32.271-2.8969-13.789-0.54883-26.663 7.4089-38.451 1.2531-1.8561 1.9045-4.1184 3.1745-6.2362 1.4466-1.3479 2.5528-2.6524 3.7719-4.213 0.37097-0.75208 0.62903-1.2481 0.88708-1.7441 0.30676-0.12373 0.56093-0.31672 0.88156-0.78927z"/><path fill="#B8FDFC" d="m307.94 105.34c-3.6517 1.3964-6.9692 2.586-10.297 3.7461-0.76376 0.26624-1.8606 0.87207-2.3007 0.57522-5.5987-3.776-10.855 0.664-16.285 0.67903-2.828 0.007828-5.6154 1.6934-8.4947 2.2178-1.2433 0.22649-3.6912-0.30409-3.8554-0.93959-1.267-4.9017-5.6728-4.6054-9.0365-5.4976-5.6526-1.4993-11.47-2.4033-17.25-3.3721-1.1408-0.19124-2.4215 0.6673-3.6388 0.67079-2.24 0.006416-4.5982 0.12987-6.6971-0.4979-4.4867-1.342-8.8123-3.215-13.268-4.6733-0.96584-0.31609-2.2033 0.19791-3.898 0.39851 0.15405-6.0698-10.809-6.836-6.2833-14.887-5.8017-7.7795-6.1869-18.929-0.99457-27.171 1.4151-2.2463 2.5566-4.6707 4.0396-6.8676 6.4832-9.6043 15.927-14.525 27.017-16.614 5.037-0.94905 10.121-1.7573 15.22-2.2461 13.711-1.3141 27.183-0.11327 39.674 6.049 9.859 4.8637 19.371 10.886 25.504 20.101 4.2666 6.4105 7.6416 13.92 4.4615 22.517-1.5189 4.1061-2.6703 8.8157-2.2278 13.069 0.64349 6.1859-3.2744 7.9726-7.2643 10.257-1.2785 0.73209-2.5305 1.5106-4.125 2.4854z"/><path fill="#416B8B" d="m225.14 187.85c-5.0432-4.7904-7.2111-10.198-6.968-16.956 0.53616-14.903 0.52417-29.825 0.90251-44.734 0.20302-8.0005 10.527-17.213 20.13-18.043 11.293-0.97654 20.737 2.5257 26.67 12.609 1.848 3.141 3.1872 7.1145 3.1964 10.711 0.037567 14.64-0.094483 29.311-1.0438 43.913-0.55255 8.4991-5.7132 14.836-13.612 18.247-10.785 4.6573-20.566 2.7916-29.275-5.7464z"/><path fill="#ACFDFD" d="m322.04 48.345c3.9226 2.8018 8.5602 5.3924 11.719 9.2075 6.8299 8.2498 14.158 16.566 16.864 27.175 1.7753 6.9596 4.1842 13.968-0.30383 21.81-2.5246 4.4109-4.1419 9.6909-7.4078 14.643-0.77243 0.97224-1.3465 1.3889-2.2462 1.8962-6.1821 3.999-8.8461 9.4121-8.8437 16.509 0.002594 7.7736 0.14648 15.655-1.0241 23.297-2.0316 13.264-1.5464 25.599 8.0896 36.345-0.29657 1.3025-0.53214 2.2523-0.58017 3.2116-0.3082 6.1553 0.6622 12.477-3.182 18.093-0.92352 1.3492-0.98303 3.4137-1.0985 5.1716-0.65262 9.9331-2.5563 12.066-11.56 12.178-4.5547-8.0087-11.51-12.444-19.572-15.475 1.9958-0.46933 3.9757-1.2473 5.9902-1.3503 6.1152-0.31241 9.7101-3.3869 11.158-9.184 0.98532-3.9448 2.9623-7.6722 0.088623-11.658-0.46225-0.64108-0.3678-2.1425 0.068237-2.9029 5.8356-10.176 2.2343-21.155 2.8373-31.768 0.22491-3.9592 0.70807-7.9034 0.94815-11.862 0.76273-12.574 3.5383-24.629 9.164-35.953 0.65793-1.3243 1.321-2.8715 2.4372-3.7067 8.507-6.3663 9.5852-15.769 9.1354-25.004-0.29346-6.0246-2.4631-12.306-5.1852-17.78-3.8129-7.6675-8.4552-15.053-15.833-20.115-0.74512-0.51127-1.0884-1.6082-1.6626-2.7773z"/><path fill="#436B92" d="m290.99 280.97c-7.9968-0.26102-12.951-5.6059-18.271-10.954-5.5437-8.0381-7.2495-17.001-5.3968-25.897 2.1226-10.191 8.9963-17.226 19.558-20.689 1.4085-0.06723 2.2467-0.2903 3.0849-0.51337 0.42078-0.19209 0.84158-0.3842 1.5625-0.34805 0.30014 0.22822 0.45108 0.69372 0.63532 0.94873 13.483 12.022 15.007 26.938 11.411 43.08-1.2414 5.5724-3.944 10.184-10.229 11.627-0.94547 0.21707-1.5781 1.7964-2.3554 2.7457z"/><path fill="#669BEB" d="m291.98 223.26s-0.15094-0.4655-0.21033-0.70277c3.3683-0.25546 6.7961-0.27365 10.674-0.22234 8.5122 3.1011 15.468 7.536 20.11 15.933 1.0214 4.0235 2.0368 7.3967 2.3661 10.836 1.1903 12.431-3.9085 21.906-14.116 28.816-3.3363 1.0596-6.6725 2.1191-10.394 2.8914-0.38562-0.28726-0.35818-0.77451-0.38156-0.79596-0.023346-0.021424 0.005402 0.034668 0.37213 0.023651 4.4329-2.7072 8.499-5.4034 12.876-8.2354 11.597-10.265 9.3051-30.591-0.41516-38.125-3.3733-2.7963-6.591-5.296-10.078-8.0475-3.7802-0.95837-7.291-1.6649-10.802-2.3715z"/><path fill="#ACFDFD" d="m236.85 299.33c1.7849 0.30298 3.8777 0.55112 4.8816 1.7281 0.57512 0.67429-0.46799 2.9303-1.1295 4.3076-0.15393 0.3205-2.3963 0.21475-2.5227-0.12485-0.66368-1.7827-0.9564-3.7036-1.2294-5.9109z"/><path fill="#A8FDFD" d="m199.18 46.769c-0.9301 0.23136-1.6803 0.23126-2.8054 0.23124 1.4003-1.6389 3.1756-3.278 5.2478-4.6151-0.009842 1.4061-0.31664 2.5102-0.62341 3.6144-0.54633 0.17932-1.0927 0.35864-1.8189 0.76944z"/><path fill="#ACFDFD" d="m201.34 45.957c-0.034897-1.061 0.2719-2.1652 0.6188-3.6127 0.5865-0.52271 1.1329-0.70205 1.8594-1.1128 0.62471-0.23124 1.0693-0.23111 1.8473-0.23064-1.1057 1.6379-2.5447 3.2754-4.3255 4.9561z"/><path fill="#ACFDFD" d="m232.26 276.03c0.29701 1.2614 0.36551 2.272 0.47592 3.901-2.6895-3.0085-2.6895-3.0085-0.47592-3.901z"/><path fill="#ACFDFD" d="m261.48 311.26c-0.81876-0.14746-1.431-0.52182-2.0433-0.89618 0.4024-0.38144 0.80481-0.76288 1.2072-1.1443 0.34753 0.60452 0.69507 1.209 0.83609 2.0405z"/><path fill="#ACFDFD" d="m278.21 314.75c-0.22678-0.5303-0.17694-0.99908-0.1271-1.4679 0.41418 0.108 0.82834 0.216 1.2426 0.32398-0.27963 0.40182-0.55923 0.80362-1.1154 1.1439z"/><path fill="#ACFDFD" d="m241.42 308.65c-0.10529 0.40237-0.36166 0.64596-0.61803 0.88956-0.10059-0.10623-0.29457-0.29944-0.28832-0.30615 0.24034-0.25806 0.49901-0.49899 0.90634-0.5834z"/><path fill="#4A75A2" d="m289.6 222.87c-0.46869 0.2699-1.3069 0.49297-2.3592 0.5076 0.52048-0.32378 1.2551-0.4391 2.3592-0.5076z"/><path fill="#A8FDFD" d="m311.23 277.95c9.7794-6.9343 14.878-16.409 13.688-28.84-0.32926-3.4389-1.3447-6.8121-2.1325-10.604 8.683-0.73169 10.587-2.8651 11.239-12.798 0.11551-1.758 0.17502-3.8224 1.0985-5.1716 3.8442-5.6161 2.8738-11.937 3.182-18.093 0.048034-0.95926 0.2836-1.9091 0.91144-3.1647 1.1417-0.22163 1.8044-0.14183 2.7021 0.22522 3.478 1.156 6.721 2.0247 10.14 3.0239 0.45615 0.22732 0.70874 0.3721 0.93741 0.98349 0.92371 5.815 2.3555 11.219-1.5798 16.2-0.5748 0.72752-0.33801 2.2623-0.17636 3.38 1.5745 10.886 0.32904 21.277-4.2801 31.408-1.4099 3.0991-1.643 7.0815-1.304 10.551 0.57712 5.907 2.1513 11.622-2.0334 17.054-1.0684 1.3867-0.55264 3.9866-0.7847 6.0268-0.29483 2.5926 0.32678 6.0074-1.0921 7.6197-4.2655 4.8467-2.8622 9.6547-1.5937 14.859 0.38464 1.578-0.37628 3.5481-0.97198 5.2097-0.35507 0.99042-1.8721 1.6334-2.0737 2.5983-1.2393 5.9321-6.4293 10.915-4.271 17.693 0.19388 0.60883-0.46985 1.5187-0.79831 2.2609-1.3836 3.1267-2.8332 6.2249-4.1772 9.3683-1.1518 2.6939-2.3572 5.3828-3.2444 8.1678-1.3137 4.1241-4.1563 8.8092-3.1938 12.413 2.8328 10.606-5.3341 17.663-7.1047 26.663-0.70297 3.5736-3.1198 6.8393-4.9083 10.163-2.8777 5.3489-5.3643 12.275-12.528 11.816-9.3833-0.60101-18.621-3.2312-27.974-4.628-6.4662-0.96558-13.13-2.3601-19.515-1.7047-9.4602 0.97101-18.775 3.4827-28.099 5.5726-2.6977 0.60462-5.539 1.5561-7.7569 3.1329-7.35 5.2254-16.191 1.7201-17.603-7.1854-0.20396-1.286-1.045-2.4798-1.1987-3.7633-0.63422-5.2931-1.2219-10.597-1.5968-15.913-0.12434-1.7632 0.96751-3.6915 0.60161-5.3448-1.6586-7.4937-3.9407-14.669-4.5766-22.587-0.68355-8.5111-4.0018-17.263-9.6615-24.414-1.5144-1.9135-3.9047-3.2028-5.1728-5.2293-3.8143-6.0955-11.263-8.6519-17.942-5.8556-1.1787 0.49353-2.5299 0.56128-3.7849 0.88916-5.4281 1.4183-11.009 2.4399-16.229 4.4128-5.1387 1.942-9.8905 4.8959-14.849 7.3297-2.6673 1.3091-5.4697 2.3477-8.1116 3.7025-5.7317 2.9392-11.273 6.286-17.14 8.9129-3.6724 1.6444-7.7429 2.5976-11.734 3.2653-2.8905 0.48355-6.7718 1.1057-8.7242-0.341-2.663-1.9731-4.1188-5.4052-2.9573-9.73 3.7655-14.021 11.454-26.094 18.826-38.199 6.0062-9.8625 13.674-18.707 20.458-28.108 1.3026-1.8053 1.9224-4.1032 2.8572-6.1739 0 0-3.05e-4 0 0.34279-0.046143 1.0945-0.64935 1.9649-1.1511 2.5789-1.8714 6.4525-7.5692 12.705-15.315 19.332-22.727 6.3546-7.1072 13.564-13.496 19.5-20.918 4.7246-5.9074 9.4684-12.458 11.723-19.516 2.8311-8.8644 3.4113-18.506 4.4479-27.869 1.1294-10.202 1.9989-20.457 2.3579-30.711 0.27019-7.7162-0.10501-15.498-0.80983-23.194-0.79837-8.7176-2.5523-17.346-3.4005-26.061-0.92511-9.5054 0.38321-18.887 2.928-28.087 0.24719-0.80502 0.49438-1.61 1.1846-2.7599 0.90028-0.97672 1.3575-1.6086 1.8148-2.2404 0.23888-1.1208 0.47774-2.2416 1.2043-3.7278 2.9241-4.0007 5.3605-7.6358 7.7969-11.271 0 0-6.1e-4 -8.32e-4 0.37465-6.26e-4 1.1251-3.1e-5 1.8749-2.71e-4 2.6247-3.59e-4 0 1.53e-4 6.1e-4 6.79e-4 6.1e-4 6.79e-4 -0.92961 2.0745-1.5811 4.3368-2.8341 6.1929-7.9577 11.788-10.306 24.661-7.4089 38.451 2.2665 10.789 5.2891 21.43 7.2271 32.271 0.74402 4.1617-0.5963 8.6936-0.96834 13.058-0.1915 2.2465-0.51916 4.4998-0.4763 6.7441 0.1037 5.4308 0.58801 10.86 0.53334 16.286-0.039047 3.8747-0.60611 7.7559-1.1127 11.611-0.70316 5.3517-1.5709 10.682-2.3672 16.021-0.53203 3.5673-1.8952 7.2477-1.4303 10.68 1.1795 8.7078-3.4125 14.956-8.1561 21.029-5.6761 7.2669-11.822 14.185-18.052 20.99-1.8996 2.0752-4.8909 3.1073-7.1243 4.9327-2.3746 1.9408-4.5669 4.1457-6.6118 6.4378-2.1745 2.4373-4.0089 5.1745-6.1226 7.6701-4.4374 5.2391-9.0151 10.36-13.396 15.645-0.75496 0.91068-1.4847 3.1703-1.1097 3.4876 4.555 3.8549 2.6603 7.7635 0.060554 12.122-1.3045 0.78156-2.2442 1.1908-3.1839 1.6001 0.41512 0.45465 0.83022 0.90927 1.2453 1.3639 0.76245-0.86481 1.5249-1.7296 2.2874-2.5945 4.4335-0.7692 8.867-1.5383 12.464-2.1624-1.7327 2.0859-3.96 4.7672-6.192 7.4542 3.6691 6.9601 4.8163 7.1516 11.635 4.4386 2.3866-0.94958 5.4685-0.15152 7.8585-0.15152 1.5764-2.8506 3.004-5.571 4.5629-8.2139 1.6789-2.8463 3.0634-6.7312 7.1989-2.1697 0.36806 0.40594 3.0636-0.48444 3.9003-1.4481 5.764-6.6394 5.6283-6.5606 13.697-2.4781 1.8922 0.9574 4.6619 1.398 6.6171 0.77899 5.278-1.6711 8.8073 0.5871 13.188 3.1852 4.5119 2.676 6.1656 6.1338 7.2745 10.553 0.038528 0.15356 0.27789 0.33035 0.24048 0.41892-3.25 7.6956 5.2109 13.8 2.9428 21.418-0.23793 0.79913 0.46964 2.2032 1.1684 2.8877 1.2871 1.2608 4.1268 2.1861 4.1351 3.2679 0.024414 3.1936-0.93034 6.4169-1.7021 9.5798-0.21016 0.86124-1.1272 1.55-2.1456 2.8697 3.1471 1.8653 6.0244 3.5707 9.1863 5.4449-0.82437 1.1336-1.3533 2.1673-2.1542 2.9063-2.6773 2.4702-1.5938 4.8365 0.80984 6.0681 3.4272 1.7562 4.6311 4.294 5.9595 7.796 2.2392 5.9029 5.8664 11.296 9.1185 16.78 0.51045 0.86072 2.2279 1.6577 3.2023 1.4785 4.2157-0.77533 8.3333-2.0804 12.547-2.8737 2.2387-0.42157 4.5999-0.20599 6.9064-0.24676 0.64508-0.011414 1.5128 0.38391 1.9045 0.091613 4.4047-3.2879 8.4282 0.059479 10.663 2.2659 3.3871 3.344 7.0739 2.7696 10.759 3.4382 6.4201 1.1648 11.911-1.1033 16.938-4.8573 0.51358-0.38352 1.134-0.94528 1.2363-1.5093 1.2712-7.0068 5.9261-13.241 4.467-20.953-0.30316-1.6023 1.308-3.8814 2.5775-5.3953 2.0707-2.4694 3.6107-4.5146 1.4608-7.9118-0.73279-1.1579-0.035065-3.5777 0.60132-5.1866 3.5947-9.088 7.371-18.104 11.08-27.147 0.25095-0.61185 0.27032-1.4912 0.71411-1.8248 4.406-3.3115 5.4124-7.2742 2.5848-12.11-0.1362-0.23288-0.096192-0.832 0.070129-0.94012 4.5281-2.9442 4.1111-7.5501 4.4115-12.098 0.26263-3.9762 1.4764-7.8824 1.8783-11.859 0.27432-2.7142-3.2697-4.2203-6.4824-3.1091-1.8268 0.6318-3.7433 1.004-6.0477 1.4695m-184.42 32.499c-3.7861-1.6121-7.3067-1.6846-10.068 0.85516 1.9019 1.6685 3.1149 3.5632 4.6614 3.8928 2.2567 0.4809 5.1119 0.52036 7.0564-0.50052 2.4239-1.2726 0.98406-2.9787-1.65-4.2474m-17.408 6.1372c0.80719 0.59042 1.6144 1.1809 2.4216 1.7713 0.26556-0.83679 0.53113-1.6736 0.79671-2.5103-0.96479 0.051269-1.9296 0.10254-3.2183 0.73904m9.4118 0.87222c-0.00473 0.35275-0.012725 0.70569 0.004189 1.0574 4.35e-4 0.008972 0.40143 0.014984 0.40221 0.00531 0.028031-0.35098 0.030693-0.70401-0.4064-1.0627z"/><path fill="#A4FDFD" d="m114.7 275.15c-0.63832 1.9162-1.2581 4.2142-2.5607 6.0194-6.7839 9.4016-14.451 18.246-20.458 28.108-7.3722 12.106-15.061 24.178-18.826 38.199-1.1615 4.3248 0.29429 7.7568 2.9573 9.73 1.9524 1.4467 5.8337 0.82456 8.7242 0.341 3.9915-0.66772 8.0619-1.6209 11.734-3.2653 5.8668-2.6269 11.408-5.9737 17.14-8.9129 2.6419-1.3548 5.4443-2.3934 8.1116-3.7025 4.9589-2.4338 9.7108-5.3877 14.849-7.3297 5.2203-1.9728 10.801-2.9944 16.229-4.4128 1.255-0.32788 2.6061-0.39563 3.7849-0.88916 6.6783-2.7963 14.127-0.23987 17.942 5.8556 1.2681 2.0265 3.6584 3.3158 5.1728 5.2293 5.6597 7.1512 8.978 15.903 9.6615 24.414 0.6359 7.918 2.918 15.093 4.5766 22.587 0.36591 1.6533-0.72595 3.5815-0.60161 5.3448 0.37482 5.3161 0.96254 10.62 1.5968 15.913 0.15379 1.2835 0.99478 2.4773 1.1987 3.7633 1.4125 8.9055 10.253 12.411 17.603 7.1854 2.2179-1.5768 5.0592-2.5283 7.7569-3.1329 9.3243-2.0898 18.639-4.6016 28.099-5.5726 6.3848-0.65536 13.049 0.73917 19.515 1.7047 9.3539 1.3968 18.591 4.027 27.974 4.628 7.1635 0.4588 9.6501-6.4673 12.528-11.816 1.7884-3.3242 4.2053-6.5898 4.9083-10.163 1.7706-9.0006 9.9375-16.058 7.1047-26.663-0.96256-3.6037 1.8801-8.2888 3.1938-12.413 0.88715-2.785 2.0926-5.4738 3.2444-8.1678 1.3441-3.1434 2.7936-6.2416 4.1772-9.3683 0.32846-0.74222 0.99219-1.6521 0.79831-2.2609-2.1583-6.7777 3.0317-11.761 4.271-17.693 0.20157-0.9649 1.7186-1.6079 2.0737-2.5983 0.5957-1.6616 1.3566-3.6317 0.97198-5.2097-1.2685-5.2039-2.6718-10.012 1.5937-14.859 1.4189-1.6122 0.79727-5.0271 1.0921-7.6197 0.23206-2.0402-0.28369-4.6401 0.7847-6.0268 4.1847-5.4317 2.6105-11.147 2.0334-17.054-0.33893-3.4693-0.1059-7.4517 1.304-10.551 4.6091-10.131 5.8545-20.523 4.2801-31.408-0.16165-1.1178-0.39844-2.6525 0.17636-3.38 3.9353-4.9807 2.5035-10.385 1.9475-16.25 1.7746-0.83852 3.185-1.2086 4.5954-1.5787 2.8596 4.0276 4.7048 7.9891 3.2592 13.4-1.2166 4.5534-0.48676 9.5889-1.2048 14.322-1.2219 8.0547-2.9049 16.039-4.3922 24.054-0.21121 1.1382-0.56546 2.2748-0.59213 3.4182-0.17529 7.5169 0.069 15.063-0.5213 22.544-0.43372 5.4965-1.9266 10.91-2.956 16.359-0.15326 0.81125-0.58975 1.642-0.49652 2.4156 1.1064 9.1805-1.5493 17.538-5.0156 25.887-3.9616 9.5419-7.5074 19.267-10.919 29.023-2.648 7.5719-4.8142 15.312-7.1902 22.979-0.44272 1.4285-0.44452 3.2714-1.3695 4.2247-4.1026 4.2276-2.8634 10.05-4.7925 14.785-3.4559 8.4827-7.0883 17.083-12.074 24.7-5.026 7.6776-18.246 9.0394-26.94 4.1827-16.023-8.9507-32.937-10.623-50.454-5.6959-5.3538 1.5058-10.373 4.1723-15.607 6.1438-4.1803 1.5746-8.4545 2.9001-12.686 4.338-2.4629 0.83685-4.9245 1.6773-7.5852 2.5838-5.2946-5.7903-10.322-12.031-11.257-20.347-0.65117-5.7918-0.48412-11.671-0.81616-17.504-0.37273-6.5476-1.0262-13.081-1.311-19.631-0.21492-4.9437 0.29282-9.7424-3.193-14.207-1.954-2.5029-1.1907-7.3944-3.3388-9.4252-5.2062-4.9219-11.138-9.2504-17.336-12.858-2.2473-1.308-6.2881-0.51761-9.157 0.40955-8.5204 2.7536-16.702 6.6504-25.318 8.9887-11.395 3.0925-20.737 10.118-31.246 14.853-5.8856 2.6516-11.523 5.8689-17.467 8.3705-2.6562 1.118-5.7852 1.4645-8.7073 1.4988-2.886 0.033875-5.1091-4.9938-3.7981-8.4699 4.4418-11.777 7.9017-24.104 13.822-35.097 7.0477-13.087 16.09-25.124 24.592-37.391 3.7599-5.4252 8.3162-10.299 12.807-15.577z"/><path fill="#9FFCFC" d="m366.59 191.89c0.79913 1.3136 2.2132 2.5888 2.298 3.947 0.56317 9.0277 0.71213 18.081 1.2422 27.111 0.88849 15.137 1.5598 30.305 3.1443 45.374 0.67639 6.4324 3.6843 12.59 5.0765 18.993 0.466 2.1433-0.61331 4.7188-1.328 6.9891-0.48007 1.5252-1.5345 2.8772-2.3784 4.2786-1.7736 2.9453-1.7311 5.0122 1.9956 6.5835 3.2348 1.364 3.3065 4.4825 0.16312 5.2139-7.1225 1.6571-7.5715 7.1009-8.8959 12.691-1.2303 5.1935-3.6921 10.085-5.3817 15.186-0.59708 1.8024-0.51495 3.8298-0.76694 5.9572-1.8067 2.4529-3.7793 5.4229-6.0573 8.1364-2.0199 2.406-4.3686 4.5378-6.6003 6.7624-0.33914 0.33807-1.1458 0.46487-1.2057 0.78778-1.4889 8.026-10.933 12.142-10.343 21.356 0.12457 1.9444-2.3523 3.9358-3.1707 6.081-3.5177 9.2213-6.6165 18.611-10.414 27.712-1.2419 2.9762-4.1387 5.2618-6.6244 7.9075 3.4738-8.6932 7.4977-17.349 11.052-26.193 3.2458-8.0757 6.1609-16.298 8.8607-24.573 1.128-3.4575 0.96289-7.3331 2.0602-10.805 0.81674-2.5844 2.7058-4.8336 4.1398-7.2186 3.2408-5.3899 4.0105-12.063 10.142-16.087 2.0647-1.355 1.4976-6.6657 2.2143-10.152 0.37167-1.8076 0.50324-4.822 1.4633-5.144 3.5043-1.1752 3.6575-3.8352 4.1735-6.5981 0.78854-4.2222 2.1973-8.3937 2.4436-12.639 0.57568-9.9208 2.3532-19.617 0.66507-29.885-1.5666-9.5289 0.57684-19.643 0.85532-29.506 0.345-12.219 0.66638-24.447 0.47888-36.663-0.037262-2.426-2.4201-4.816-3.6791-7.813 1.4867-2.9903 2.9312-5.3902 4.3756-7.7902z"/><path fill="#9DFDFC" d="m121.3 259.84c0.27223-1.5412 0.5222-3.4464 1.4645-4.9041 7.2578-11.228 15.472-21.934 21.692-33.7 3.7467-7.0871 5.258-15.672 6.3594-23.775 2.2406-16.486 4.1309-33.07 5.0034-49.675 0.67293-12.807-0.7467-25.711-0.5876-38.563 0.066513-5.3735 1.1822-10.942 2.9292-16.042 3.2287-9.4252 5.4553-19.568 14.495-26.139-1.292 3.053-2.9292 6.1511-4.8694 9.8457-5.5025 11.804-7.9419 23.493-6.8252 35.898 0.56461 6.2719 1.0049 12.583 0.96887 18.874-0.05095 8.8862-0.4341 17.779-0.97446 26.651-0.52309 8.5882-1.4005 17.156-2.1712 25.728-0.35536 3.9524-0.34547 8.0207-1.3407 11.816-2.5642 9.7795-5.5967 19.436-8.4421 29.142-0.31213 0.78827-0.62427 1.5765-1.2505 2.8325-0.79256 1.3676-1.2711 2.2676-1.7495 3.1675-0.30672 0.12384-0.56079 0.31694-1.1946 0.84216-0.89008 0.89452-1.3477 1.5262-1.8054 2.1578-0.25813 0.49594-0.51627 0.99188-1.2289 1.7872-1.8933 1.9372-3.3322 3.575-5.0534 5.3629-0.76074 1.05-1.2392 1.95-1.7177 2.8499-4.4678 5.2289-8.9356 10.458-13.702 15.843z"/><path fill="#A4FDFD" d="m173.65 74.074c-2.19 9.1255-3.4983 18.507-2.5732 28.013 0.84818 8.7149 2.6021 17.343 3.4005 26.061 0.70482 7.696 1.08 15.478 0.80983 23.194-0.35902 10.254-1.2285 20.509-2.3579 30.711-1.0366 9.3633-1.6168 19.005-4.4479 27.869-2.2541 7.0577-6.9979 13.609-11.723 19.516-5.936 7.4221-13.145 13.811-19.5 20.918-6.627 7.4119-12.88 15.158-19.332 22.727-0.61404 0.72031-1.4844 1.2221-2.5787 1.8714 3.1368-4.9288 6.2782-10.188 10.168-14.818 7.6449-9.1001 15.952-17.647 23.524-26.804 7.1957-8.7018 13.201-18.167 15.261-29.635 1.484-8.2634 3.8288-16.411 4.7568-24.726 1.4435-12.933 2.2952-25.953 2.8065-38.96 0.2043-5.1965-1.0824-10.466-1.8294-15.683-2.2547-15.745-4.6302-31.489 1.1186-47.026 0.42806-1.1569 1.4149-2.107 2.4967-3.2273z"/><path fill="#5179B3" d="m358.07 201.64c-1.5139 0.61172-2.9243 0.98183-4.7024 1.4015-0.5929-0.14296-0.84549-0.28774-1.2701-0.97856 0.53867-9.8175 1.4997-19.031 1.8289-28.268 0.34299-9.6224-0.065795-19.269 0.12009-28.9 0.15802-8.1881-0.1629-16.224-4.0477-23.689 1.9828 0.61632 3.9655 1.2327 6.2791 1.9245 1.3873 1.0974 2.4438 2.1194 3.628 3.868 0.56589 5.326 1.3229 9.9212 1.3817 14.525 0.16592 13.013 0.2992 26.037-0.066589 39.042-0.18942 6.7343-1.463 13.438-2.2469 20.156-0.26688 0.2256-0.53375 0.4512-0.90417 0.91843z"/><path fill="#9FFCFC" d="m149.35 224.95c2.4953-9.6571 5.5277-19.314 8.0919-29.093 0.99524-3.7956 0.98535-7.8639 1.3407-11.816 0.77072-8.5721 1.6481-17.139 2.1712-25.728 0.54036-8.8719 0.92351-17.765 0.97446-26.651 0.036056-6.2906-0.40427-12.602-0.96887-18.874-1.1167-12.405 1.3226-24.094 6.7816-35.545 0.025482 1.5993-0.12834 3.4564-0.45613 5.2823-1.3703 7.6333-3.6805 15.227-3.9377 22.893-0.24004 7.1539 2.059 14.354 2.5637 21.581 0.79774 11.425 1.0279 22.844-0.82599 34.281-2.3553 14.53-3.7373 29.223-6.2593 43.72-0.9764 5.6126-3.8187 10.926-6.0432 16.279-0.5793 1.394-2.0311 2.4255-3.4324 3.6721z"/><path fill="#567FBD" d="m359.28 200.66c0.47736-6.6617 1.751-13.365 1.9404-20.1 0.36578-13.005 0.23251-26.029 0.066589-39.042-0.058746-4.6041-0.8158-9.1993-1.2295-14.252 6.8469 5.088 7.9753 12.746 8.0001 21.282 0.013885 5.1381-0.03183 9.8307-0.01471 14.986-0.39154 9.4748-0.84589 18.487-1.3745 27.924-1.5187 2.8254-2.9632 5.2254-4.6045 7.8709-0.95706 0.58844-1.7172 0.9313-2.7838 1.33z"/><path fill="#A4FDFD" d="m185.7 54.157c-2.138 3.4793-4.5744 7.1145-7.3561 10.797 2.1223-3.5156 4.59-7.0782 7.3561-10.797z"/><path fill="#9FFCFC" d="m137.34 240.96c1.0972-1.5945 2.5361-3.2323 4.3167-4.9134-1.0972 1.5945-2.5361 3.2323-4.3167 4.9134z"/><path fill="#9DFDFC" d="m95.342 291.96c1.097-1.5947 2.5356-3.2325 4.3158-4.9136-1.097 1.5946-2.5356 3.2325-4.3158 4.9136z"/><path fill="#A8FDFD" d="m193 50c-1.1062 1.3045-2.2124 2.609-3.659 3.9569-0.34041 0.043338-0.34102 0.042812-0.34102-0.29062v-1.6666c0.55676-0.51086 1.1135-1.0217 2.1685-1.7663 0.94264-0.23361 1.3871-0.23351 1.8315-0.23341z"/><path fill="#9DFDFC" d="m116.3 266.84c0.45557-1.4694 1.2143-3.0995 2.3352-4.7838-0.4359 1.5049-1.234 3.064-2.3352 4.7838z"/><path fill="#9FFCFC" d="m316.66 423.04c-0.7659 1.2614-1.8723 2.5659-3.3191 3.9136 0.7659-1.2614 1.8723-2.5659 3.3191-3.9136z"/><path fill="#9FFCFC" d="m146.32 230.96c0.16095-0.86259 0.63945-1.7625 1.4002-2.8126-0.17271 0.82501-0.6277 1.8001-1.4002 2.8126z"/><path fill="#9DFDFC" d="m174.28 64.85c0.16-0.80556 0.60231-1.7611 1.3812-2.7833-0.14191 0.83335-0.62038 1.7333-1.3812 2.7833z"/><path fill="#9FFCFC" d="m135.34 243.93c0.14195-0.8333 0.62045-1.7332 1.3812-2.7833-0.16005 0.80547-0.60236 1.761-1.3812 2.7833z"/><path fill="#A4FDFD" d="m193.11 49.744c-0.55736 0.25597-1.0018 0.25588-1.7796 0.2557 0.43416-0.66108 1.2016-1.3221 2.3179-1.9914 0.090728 0.48766-0.16733 0.98366-0.5383 1.7357z"/><path fill="#A4FDFD" d="m188.68 52.034c0.3183 0.41046 0.3183 0.85484 0.3183 1.6325-0.74983 0.33352-1.4996 0.33376-2.6244 0.33411 0.41266-0.64415 1.2002-1.2884 2.3061-1.9666z"/><path fill="#9DFDFC" d="m111.28 273.85c0.16003-0.80557 0.60244-1.7612 1.3814-2.7834-0.14198 0.83337-0.62049 1.7334-1.3814 2.7834z"/><path fill="#9DFDFC" d="m114.28 269.85c0.1601-0.80557 0.60256-1.7612 1.3816-2.7834-0.14204 0.8334-0.62063 1.7334-1.3816 2.7834z"/><path fill="#9DFDFC" d="m119.31 261.95c0.14384-0.57925 0.6012-1.2109 1.3721-1.8951-0.14384 0.57922-0.6012 1.211-1.3721 1.8951z"/><path fill="#9FFCFC" d="m143.31 233.95c0.1441-0.57916 0.60174-1.2108 1.3729-1.895-0.14409 0.57915-0.60173 1.2108-1.3729 1.895z"/><path fill="#A4FDFD" d="m176.69 69.052c-0.14377 0.57925-0.60103 1.2111-1.3718 1.8956 0.14378-0.57923 0.60103-1.2111 1.3718-1.8956z"/><path fill="#4D76A9" d="m349.57 121.1c4.3083 7.5678 4.6292 15.604 4.4712 23.792-0.18588 9.6311 0.2229 19.278-0.12009 28.9-0.32922 9.2363-1.2903 18.45-2.0051 28.137-3.2744-0.40527-6.5174-1.274-9.6806-2.6664 0.65729-1.8735 1.6681-3.1987 1.7468-4.5771 1.034-18.114 2.3947-36.23 2.6087-54.359 0.069427-5.8795 0.24216-12.874-5.5998-17.342 0.57404-0.4167 1.1481-0.83339 1.9182-1.4364 2.2097-0.30801 4.2234-0.42976 6.6607-0.44876z"/><path fill="#4A75A2" d="m292.17 223.52c3.3266 0.45157 6.8375 1.1581 10.606 2.4943 1.7773 3.1141 2.9873 5.867 4.8696 8.0366 8.0412 9.2684 7.5298 29.152 0.64712 37.023-2.676 3.06-5.4987 5.9917-8.2546 8.9818 3.1e-5 0-0.028717-0.056092-0.39636-0.047913-1.5068 0.43695-2.6459 0.86569-3.7851 1.2944-1.3568-0.040101-2.7135-0.080201-4.4651-0.22492 0.38242-1.0538 1.015-2.6332 1.9605-2.8503 6.2849-1.4431 8.9875-6.0544 10.229-11.627 3.596-16.142 2.0717-31.058-11.411-43.08z"/><path fill="#4D76A9" d="m296.12 281.44c0.87122-0.57285 2.0103-1.0016 3.5405-1.4171 0.39099 0.013244 0.36356 0.50049 0.35413 0.74435-1.2152 0.43488-2.421 0.62588-3.8947 0.67273z"/><path fill="#4A75A2" d="m340.67 123.08c6.1677 4.3771 5.9949 11.372 5.9255 17.251-0.21408 18.128-1.5747 36.245-2.6087 54.359-0.078705 1.3784-1.0895 2.7035-1.9818 4.2898-0.97751 0.1566-1.6402 0.076797-2.6342-0.049836-10.115-10.445-10.6-22.78-8.5685-36.044 1.1706-7.6424 1.0267-15.524 1.0241-23.297-0.00235-7.097 2.6616-12.51 8.8437-16.509z"/><path fill="#4D76A9" d="m300.4 280.04c2.3892-2.9791 5.2119-5.9109 7.8879-8.9708 6.8827-7.8701 7.3941-27.754-0.64712-37.023-1.8823-2.1696-3.0923-4.9225-4.6003-7.7848 3.2289 2.122 6.4467 4.6217 9.8105 7.8112 0.39633 1.7986 0.37958 3.0697 0.93933 3.9903 4.2568 7.0011 5.3541 14.479 3.2465 22.321-1.0571 3.9329-2.6959 7.7094-4.0716 11.557-4.0661 2.6962-8.1322 5.3923-12.565 8.0995z"/><path fill="#567FBD" d="m313.28 271.81c1.0653-3.7114 2.7041-7.4879 3.7612-11.421 2.1076-7.8411 1.0103-15.319-3.2465-22.321-0.55975-0.92059-0.543-2.1917-0.78378-3.6938 9.5742 6.8438 11.867 27.17 0.2691 37.435z"/><path fill="#ACFDFD" d="m127.15 310.61c2.2993 1.107 3.7392 2.8131 1.3153 4.0857-1.9445 1.0209-4.7997 0.98142-7.0564 0.50052-1.5465-0.32956-2.7595-2.2242-4.6614-3.8928 2.7611-2.5398 6.2818-2.4673 10.402-0.69348z"/><path fill="#ACFDFD" d="m109.57 316.29c1.1267-0.3439 2.0915-0.39517 3.0563-0.44644-0.26557 0.83679-0.53114 1.6736-0.79669 2.5103-0.80718-0.59042-1.6144-1.1809-2.2596-2.0639z"/><path fill="#ACFDFD" d="m119.64 298c-0.40568 0.86346-1.1681 1.7283-1.9306 2.5931-0.4151-0.45465-0.8302-0.90927-1.2453-1.3639 0.93971-0.40927 1.8794-0.81854 3.1759-1.2292z"/><path fill="#ACFDFD" d="m119.04 317.46c0.21547 0.35574 0.21281 0.70877 0.18478 1.0598-7.78e-4 0.009674-0.40177 0.003662-0.40221-0.00531-0.016914-0.35175-0.008919-0.70468 0.21743-1.0544z"/></svg>