<?xml version="1.0" standalone="yes"?>
<svg xmlns="http://www.w3.org/2000/svg" width="500" height="500">
<path style="fill:#010101; stroke:none;" d="M0 0L0 500L500 500L500 0L0 0z"/>
<path style="fill:#affdfd; stroke:none;" d="M135 120L136 120C138.722 92.8391 164.045 64.1367 185 48.8488C191.765 43.9136 198.862 38.349 207 36L207 37C192.772 41.7191 169.796 65.5254 172 82L169 87L169 88L170 109C172.607 110.564 172.35 111.587 170 111L171 121L175 121L172 125L172 126C174.513 128.513 178.317 135.079 174 134L177 143L174 143L173 154L176 157L173 158L175 163L174 163L174 161L173 161L174 169L172 169L172 170L174 170L174 171C171.604 172.302 170.963 180.598 173 182L173 183L171 184L172 202L172 203C169.789 203.26 168.236 203.937 171 205L171 206L168 214L167 214L167 210L166 210L166 214C162.992 214.453 163.934 216.647 165 219L159 220L159 221L162 220L156 231L153 230L153 231L150 235C149.671 237.974 148.93 238.519 146 239L145 242L142 242L145 243L145 244L140 248L137 247L111 279L112 281L106 284C105.923 287.032 105.104 288.581 102 289L103 293L97 298L99 297L99 298L94 302L94 306L92 305L91 310L91 311L88 312L78 328C78.4344 331.041 78.6126 334.497 75 335L72 344L73 348L68 352L72 350L73 354L75 353L75 357L84 357L90 353L91 353L91 356L92 356L93 352L96 354L96 351L99 354L98 350L105 350L105 349L102 349L107 347L108 344L112 345C112 340.786 123.415 339.867 127 340L126 336L132 337L133 337L135 334L133 334L135 331L133 332L133 331L136 332L139 334L140 334L141 330L146 327L149 328L149 325L153 325L153 326L150 329C153.298 328.745 155.066 328.515 155 325C159.003 325.833 160.671 325.408 163 322L164 328L169 326L170 331L172 332L176 335L178 333L176 337L180 335L178 339L178 343L179 343L180 340L181 340L181 343L185 342L186 347L180 350L186 348L183 351L183 352L187 353L189 350L187 359L191 360L188 363L188 364L191 367L188 368L187 373L193 378L193 379L191 379L191 380L194 381C192.604 381.698 192.604 381.302 194 382L191 384C196.08 388.953 192.58 393.289 188 397L192 396L191 402L195 414L198 419L201 418L206 422L212 421L210 415L219 417L218 414L222 412L226 417L224 413L229 412L238 412L237 409L240 412L241 412L238 408L241 407L244 413L245 413L245 409L252 409L252 408L250 408L250 407L256 406L254 411L256 408L258 410L264 409L264 410L261 409L261 410L265 409L270 413L275 411C275.709 414.546 283.377 416.113 284 413L285 413L285 416L286 416L286 414L287 414L287 417L288 417L292 417L297 413L302 416L304 408L308 409C307.017 406.05 306.513 405.378 309 406C308.512 402.756 308.189 399.581 312 399L310 393L314 392L313 395L316 391C312.722 391 314.846 387.154 316 389L317 389L315 385L318 380L322 379L322 371L318 364L322 363C320.629 358.333 321.532 356.683 326 355L326 354L323 354L325 351L320 352L320 351L323 350L322 347L325 348L323 343L324 343L328 349L325 343L326 338L327 338L328 340L332 339L333 336L331 337L331 336L335 334L335 331L329 335L332 326L332 325L336 324L336 323L331 321L332 325L331 325L330 320L336 318L336 317L333 316L333 315L340 314L339 317L340 317L341 313L337 313L338 309L337 307L334 306L339 302L339 299L338 299L334 297L337 295L342 296L343 292L342 292L338 294L344 288L343 287L339 290L338 282L341 283L343 275L346 276L345 270L348 271L348 270L346 267L345 267L344 274L343 274L341 259L342 256L346 257L347 252L349 250L350 243L349 243L346 245L346 241L351 242L351 241L347 238L350 237L352 233L350 228L354 229L354 228L352 225L350 214L354 215L354 207C351.328 207 351.611 205.852 353 204C344.942 200.181 337.138 198.602 332.417 190C327.277 180.635 329.219 170.093 329.91 160C331.144 141.984 327.603 116.69 354 120L356 117L353 114L356 113L357 113L359 108L359 100L357 100L357 90L354 81L349 73L334.486 55.2894L323 45C332.973 49.9669 340.798 57.8526 348.17 66C378.569 99.5987 385 136.172 385 180C387.189 174.783 386 167.619 386 162C386 144.875 384.507 128.17 378.424 112C353.475 45.6865 277.51 1.4491 209 32.3117C193.9 39.114 179.582 49.1613 168.015 61C154.075 75.2673 135.955 99.1475 135 120z"/>
<path style="fill:#9dfcfd; stroke:none;" d="M323 45L333.675 55.2894L349 73L354 81C353.211 84.795 353.696 87.7362 357 90L357 100L359 100L359 108L357 113L356 113L355 111L353 114L356 117L351 119L351 120C356.302 123.37 361.24 127.287 364.164 133C370.31 145.006 368.275 167.816 366.715 181C366.164 185.654 366.083 190.989 363.297 194.957C360.06 199.566 355.109 200.663 350 202L350 203L353 204C351.553 206.009 351.359 207.062 354 207L354 215L350 214L352 225C349.921 226.564 352.062 227.264 354 228L354 229L350 228L352 233L347 238L351 241L351 242L346 241L346 245L349 243L350 243L349 250L347 252C343.622 252.739 344.551 254.341 346 257L341 259L343 274L344 274L345 267L346 267L348 270L348 271L345 270L346 276L343 275L341 283L338 282L339 290L343 287L344 288L338 294L342 292L343 292L342 296L337 295L334 297L335 300L339 299L339 302L338 302L334 306L337 307L336 309L338 309L337 313L341 313L340 317L339 317L340 314L333 315L333 316L336 317L336 318L330 320L331 325L332 325L331 321L336 323L336 324L332 325L332 326L334 327L329 335L331 332L335 331L335 334L331 337L333 336L332 339L330 337L327 338L326 338L325 343L328 349L324 343L323 343L325 348L322 347L323 350L320 351L320 352L325 351L323 354L326 354L326 355C320.986 356.072 319.899 358.338 322 363L318 364L322 371L322 379L318 380L315 385L317 389L316 389L315 387C314.209 389.237 313.374 391 316 391L313 395L314 392L310 393L312 399C308.053 399.72 308.055 402.49 309 406C306.706 405.969 307.284 406.832 308 409L304 408L302 416L297 413L292 417L288 417L287 417L287 414L286 414L286 416L285 416L285 413L284 413C281.35 415.46 277.313 413.11 275 411L270 413L265 409L261 410L261 409L264 410L264 409L258 410L256 408L254 411L256 406L250 407L250 408L252 408L252 409L245 409L245 413L244 413C243.394 409.517 241.557 407.854 238 408L241 412L240 412L237 409L238 412L229 412L224 413L226 417L222 412L218 414L219 417L210 415L212 421L206 422L205 419L201 418L198 419L195 414C196.83 408.756 194.257 406.062 191 402L192 396L188 397C192.84 394.114 197.019 387.98 191 384L194 383L191 380L191 379L193 379L193 378L187 373L191 367L188 364L188 363L191 360L187 359L189 350L187 353L183 352L183 351L186 348L180 350L186 347L185 342L181 340L180 340L179 343L178 343L178 339L180 335L176 337L178 333L176 335L172 332C175.115 330.646 171.587 330.485 170 331L169 326L164 328L163 322L155 325L156 328L150 329L153 326L153 325L149 325L148 326L149 328L146 327L141 330L140 334L139 334L139 331L136 332C134.873 329.994 134.127 329.994 133 332L135 331L133 334L135 334L133 337L132 337L126 336L127 340C122.854 339.623 112.542 340.138 112 345L108 344L107 347L102 349L105 349L105 350L98 350L99 354L96 351L96 354L93 352L92 356L91 356L91 353L90 353L84 357L75 357L75 353L73 354L72 350L68 352L73 348L72 344L75 335C78.6849 334.557 78.8999 331.261 78 328L91 311L91 310L89 309L92 305L94 306L94 302L99 297L97 298L97 297L103 293L102 289C105.477 288.825 106.127 287.377 106 284L112 281L111 279C119.509 273.387 132.594 256.327 137 247L140 248L145 244L145 243L142 242L145 242L146 239C149.236 239.069 149.866 238.221 150 235C152.281 234.329 155.074 233.366 153 231L153 230L156 231L162 220L159 221L159 220L165 219C163.634 216.268 162.774 213.194 166 214L166 210L167 210L167 214L168 214L171 206L171 205L172 203L172 202C169.829 197.989 170.923 186.986 173 183L173 182L174 171L174 170L172 170L172 169L174 169L172 168L173 161L174 161L174 163L175 163L173 158L176 157L173 154L174 143L177 143L174 134C178.506 133.264 174.052 127.523 172 126L172 125L175 121L171 121L170 111L172 111L170 109C171.051 103.604 172.692 92.3485 169 88L169 87L172 82C173.114 63.6292 191.389 44.7748 207 37C202.083 35.6518 196.998 40.0415 193 42.5872C181.204 50.0977 170.359 59.2078 161.424 70.0038C145.419 89.3429 134.677 112.934 132.171 138C128.955 170.155 134.757 207.312 123.086 238C117.064 253.831 104.696 266.837 94.4244 280C77.9991 301.049 61.5367 322.305 50.8503 347C47.0492 355.784 33.5139 381.792 45.1088 389.058C50.6199 392.511 59.4069 389.28 65 387.495C79.0043 383.026 108.641 366.874 120.895 379.105C130.429 388.621 129.087 402.209 133.104 414C137.9 428.077 158.536 450.154 173 454.073C198.839 461.072 213.797 430.434 236 423.913C264.05 415.674 278.799 444.056 305 441.907C326.361 440.154 335.385 412.873 356 407.9C371.424 404.179 382.046 417.699 394 424.532C398.664 427.199 407.064 430.305 410.91 424.772C415.777 417.771 413.206 406.791 413.015 399C412.439 375.496 410.029 353.233 406.424 330C402.31 303.48 390.554 278.612 387.286 252C380.432 196.191 394.684 140.642 366.306 89C357.501 72.977 341.103 51.0045 323 45M317 40L323 45L317 40M333 55L334 56L333 55z"/>
<path style="fill:#affdfd; stroke:none;" d="M168 100L169 101L168 100z"/>
<path style="fill:#9dfcfd; stroke:none;" d="M356 101L357 102L356 101M356 104L357 105L356 104M239 106L239 107L246 107L239 106M235 107L236 108L235 107z"/>
<path style="fill:#6498d4; stroke:none;" d="M236.667 107.333L237.333 107.667L236.667 107.333z"/>
<path style="fill:#466f98; stroke:none;" d="M238 107.468C230.902 108.804 223.752 113.339 220.573 120C216.916 127.659 218 138.72 218 147C218 168.258 216.802 198.886 248 193.674C255.376 192.442 261.854 187.816 265.08 181C267.799 175.256 266.589 169.099 267.17 163C269.168 142.005 271.415 101.176 238 107.468z"/>
<path style="fill:#6498d4; stroke:none;" d="M247.667 107.333L248.333 107.667L247.667 107.333z"/>
<path style="fill:#9dfcfd; stroke:none;" d="M249 107L250 108L249 107M354 107L355 108L354 107M232 108L233 109L232 108z"/>
<path style="fill:#6498d4; stroke:none;" d="M233 108L234 109L233 108M251 108L252 109L251 108z"/>
<path style="fill:#9dfcfd; stroke:none;" d="M252 108L253 109L252 108M230 109L231 110L230 109z"/>
<path style="fill:#6498d4; stroke:none;" d="M231 109L232 110L231 109M253 109L254 110L253 109z"/>
<path style="fill:#9dfcfd; stroke:none;" d="M254 109L255 110L254 109z"/>
<path style="fill:#affdfd; stroke:none;" d="M358.333 109.667L358.667 110.333L358.333 109.667z"/>
<path style="fill:#9dfcfd; stroke:none;" d="M228 110L229 111L228 110z"/>
<path style="fill:#6498d4; stroke:none;" d="M229 110L230 111L229 110M255 110L256 111L255 110z"/>
<path style="fill:#9dfcfd; stroke:none;" d="M256 110L257 111L256 110M227 111L228 112L227 111z"/>
<path style="fill:#6498d4; stroke:none;" d="M257 111L258 112L257 111M226 112L227 113L226 112M258 112L259 113L258 112z"/>
<path style="fill:#9dfcfd; stroke:none;" d="M259 112L260 113L259 112M173 113L174 114L173 113z"/>
<path style="fill:#6498d4; stroke:none;" d="M225 113L226 114L225 113z"/>
<path style="fill:#9dfcfd; stroke:none;" d="M260 113L261 114L260 113M223 114L224 115L223 114z"/>
<path style="fill:#6498d4; stroke:none;" d="M224 114L225 115L224 114z"/>
<path style="fill:#9dfcfd; stroke:none;" d="M261 114L262 115L261 114z"/>
<path style="fill:#6498d4; stroke:none;" d="M223 115L224 116L223 115z"/>
<path style="fill:#9dfcfd; stroke:none;" d="M262 115L263 116L262 115z"/>
<path style="fill:#6498d4; stroke:none;" d="M222 116L223 117L222 116M262 116L263 117L262 116M221 117L222 118L221 117M263 117L264 118L263 117z"/>
<path style="fill:#9dfcfd; stroke:none;" d="M220 118L221 119L220 118M264 118L265 119L264 118z"/>
<path style="fill:#6498d4; stroke:none;" d="M220 119L221 120L220 119z"/>
<path style="fill:#9dfcfd; stroke:none;" d="M265 119L266 120L265 119M344 119L344 120L350 120L344 119z"/>
<path style="fill:#6498d4; stroke:none;" d="M265 120L266 121L265 120z"/>
<path style="fill:#9dfcfd; stroke:none;" d="M341 120L342 121L341 120z"/>
<path style="fill:#6498d4; stroke:none;" d="M342.667 120.333L343.333 120.667L342.667 120.333z"/>
<path style="fill:#466f98; stroke:none;" d="M344 120.548C336.838 122.101 332.21 129.067 331.21 136C330.415 141.509 331.002 147.442 331 153C330.994 169.146 325.503 206.121 354 200.66C361.162 199.287 364.926 193.048 365.699 186.17C367.358 171.415 369.472 146.921 363.856 133C360.974 125.857 352.074 118.797 344 120.548z"/>
<path style="fill:#6498d4; stroke:none;" d="M349 120L349 121L352 121L349 120z"/>
<path style="fill:#affdfd; stroke:none;" d="M134 121L134 125L135 125L134 121z"/>
<path style="fill:#6498d4; stroke:none;" d="M219.333 121.667L219.667 122.333L219.333 121.667z"/>
<path style="fill:#9dfcfd; stroke:none;" d="M266 121L267 122L266 121M339 121L340 122L339 121z"/>
<path style="fill:#6498d4; stroke:none;" d="M340 121L341 122L340 121M352.667 121.333L353.333 121.667L352.667 121.333M266 122L267 123L266 122z"/>
<path style="fill:#9dfcfd; stroke:none;" d="M338 122L339 123L338 122z"/>
<path style="fill:#6498d4; stroke:none;" d="M354.667 122.333L355.333 122.667L354.667 122.333z"/>
<path style="fill:#9dfcfd; stroke:none;" d="M175 123L176 124L175 123M218.333 123.667L218.667 124.333L218.333 123.667M267 123L268 124L267 123M336 123L335 125L336 123z"/>
<path style="fill:#6498d4; stroke:none;" d="M337 123L338 124L337 123M356 123L357 124L356 123M267.333 124.667L267.667 125.333L267.333 124.667M336 124L337 125L336 124M357 124L358 125L357 124z"/>
<path style="fill:#affdfd; stroke:none;" d="M133 125L133 131L134 131L133 125z"/>
<path style="fill:#6498d4; stroke:none;" d="M218 125L218 132L219 132L218 125M335 125L336 126L335 125M358 125L359 126L358 125z"/>
<path style="fill:#9dfcfd; stroke:none;" d="M268 126L268 152L269 152L268 126z"/>
<path style="fill:#6498d4; stroke:none;" d="M334 126L335 127L334 126M359 126L360 127L359 126z"/>
<path style="fill:#9dfcfd; stroke:none;" d="M333 127L334 128L333 127z"/>
<path style="fill:#6498d4; stroke:none;" d="M360 127L361 128L360 127M333 128L334 129L333 128M361 128L362 129L361 128z"/>
<path style="fill:#9dfcfd; stroke:none;" d="M332 129L333 130L332 129z"/>
<path style="fill:#6498d4; stroke:none;" d="M362 129L363 130L362 129M332 130L331 134L332 134L332 130z"/>
<path style="fill:#affdfd; stroke:none;" d="M132 131L132 136L133 136L132 131z"/>
<path style="fill:#9dfcfd; stroke:none;" d="M331 131L332 132L331 131z"/>
<path style="fill:#6498d4; stroke:none;" d="M363 131L364 132L363 131M364.333 133.667L364.667 134.333L364.333 133.667z"/>
<path style="fill:#9dfcfd; stroke:none;" d="M330 134L330 143L331 143L330 134M176 135L177 136L176 135z"/>
<path style="fill:#6498d4; stroke:none;" d="M365 135L366 183L367 183C367 169.648 371.336 146.917 365 135z"/>
<path style="fill:#affdfd; stroke:none;" d="M131 136L131 150L132 150L131 136z"/>
<path style="fill:#9dfcfd; stroke:none;" d="M176.333 139.667L176.667 140.333L176.333 139.667z"/>
<path style="fill:#6498d4; stroke:none;" d="M330 143L330 163L331 163L330 143z"/>
<path style="fill:#9dfcfd; stroke:none;" d="M217 145L217 160L218 160L217 145z"/>
<path style="fill:#affdfd; stroke:none;" d="M130 152L129 194L130 194C130 181.848 134.717 163.242 130 152M173 155L174 156L173 155z"/>
<path style="fill:#6498d4; stroke:none;" d="M217 160L217 173L218 173L217 160M267 160L267 172L268 172L267 160z"/>
<path style="fill:#9dfcfd; stroke:none;" d="M175 163L176 164L175 163M329 163L329 176L330 176L329 163M174 169L175 170L174 169M267 172L267 177L268 177L267 172M217 173L217 176L218 176L217 173z"/>
<path style="fill:#6498d4; stroke:none;" d="M329 176L329 179L330 179L329 176M218.333 177.667L218.667 178.333L218.333 177.667M266.333 177.667L266.667 178.333L266.333 177.667z"/>
<path style="fill:#9dfcfd; stroke:none;" d="M218 179L219 180L218 179M266 179L267 180L266 179M329 179L329 183L330 183L329 179M173.333 180.667L173.667 181.333L173.333 180.667z"/>
<path style="fill:#6498d4; stroke:none;" d="M219 180L220 181L219 180M265 180L266 181L265 180z"/>
<path style="fill:#9dfcfd; stroke:none;" d="M219 181L220 182L219 181M265 181L266 182L265 181z"/>
<path style="fill:#6498d4; stroke:none;" d="M220 182L221 183L220 182M264 182L265 183L264 182M330.333 183.667L330.667 184.333L330.333 183.667z"/>
<path style="fill:#9dfcfd; stroke:none;" d="M221 184L222 185L221 184M263 184L264 185L263 184z"/>
<path style="fill:#6498d4; stroke:none;" d="M365 184L366 185L365 184M222 185L223 186L222 185M262 185L263 186L262 185z"/>
<path style="fill:#9dfcfd; stroke:none;" d="M330 185L331 186L330 185z"/>
<path style="fill:#affdfd; stroke:none;" d="M386 185L386 230L387 230C387 217.258 390.91 196.701 386 185z"/>
<path style="fill:#9dfcfd; stroke:none;" d="M223 186L224 187L223 186z"/>
<path style="fill:#6498d4; stroke:none;" d="M261 186L262 187L261 186M331.333 186.667L331.667 187.333L331.333 186.667z"/>
<path style="fill:#9dfcfd; stroke:none;" d="M224 187L225 188L224 187z"/>
<path style="fill:#6498d4; stroke:none;" d="M260 187L261 188L260 187z"/>
<path style="fill:#9dfcfd; stroke:none;" d="M225 188L226 189L225 188z"/>
<path style="fill:#6498d4; stroke:none;" d="M259 188L260 189L259 188z"/>
<path style="fill:#9dfcfd; stroke:none;" d="M331 188L332 189L331 188z"/>
<path style="fill:#6498d4; stroke:none;" d="M365 188L365 191L366 191L365 188z"/>
<path style="fill:#9dfcfd; stroke:none;" d="M226 189L227 190L226 189z"/>
<path style="fill:#6498d4; stroke:none;" d="M227 189L228 190L227 189M258 189L259 190L258 189M332 189L333 190L332 189M228 190L229 191L228 190M257 190L258 191L257 190z"/>
<path style="fill:#9dfcfd; stroke:none;" d="M332 190L333 191L332 190M229 191L230 192L229 191z"/>
<path style="fill:#6498d4; stroke:none;" d="M230 191L231 192L230 191M255 191L256 192L255 191z"/>
<path style="fill:#9dfcfd; stroke:none;" d="M256 191L257 192L256 191z"/>
<path style="fill:#6498d4; stroke:none;" d="M333 191L335 193L333 191M364 191L363 196L364 196L364 191z"/>
<path style="fill:#9dfcfd; stroke:none;" d="M172.667 192.333L173.333 192.667L172.667 192.333M231 192L232 193L231 192z"/>
<path style="fill:#6498d4; stroke:none;" d="M232.667 192.333L233.333 192.667L232.667 192.333M252 192L253 193L252 192z"/>
<path style="fill:#9dfcfd; stroke:none;" d="M253 192L254 193L253 192M333 192L334 193L333 192M234 193L235 194L234 193z"/>
<path style="fill:#6498d4; stroke:none;" d="M235 193L236 194L235 193M249 193L250 194L249 193z"/>
<path style="fill:#9dfcfd; stroke:none;" d="M250.667 193.333L251.333 193.667L250.667 193.333M334 193L335 194L334 193M237 194L237 195L240 195L237 194z"/>
<path style="fill:#6498d4; stroke:none;" d="M240 194L240 195L245 195L240 194z"/>
<path style="fill:#9dfcfd; stroke:none;" d="M245 194L245 195L248 195L245 194M335 194L336 195L335 194z"/>
<path style="fill:#affdfd; stroke:none;" d="M128 195L128 207L129 207L128 195z"/>
<path style="fill:#9dfcfd; stroke:none;" d="M336 195L337 196L336 195z"/>
<path style="fill:#6498d4; stroke:none;" d="M337 196L338 197L337 196M362 196L363 197L362 196z"/>
<path style="fill:#9dfcfd; stroke:none;" d="M338 197L340 199L338 197z"/>
<path style="fill:#6498d4; stroke:none;" d="M339 197L340 198L339 197M361 197L362 198L361 197M340 198L341 199L340 198M359.667 198.333L360.333 198.667L359.667 198.333z"/>
<path style="fill:#affdfd; stroke:none;" d="M168 199L169 200L168 199z"/>
<path style="fill:#9dfcfd; stroke:none;" d="M341 199L342 200L341 199z"/>
<path style="fill:#6498d4; stroke:none;" d="M342 199L343 200L342 199M358 199L359 200L358 199z"/>
<path style="fill:#9dfcfd; stroke:none;" d="M343 200L344 201L343 200z"/>
<path style="fill:#6498d4; stroke:none;" d="M344.667 200.333L345.333 200.667L344.667 200.333M355.667 200.333L356.333 200.667L355.667 200.333z"/>
<path style="fill:#affdfd; stroke:none;" d="M168 201L169 202L168 201z"/>
<path style="fill:#9dfcfd; stroke:none;" d="M346 201L346 202L349 203L346 201z"/>
<path style="fill:#6498d4; stroke:none;" d="M349 201L349 202L352 202L349 201z"/>
<path style="fill:#affdfd; stroke:none;" d="M127 208L127 220L128 220L127 208z"/>
<path style="fill:#9dfcfd; stroke:none;" d="M348 209L353 211L353 210L348 209M352 213L353 214L352 213M166 214L167 215L166 214M346 219L347 220L346 219M293 220L293 221L297 221L293 220z"/>
<path style="fill:#affdfd; stroke:none;" d="M351.333 220.667L351.667 221.333L351.333 220.667M126 221L126 227L127 227L126 221z"/>
<path style="fill:#9dfcfd; stroke:none;" d="M163 221L164 222L163 221M286.667 221.333L287.333 221.667L286.667 221.333z"/>
<path style="fill:#6498d4; stroke:none;" d="M288 221L288 222C321.198 222.275 329.322 265.914 299 279C314.481 284.489 324.252 260.465 323.985 249C323.505 228.384 305.917 221 288 221z"/>
<path style="fill:#9dfcfd; stroke:none;" d="M300 221L300 222L303 222L300 221M345 221L346 222L345 221z"/>
<path style="fill:#6498d4; stroke:none;" d="M284.667 222.333L285.333 222.667L284.667 222.333z"/>
<path style="fill:#466f98; stroke:none;" d="M286 222.533C253.42 230.438 264.826 286.822 298 279.61C332.58 272.092 319.556 214.392 286 222.533z"/>
<path style="fill:#9dfcfd; stroke:none;" d="M304 222L305 223L304 222M160 223L159 225L160 223z"/>
<path style="fill:#6498d4; stroke:none;" d="M282 223L283 224L282 223z"/>
<path style="fill:#9dfcfd; stroke:none;" d="M306.667 223.333L307.333 223.667L306.667 223.333M347 223L350 225L350 224L347 223M280 224L281 225L280 224M309 224L310 225L309 224M278 225L276 228L278 225z"/>
<path style="fill:#6498d4; stroke:none;" d="M279 225L280 226L279 225z"/>
<path style="fill:#9dfcfd; stroke:none;" d="M310 225L311 226L310 225z"/>
<path style="fill:#6498d4; stroke:none;" d="M278 226L279 227L278 226z"/>
<path style="fill:#9dfcfd; stroke:none;" d="M312 226L313 227L312 226z"/>
<path style="fill:#affdfd; stroke:none;" d="M125 227L125 231L126 231L125 227z"/>
<path style="fill:#6498d4; stroke:none;" d="M277 227L278 228L277 227z"/>
<path style="fill:#9dfcfd; stroke:none;" d="M313 227L314 228L313 227z"/>
<path style="fill:#6498d4; stroke:none;" d="M275 228L276 229L275 228M274 229L275 230L274 229M273 230L274 231L273 230z"/>
<path style="fill:#9dfcfd; stroke:none;" d="M348 230L347 232L349 232L348 230z"/>
<path style="fill:#affdfd; stroke:none;" d="M124 231L124 234L125 234L124 231z"/>
<path style="fill:#6498d4; stroke:none;" d="M272 231L273 232L272 231z"/>
<path style="fill:#9dfcfd; stroke:none;" d="M271 232L270 234L271 232M318 232L319 233L318 232z"/>
<path style="fill:#6498d4; stroke:none;" d="M271 233L272 234L271 233z"/>
<path style="fill:#9dfcfd; stroke:none;" d="M319 233L320 234L319 233M348.667 233.333L349.333 233.667L348.667 233.333z"/>
<path style="fill:#affdfd; stroke:none;" d="M123 234L123 238L124 238L123 234z"/>
<path style="fill:#6498d4; stroke:none;" d="M270 234L271 235L270 234z"/>
<path style="fill:#9dfcfd; stroke:none;" d="M320.333 234.667L320.667 235.333L320.333 234.667M269 235L270 236L269 235z"/>
<path style="fill:#affdfd; stroke:none;" d="M351 235L352 236L351 235M387 235L387 254L388 254L387 235z"/>
<path style="fill:#6498d4; stroke:none;" d="M269 236L270 237L269 236z"/>
<path style="fill:#9dfcfd; stroke:none;" d="M321 236L322 237L321 236M346 236L347 237L346 236M268 237L269 238L268 237z"/>
<path style="fill:#affdfd; stroke:none;" d="M351.333 237.667L351.667 238.333L351.333 237.667M122.333 238.667L122.667 239.333L122.333 238.667z"/>
<path style="fill:#6498d4; stroke:none;" d="M268 238L269 239L268 238z"/>
<path style="fill:#9dfcfd; stroke:none;" d="M322.333 238.667L322.667 239.333L322.333 238.667M267 239L268 240L267 239z"/>
<path style="fill:#affdfd; stroke:none;" d="M121.333 240.667L121.667 241.333L121.333 240.667z"/>
<path style="fill:#9dfcfd; stroke:none;" d="M146 240L147 241L146 240z"/>
<path style="fill:#6498d4; stroke:none;" d="M267 240L268 241L267 240z"/>
<path style="fill:#9dfcfd; stroke:none;" d="M266.333 241.667L266.667 242.333L266.333 241.667M323 241L323 244L324 244L323 241z"/>
<path style="fill:#affdfd; stroke:none;" d="M120 242L118 248L119 248L120 242z"/>
<path style="fill:#6498d4; stroke:none;" d="M266 243L266 246L267 246L266 243z"/>
<path style="fill:#9dfcfd; stroke:none;" d="M345 243L346 244L345 243M345 245L346 246L345 245M324 246L324 254L325 254L324 246M265 247L265 253L266 253L265 247z"/>
<path style="fill:#affdfd; stroke:none;" d="M350 247L351 248L350 247M117 248L118 249L117 248M116 249L115 252L116 249z"/>
<path style="fill:#9dfcfd; stroke:none;" d="M137 249L138 250L137 249M343 249L344 250L343 249z"/>
<path style="fill:#affdfd; stroke:none;" d="M114.333 252.667L114.667 253.333L114.333 252.667z"/>
<path style="fill:#9dfcfd; stroke:none;" d="M342 252L343 253L342 252z"/>
<path style="fill:#affdfd; stroke:none;" d="M113.333 254.667L113.667 255.333L113.333 254.667z"/>
<path style="fill:#6498d4; stroke:none;" d="M266 254L266 258L267 258L266 254z"/>
<path style="fill:#9dfcfd; stroke:none;" d="M341 254L342 255L341 254z"/>
<path style="fill:#affdfd; stroke:none;" d="M388 255L388 260L389 260L388 255M112 256L111 259L112 256z"/>
<path style="fill:#9dfcfd; stroke:none;" d="M324 256L325 257L324 256M323 257L323 260L324 260L323 257M266 258L267 259L266 258M337 258L336 260L337 258z"/>
<path style="fill:#affdfd; stroke:none;" d="M110 259L111 260L110 259z"/>
<path style="fill:#9dfcfd; stroke:none;" d="M340 259L341 260L340 259z"/>
<path style="fill:#affdfd; stroke:none;" d="M109 260L110 261L109 260z"/>
<path style="fill:#6498d4; stroke:none;" d="M267 260L268 261L267 260z"/>
<path style="fill:#affdfd; stroke:none;" d="M348 260L349 261L348 260M389 260L389 265L390 265L389 260M108 261L107 264L108 261z"/>
<path style="fill:#9dfcfd; stroke:none;" d="M267 261L268 262L267 261M322 261L322 264L323 264L322 261M338 261L339 262L338 261z"/>
<path style="fill:#6498d4; stroke:none;" d="M268 262L269 263L268 262z"/>
<path style="fill:#9dfcfd; stroke:none;" d="M341 262L342 263L341 262M268 263L269 264L268 263z"/>
<path style="fill:#affdfd; stroke:none;" d="M347 263L348 264L347 263M106 264L107 265L106 264z"/>
<path style="fill:#9dfcfd; stroke:none;" d="M321.333 264.667L321.667 265.333L321.333 264.667z"/>
<path style="fill:#affdfd; stroke:none;" d="M344 264L344 266L346 266L346 264L344 264M105 265L104 268L105 265z"/>
<path style="fill:#6498d4; stroke:none;" d="M269 265L270 266L269 265z"/>
<path style="fill:#affdfd; stroke:none;" d="M348 265L347 267L348 265M390 265L390 269L391 269L390 265z"/>
<path style="fill:#6498d4; stroke:none;" d="M270 266L271 267L270 266z"/>
<path style="fill:#9dfcfd; stroke:none;" d="M320 266L321 267L320 266M339 266L340 267L339 266M270 267L271 268L270 267z"/>
<path style="fill:#affdfd; stroke:none;" d="M103 268L104 269L103 268z"/>
<path style="fill:#6498d4; stroke:none;" d="M271 268L272 269L271 268z"/>
<path style="fill:#9dfcfd; stroke:none;" d="M319 268L320 269L319 268M338 268L339 269L338 268z"/>
<path style="fill:#affdfd; stroke:none;" d="M102 269L103 270L102 269z"/>
<path style="fill:#6498d4; stroke:none;" d="M272 269L273 270L272 269z"/>
<path style="fill:#9dfcfd; stroke:none;" d="M318 269L319 270L318 269z"/>
<path style="fill:#affdfd; stroke:none;" d="M391 269L391 273L392 273L391 269M101 270L100 273L101 270z"/>
<path style="fill:#9dfcfd; stroke:none;" d="M120 270L121 271L120 270z"/>
<path style="fill:#6498d4; stroke:none;" d="M273 270L277 274L273 270z"/>
<path style="fill:#9dfcfd; stroke:none;" d="M317 270L318 271L317 270M273 271L274 272L273 271M316 271L317 272L316 271M118 272L119 273L118 272M274 272L275 273L274 272M315 272L316 273L315 272M340 272L339 276L343 275L340 272z"/>
<path style="fill:#affdfd; stroke:none;" d="M99 273L100 274L99 273z"/>
<path style="fill:#9dfcfd; stroke:none;" d="M275 273L276 274L275 273M314 273L315 274L314 273z"/>
<path style="fill:#affdfd; stroke:none;" d="M392 273L392 277L393 277L392 273M98 274L99 275L98 274z"/>
<path style="fill:#6498d4; stroke:none;" d="M277 274L278 275L277 274z"/>
<path style="fill:#affdfd; stroke:none;" d="M97 275L96 278L97 275z"/>
<path style="fill:#9dfcfd; stroke:none;" d="M278 275L279 276L278 275M311 275L312 276L311 275z"/>
<path style="fill:#affdfd; stroke:none;" d="M347 275L348 276L347 275z"/>
<path style="fill:#9dfcfd; stroke:none;" d="M279 276L280 277L279 276z"/>
<path style="fill:#6498d4; stroke:none;" d="M280 276L281 277L280 276z"/>
<path style="fill:#9dfcfd; stroke:none;" d="M310 276L311 277L310 276z"/>
<path style="fill:#6498d4; stroke:none;" d="M281 277L282 278L281 277z"/>
<path style="fill:#9dfcfd; stroke:none;" d="M308 277L309 278L308 277z"/>
<path style="fill:#affdfd; stroke:none;" d="M344 277L345 278L344 277M393 277L393 280L394 280L393 277M95 278L96 279L95 278z"/>
<path style="fill:#9dfcfd; stroke:none;" d="M282 278L283 279L282 278z"/>
<path style="fill:#6498d4; stroke:none;" d="M283 278L284 279L283 278z"/>
<path style="fill:#9dfcfd; stroke:none;" d="M306 278L307 279L306 278M340.333 278.667L340.667 279.333L340.333 278.667z"/>
<path style="fill:#affdfd; stroke:none;" d="M94 279L95 280L94 279z"/>
<path style="fill:#9dfcfd; stroke:none;" d="M285 279L286 280L285 279z"/>
<path style="fill:#6498d4; stroke:none;" d="M286.667 279.333L287.333 279.667L286.667 279.333z"/>
<path style="fill:#9dfcfd; stroke:none;" d="M303 279L304 280L303 279z"/>
<path style="fill:#affdfd; stroke:none;" d="M346 279L347 280L346 279M93 280L92 283L93 280z"/>
<path style="fill:#9dfcfd; stroke:none;" d="M288 280L288 281L292 281L288 280z"/>
<path style="fill:#6498d4; stroke:none;" d="M292 280L292 281L297 281L292 280z"/>
<path style="fill:#9dfcfd; stroke:none;" d="M297 280L297 281L302 281L297 280z"/>
<path style="fill:#affdfd; stroke:none;" d="M394 280L394 283L395 283L394 280z"/>
<path style="fill:#9dfcfd; stroke:none;" d="M340 281L341 282L340 281z"/>
<path style="fill:#affdfd; stroke:none;" d="M91 283L92 284L91 283M395 283L395 286L396 286L395 283M90 284L88 288L90 284z"/>
<path style="fill:#9dfcfd; stroke:none;" d="M337.333 285.667L337.667 286.333L337.333 285.667M339 285L340 286L339 285z"/>
<path style="fill:#affdfd; stroke:none;" d="M396 287L396 290L397 290L396 287M87 288L88 289L87 288M86 289L84 293L86 289z"/>
<path style="fill:#9dfcfd; stroke:none;" d="M336 292L340 291L336 292z"/>
<path style="fill:#affdfd; stroke:none;" d="M397 290L397 293L398 293L397 290z"/>
<path style="fill:#9dfcfd; stroke:none;" d="M104 292L105 293L104 292z"/>
<path style="fill:#affdfd; stroke:none;" d="M83 293L84 294L83 293z"/>
<path style="fill:#9dfcfd; stroke:none;" d="M101 293L102 294L101 293z"/>
<path style="fill:#affdfd; stroke:none;" d="M398 293L398 296L399 296L398 293M82 294L80 298L82 294M399 296L399 300L400 300L399 296M79 298L78 301L79 298z"/>
<path style="fill:#9dfcfd; stroke:none;" d="M331 299L332 300L331 299M333 299L334 300L333 299z"/>
<path style="fill:#affdfd; stroke:none;" d="M342 299L343 300L342 299M400 300L400 303L401 303L400 300M77 301L78 302L77 301z"/>
<path style="fill:#9dfcfd; stroke:none;" d="M331 301L332 302L331 301z"/>
<path style="fill:#affdfd; stroke:none;" d="M76 302L77 303L76 302M344 302L345 303L344 302M75 303L74 306L75 303z"/>
<path style="fill:#9dfcfd; stroke:none;" d="M332 303L333 304L332 303z"/>
<path style="fill:#affdfd; stroke:none;" d="M336 303L337 305L338 305L339 303L336 303M341.667 303.333L342.333 303.667L341.667 303.333M401 303L401 308L402 308L401 303M73 306L74 307L73 306M72 307L71 311L72 311L72 307M338 307L339 308L338 307M341 308L339 311L341 308M402 308L403 316L404 316L402 308z"/>
<path style="fill:#9dfcfd; stroke:none;" d="M335 309L333 312L335 309z"/>
<path style="fill:#affdfd; stroke:none;" d="M70 311L69 314L70 311z"/>
<path style="fill:#9dfcfd; stroke:none;" d="M331 313L332 314L331 313z"/>
<path style="fill:#affdfd; stroke:none;" d="M68 314L67 317L68 314z"/>
<path style="fill:#9dfcfd; stroke:none;" d="M89 314L90 315L89 314M163 315L164 316L163 315M167 315L168 316L167 315M169 315L170 316L169 315M173 316L174 317L173 316M331 316L332 317L331 316z"/>
<path style="fill:#affdfd; stroke:none;" d="M404 316L404 320L405 320L404 316M66.3333 317.667L66.6667 318.333L66.3333 317.667z"/>
<path style="fill:#9dfcfd; stroke:none;" d="M328 317L328 321L329 321L328 317z"/>
<path style="fill:#affdfd; stroke:none;" d="M337 317L338 318L337 317z"/>
<path style="fill:#9dfcfd; stroke:none;" d="M330 318L331 319L330 318z"/>
<path style="fill:#affdfd; stroke:none;" d="M65 319L64 322L65 319M335 319L334 322L335 319M337 319L338 320L337 319z"/>
<path style="fill:#9dfcfd; stroke:none;" d="M150.333 320.667L150.667 321.333L150.333 320.667z"/>
<path style="fill:#affdfd; stroke:none;" d="M405 320L405 324L406 324L405 320z"/>
<path style="fill:#9dfcfd; stroke:none;" d="M153 321L152 324L157 322L153 321z"/>
<path style="fill:#affdfd; stroke:none;" d="M63 322L64 323L63 322z"/>
<path style="fill:#9dfcfd; stroke:none;" d="M159 322L160 323L159 322M167 322L165 325L167 322M169 324L172 323L169 324M328 322L329 323L328 322z"/>
<path style="fill:#affdfd; stroke:none;" d="M62.3333 323.667L62.6667 324.333L62.3333 323.667z"/>
<path style="fill:#9dfcfd; stroke:none;" d="M143 323L143 326L145 325L145 324L143 323M150 323L151 324L150 323z"/>
<path style="fill:#affdfd; stroke:none;" d="M154 323L155 324L154 323z"/>
<path style="fill:#9dfcfd; stroke:none;" d="M146 324L147 325L146 324M148 324L149 325L148 324M159 324L160 325L159 324M175.333 324.667L175.667 325.333L175.333 324.667M325 324L326 325L325 324M329 324L329 328L330 328L329 324z"/>
<path style="fill:#affdfd; stroke:none;" d="M406 324L411.83 367L413 420L414 420C414.99 396.942 414.323 373.962 411.13 351C409.967 342.631 409.656 331.607 406 324M61 325L60 328L61 325z"/>
<path style="fill:#9dfcfd; stroke:none;" d="M130 325L131 326L130 325M133 325L134 326L133 325M136 326L136 327L139 327L136 326z"/>
<path style="fill:#affdfd; stroke:none;" d="M341 325L342 326L341 325z"/>
<path style="fill:#9dfcfd; stroke:none;" d="M169 327L169 328L172 329L172 326L169 327M127 327L129 330L127 327M154 327L155 328L154 327z"/>
<path style="fill:#affdfd; stroke:none;" d="M160 327L161 328L160 327z"/>
<path style="fill:#9dfcfd; stroke:none;" d="M173 327L174 328L173 327M326.667 327.333L327.333 327.667L326.667 327.333z"/>
<path style="fill:#affdfd; stroke:none;" d="M59.3333 328.667L59.6667 329.333L59.3333 328.667z"/>
<path style="fill:#9dfcfd; stroke:none;" d="M137 328L138 329L137 328M139.667 328.333L140.333 328.667L139.667 328.333M175 328L173 329L173 330L175 328M143 329L144 330L143 329z"/>
<path style="fill:#affdfd; stroke:none;" d="M148.333 329.667L148.667 330.333L148.333 329.667z"/>
<path style="fill:#9dfcfd; stroke:none;" d="M326 329L327 338L328 338L330 337L330 329L326 329z"/>
<path style="fill:#affdfd; stroke:none;" d="M58.3333 330.667L58.6667 331.333L58.3333 330.667z"/>
<path style="fill:#9dfcfd; stroke:none;" d="M131 330L132 331L131 330z"/>
<path style="fill:#affdfd; stroke:none;" d="M152 330L153 331L152 330z"/>
<path style="fill:#9dfcfd; stroke:none;" d="M178 330L179 331L178 330z"/>
<path style="fill:#affdfd; stroke:none;" d="M167 331L168 332L167 331z"/>
<path style="fill:#9dfcfd; stroke:none;" d="M176 331L177 332L176 331z"/>
<path style="fill:#affdfd; stroke:none;" d="M57.3333 332.667L57.6667 333.333L57.3333 332.667z"/>
<path style="fill:#9dfcfd; stroke:none;" d="M174 332L175 333L174 332z"/>
<path style="fill:#affdfd; stroke:none;" d="M76 333L77 334L76 333z"/>
<path style="fill:#9dfcfd; stroke:none;" d="M124 333L125 334L124 333z"/>
<path style="fill:#affdfd; stroke:none;" d="M166 333L167 334L166 333z"/>
<path style="fill:#9dfcfd; stroke:none;" d="M180 333L181 334L180 333M322 333L323 334L322 333M324 333L325 334L324 333z"/>
<path style="fill:#affdfd; stroke:none;" d="M56 334L53 341L54 341L56 334M170 334L171 335L170 334z"/>
<path style="fill:#9dfcfd; stroke:none;" d="M178 334L179 335L178 334M116 335L117 336L116 335M120 335L121 336L120 335M122 336L122 337L124 338L125 338L124 335L122 336z"/>
<path style="fill:#affdfd; stroke:none;" d="M140 335L141 336L140 335M172 335L173 336L172 335M129 336L130 337L129 336z"/>
<path style="fill:#9dfcfd; stroke:none;" d="M76 337L75 339L76 337M120.333 337.667L120.667 338.333L120.333 337.667M181 337L182 338L181 337z"/>
<path style="fill:#affdfd; stroke:none;" d="M174 338L175 339L174 338z"/>
<path style="fill:#9dfcfd; stroke:none;" d="M118 340L119 341L118 340z"/>
<path style="fill:#affdfd; stroke:none;" d="M52 341L51 346L52 346L52 341z"/>
<path style="fill:#9dfcfd; stroke:none;" d="M75 341L76 342L75 341M182 341L183 342L182 341z"/>
<path style="fill:#affdfd; stroke:none;" d="M328 341L330 343L328 341z"/>
<path style="fill:#9dfcfd; stroke:none;" d="M186.667 343.333L187.333 343.667L186.667 343.333M74 344L74 346L76 346L76 344L74 344z"/>
<path style="fill:#affdfd; stroke:none;" d="M181.667 344.333L182.333 344.667L181.667 344.333z"/>
<path style="fill:#9dfcfd; stroke:none;" d="M189 344L190 345L189 344M321 344L322 345L321 344z"/>
<path style="fill:#affdfd; stroke:none;" d="M50.3333 346.667L50.6667 347.333L50.3333 346.667M109 346L110 347L109 346z"/>
<path style="fill:#9dfcfd; stroke:none;" d="M186 348L189 347L186 348z"/>
<path style="fill:#affdfd; stroke:none;" d="M49 348L47 355L48 355L49 348z"/>
<path style="fill:#9dfcfd; stroke:none;" d="M74 348L75 349L74 348z"/>
<path style="fill:#affdfd; stroke:none;" d="M106 348L107 349L106 348z"/>
<path style="fill:#9dfcfd; stroke:none;" d="M317 348L317 349L320 350L320 349L320 348L317 348M72 349L74 351L72 349M76 349L77 350L76 349M97 349L98 350L97 349z"/>
<path style="fill:#affdfd; stroke:none;" d="M324 349L325 350L324 349z"/>
<path style="fill:#9dfcfd; stroke:none;" d="M94 350L95 351L94 350M88 351L89 352L88 351z"/>
<path style="fill:#affdfd; stroke:none;" d="M326 351L327 352L326 351z"/>
<path style="fill:#9dfcfd; stroke:none;" d="M193 352L194 353L193 352M84 353L85 354L84 353z"/>
<path style="fill:#affdfd; stroke:none;" d="M184 353L184 355L186 355L184 353z"/>
<path style="fill:#9dfcfd; stroke:none;" d="M81.6667 354.333L82.3333 354.667L81.6667 354.333M191 354L192 355L191 354M319 354L318 356L319 354M321 354L322 355L321 354z"/>
<path style="fill:#affdfd; stroke:none;" d="M46 355L46 358L47 358L46 355z"/>
<path style="fill:#9dfcfd; stroke:none;" d="M77.6667 355.333L78.3333 355.667L77.6667 355.333z"/>
<path style="fill:#affdfd; stroke:none;" d="M69 356L69 357L70 359L73 356L69 356M89 356L90 357L89 356M184 356L185 357L184 356M45 358L42 370L43 370L45 358M81 358L82 359L81 358z"/>
<path style="fill:#9dfcfd; stroke:none;" d="M190 358L192 360L190 358M316 358L317 359L316 358z"/>
<path style="fill:#affdfd; stroke:none;" d="M68 359L69 360L68 359M72 359L74 361L72 359M78 359L80 361L78 359M184 359L185 360L184 359M70 360L71 361L70 360M186 360L187 361L186 360z"/>
<path style="fill:#9dfcfd; stroke:none;" d="M194 360L195 361L194 360M319 360L320 361L319 360M315 361L316 362L315 361M318 362L319 363L318 362M190 363L191 364L190 363M192.333 363.667L192.667 364.333L192.333 363.667M315 364L316 365L315 364M313 366L313 367L317 368L317 367L313 366z"/>
<path style="fill:#affdfd; stroke:none;" d="M321 366L322 367L321 366z"/>
<path style="fill:#9dfcfd; stroke:none;" d="M192 368L190 373L193 372L192 368M319 369L320 370L319 369z"/>
<path style="fill:#affdfd; stroke:none;" d="M41 370L41 374L42 374L41 370M191.333 370.667L191.667 371.333L191.333 370.667z"/>
<path style="fill:#9dfcfd; stroke:none;" d="M311.333 370.667L311.667 371.333L311.333 370.667M319 371L319 374L320 374L319 371M317 373L318 374L317 373z"/>
<path style="fill:#affdfd; stroke:none;" d="M40 374C39.4985 380.409 38.3897 386.542 45 390L40 374M87 380L87 381L115 375C106.362 371.376 95.4578 378.043 87 380z"/>
<path style="fill:#9dfcfd; stroke:none;" d="M196 374L197 375L196 374z"/>
<path style="fill:#affdfd; stroke:none;" d="M115.667 375.333L116.333 375.667L115.667 375.333M117 376L121 379L117 376z"/>
<path style="fill:#9dfcfd; stroke:none;" d="M191.667 376.333L192.333 376.667L191.667 376.333M319 376L316 378C318.143 378.265 319.419 378.384 319 376M194 377L195 378L194 377z"/>
<path style="fill:#affdfd; stroke:none;" d="M184 378L185 379L184 378z"/>
<path style="fill:#9dfcfd; stroke:none;" d="M196 378L197 379L196 378z"/>
<path style="fill:#affdfd; stroke:none;" d="M121 379L124 383L121 379M188 379L189 380L188 379M84 381L84 382L87 382L84 381M189 381L190 382L189 381z"/>
<path style="fill:#9dfcfd; stroke:none;" d="M316.333 381.667L316.667 382.333L316.333 381.667z"/>
<path style="fill:#affdfd; stroke:none;" d="M81 382L81 383L84 383L81 382M74 384L74 385L81 384L74 384M124.333 383.667L124.667 384.333L124.333 383.667M187 384L188 385L187 384z"/>
<path style="fill:#9dfcfd; stroke:none;" d="M194.667 384.333L195.333 384.667L194.667 384.333M314 384L315 385L314 384z"/>
<path style="fill:#affdfd; stroke:none;" d="M71 385L71 386L74 386L71 385M125.333 385.667L125.667 386.333L125.333 385.667z"/>
<path style="fill:#9dfcfd; stroke:none;" d="M198 385L199 386L198 385M312 385L313 386L312 385z"/>
<path style="fill:#affdfd; stroke:none;" d="M65 387L65 388L71 387L65 387M191 386L192 387L191 386M126.333 387.667L126.667 388.333L126.333 387.667z"/>
<path style="fill:#9dfcfd; stroke:none;" d="M313 387L314 388L313 387z"/>
<path style="fill:#affdfd; stroke:none;" d="M58 389L58 390L65 389L58 389M189 388L191 390L191 388L189 388z"/>
<path style="fill:#9dfcfd; stroke:none;" d="M195 388L196 389L195 388z"/>
<path style="fill:#affdfd; stroke:none;" d="M127 389L127 392L128 392L127 389M45 390L45 391L58 391L45 390z"/>
<path style="fill:#9dfcfd; stroke:none;" d="M310 390L313 392L310 390z"/>
<path style="fill:#affdfd; stroke:none;" d="M128 392L128 395L129 395L128 392z"/>
<path style="fill:#9dfcfd; stroke:none;" d="M200 392L201 393L200 392z"/>
<path style="fill:#affdfd; stroke:none;" d="M189 393L190 394L189 393z"/>
<path style="fill:#9dfcfd; stroke:none;" d="M195 393L196 394L195 393M308 393L309 394L308 393M192 395L193 396L192 395M194 398L198 397L194 398M308 395L309 396L308 395z"/>
<path style="fill:#affdfd; stroke:none;" d="M129 396L129 401L130 401L129 396M195 396L196 397L195 396z"/>
<path style="fill:#9dfcfd; stroke:none;" d="M301 398L302 399L301 398M307.333 398.667L307.667 399.333L307.333 398.667M193.333 399.667L193.667 400.333L193.333 399.667M196 399L197 403L198 403L198 399L196 399z"/>
<path style="fill:#affdfd; stroke:none;" d="M130 401L130 406L131 406L130 401z"/>
<path style="fill:#9dfcfd; stroke:none;" d="M307 401L308 402L307 401z"/>
<path style="fill:#affdfd; stroke:none;" d="M310 401L311 402L310 401z"/>
<path style="fill:#9dfcfd; stroke:none;" d="M193.333 402.667L193.667 403.333L193.333 402.667M305.667 403.333L306.333 403.667L305.667 403.333z"/>
<path style="fill:#affdfd; stroke:none;" d="M190 404L191 405L190 404z"/>
<path style="fill:#9dfcfd; stroke:none;" d="M248 404L249 405L248 404M197 405L198 406L197 405M207 405L208 406L207 405M213 405L214 406L213 405M235 405L236 406L235 405M251 405L252 406L251 405M258 405L258 408L261 405L258 405M262.333 405.667L262.667 406.333L262.333 405.667M299 405L300 406L299 405z"/>
<path style="fill:#affdfd; stroke:none;" d="M131 406L131 412L132 412L131 406z"/>
<path style="fill:#9dfcfd; stroke:none;" d="M242 406C242.662 409.15 244.338 409.15 245 406L242 406M247 406L248 408L249 408L250 406L247 406M301 406L302 407L301 406M305 406L306 407L305 406M201 407L202 408L201 407M264 409L267 408L264 409M273 407L274 408L273 407M303 407L304 408L303 407z"/>
<path style="fill:#affdfd; stroke:none;" d="M346 411L346 412L374 411C365.429 404.614 355.057 407.511 346 411M190 408L191 409L190 408z"/>
<path style="fill:#9dfcfd; stroke:none;" d="M214 408L215 409L214 408M235 408L236 409L235 408M198 409L199 410L198 409M225 410L225 413L230 410L225 410M233 409L234 410L233 409M273 410L273 411L278 412L278 409L273 410M288 409L289 410L288 409M301 409L302 410L301 409z"/>
<path style="fill:#affdfd; stroke:none;" d="M194 410L195 411L194 410z"/>
<path style="fill:#9dfcfd; stroke:none;" d="M200.667 410.333L201.333 410.667L200.667 410.333M217 410L217 411L221 411L221 410L217 410z"/>
<path style="fill:#affdfd; stroke:none;" d="M247.333 410.667L247.667 411.333L247.333 410.667z"/>
<path style="fill:#9dfcfd; stroke:none;" d="M280 410L282 414L280 410M296 410L297 411L296 410z"/>
<path style="fill:#affdfd; stroke:none;" d="M306 410L307 411L306 410z"/>
<path style="fill:#9dfcfd; stroke:none;" d="M291 411L292 412L291 411z"/>
<path style="fill:#affdfd; stroke:none;" d="M303 411L304 412L303 411M374 411L374 412L379 414L379 413L374 411M132 412L132 415L133 415L132 412z"/>
<path style="fill:#9dfcfd; stroke:none;" d="M231 412L232 413L231 412z"/>
<path style="fill:#affdfd; stroke:none;" d="M250 412L251 413L250 412M342 415L346 412L342 415z"/>
<path style="fill:#9dfcfd; stroke:none;" d="M202 413L203 414L202 413M210 413L211 414L210 413z"/>
<path style="fill:#affdfd; stroke:none;" d="M237 413L238 414L237 413M253 413L254 414L253 413z"/>
<path style="fill:#9dfcfd; stroke:none;" d="M289.333 413.667L289.667 414.333L289.333 413.667M212 414L213 415L212 414z"/>
<path style="fill:#affdfd; stroke:none;" d="M303 414L304 415L303 414M379 414L382 416L379 414M133.333 415.667L133.667 416.333L133.333 415.667z"/>
<path style="fill:#9dfcfd; stroke:none;" d="M200 415L201 416L200 415z"/>
<path style="fill:#affdfd; stroke:none;" d="M341 415L342 416L341 415M192 416L193 417L192 416z"/>
<path style="fill:#9dfcfd; stroke:none;" d="M208 416L209 417L208 416z"/>
<path style="fill:#affdfd; stroke:none;" d="M220.667 416.333L221.333 416.667L220.667 416.333M294 416L294 419L295 419L294 416M328 428L341 416L328 428M382 416L386 419L382 416M134.333 417.667L134.667 418.333L134.333 417.667M195 417L196 418L195 417z"/>
<path style="fill:#9dfcfd; stroke:none;" d="M202 417L204 419L204 417L202 417M210 417L211 418L210 417z"/>
<path style="fill:#affdfd; stroke:none;" d="M214 417L215 418L214 417M216 417L217 418L216 417z"/>
<path style="fill:#9dfcfd; stroke:none;" d="M206 418L207 420L208 420L209 418L206 418z"/>
<path style="fill:#affdfd; stroke:none;" d="M284 418L285 419L284 418M135.333 419.667L135.667 420.333L135.333 419.667M195 419L196 420L195 419M287 419L288 420L287 419M386 419L387 420L386 419M197 420L198 423L199 423L197 420M296 420L297 421L296 420M387 420L388 421L387 420M136 421L137 422L136 421M388 421L391 423L388 421M412 421L412 424L413 424L412 421M137 422L140 426L137 422M204.333 422.667L204.667 423.333L204.333 422.667M220 432C230.166 428.306 239.634 422.008 251 423.174C260.507 424.15 268.277 429.826 277 433C264.8 418.768 232.506 417.45 220 432M202 423L203 424L202 423M391 423L394 425L391 423M200 424L201 425L200 424M411.333 424.667L411.667 425.333L411.333 424.667M394 425L394 426C398.893 428.565 407.172 431.418 411 426C404.583 428.321 400.338 426.694 394 425M140 426L144 430L140 426M327 428L328 429L327 428M326 429L327 430L326 429M144 430L145 431L144 430M325 430L326 431L325 430M145 431L146 432L145 431M324 431L325 432L324 431M146 432L153 440L146 432M218 432L218 434L220 432L218 432M322 432L322 434L324 432L322 432M277 433L281 436L277 433M217 434L218 435L217 434M321 434L322 435L321 434M212 439L217 435L212 439M317 438L321 435L317 438M281 436C287.819 443.954 298.455 443 308 443L308 442L281 436M308 441L308 442L317 439L308 441M211 439L212 440L211 439M153 440L154 441L153 440M205 445L211 440L205 445M154 441L155 442L154 441M155 442L156 443L155 442M156 443L161 448L156 443M204 445L205 446L204 445M199 448L199 449L204 447L199 448M161 448L165 451L161 448M195 452L199 449L195 452M165 451L165 452C174.857 457.603 184.648 456.859 195 453L195 452C182.873 454.061 176.985 454.419 165 451z"/>
</svg>
