<svg version="1.1" id="Layer_1" xmlns="http://www.w3.org/2000/svg" xmlns:xlink="http://www.w3.org/1999/xlink" x="0px" y="0px"
	 width="100%" viewBox="0 0 500 500" enable-background="new 0 0 500 500" xml:space="preserve">
<path fill="#000000" opacity="1.000000" stroke="none" 
	d="
M1.000000,188.000000 
	C1.000000,125.348854 1.000000,63.197712 1.000000,1.023283 
	C167.609528,1.023283 334.219055,1.023283 500.914307,1.023283 
	C500.914307,167.567871 500.914307,334.135803 500.914307,500.851868 
	C334.333435,500.851868 167.666733,500.851868 1.000000,500.851868 
	C1.000000,396.780792 1.000000,292.640411 1.000000,188.000000 
M276.070770,433.594299 
	C276.374207,433.676971 276.677673,433.759674 277.609406,434.098419 
	C279.032806,435.086395 280.456207,436.074341 282.037140,437.580017 
	C282.336823,437.760742 282.636505,437.941498 283.210938,438.752502 
	C284.790100,439.543457 286.369263,440.334412 288.231110,441.756592 
	C289.487244,442.116882 290.743408,442.477173 292.792542,442.996613 
	C294.861786,443.276062 296.931000,443.555511 299.900391,443.986420 
	C306.432678,444.027039 313.037567,444.335419 318.756287,438.781921 
	C326.433563,431.765320 334.144806,424.785370 341.779266,417.722504 
	C350.717590,409.453461 365.219147,406.338776 376.255951,413.717865 
	C382.824493,418.109467 389.150116,422.867462 395.761536,427.190643 
	C400.110077,430.034180 405.070953,431.543121 409.986267,428.918365 
	C414.628296,426.439545 414.651459,421.559540 415.007141,416.145874 
	C415.336578,414.433533 415.996521,412.709869 415.938141,411.010834 
	C415.686279,403.675934 415.223999,396.348236 414.986694,388.110352 
	C414.325348,380.285797 413.880005,372.435547 412.953430,364.642548 
	C411.458038,352.065918 410.448486,339.352234 407.762726,327.016724 
	C404.455780,311.828217 399.661560,296.962280 395.470337,281.968109 
	C391.926025,269.288391 388.506866,256.667297 388.871887,243.239365 
	C389.135956,233.526230 388.233398,223.781387 387.999512,213.112213 
	C388.011688,206.011902 388.095398,198.910507 387.990112,191.811951 
	C387.960541,189.818939 387.375488,187.834198 387.000793,184.928635 
	C386.666504,173.057068 385.975433,161.182037 386.091003,149.314850 
	C386.226105,135.444138 382.569183,122.458221 377.809601,109.727585 
	C375.880432,104.567642 372.724396,99.866417 370.008270,94.265114 
	C369.355835,93.133133 368.703430,92.001160 368.019867,90.144386 
	C363.434662,82.548164 359.390411,74.546112 351.863281,68.322372 
	C350.904785,67.072678 350.123413,65.617874 348.956116,64.610085 
	C344.720612,60.953342 340.355713,57.446457 335.755035,53.223225 
	C329.502930,48.871407 323.250824,44.519588 316.317780,39.849720 
	C311.226501,37.527802 306.135223,35.205883 300.693390,32.197636 
	C291.173798,30.114805 281.654205,28.031975 272.020935,25.072424 
	C270.752533,24.704166 269.489471,24.040785 268.214844,24.017813 
	C262.107635,23.907728 255.995621,23.889023 249.888931,24.014380 
	C247.556168,24.062267 245.233093,24.581057 242.085037,25.007429 
	C240.857193,25.337893 239.630508,25.672661 238.401337,25.998117 
	C230.897858,27.984861 223.393845,29.969494 215.127106,31.996252 
	C212.735367,32.959469 210.343643,33.922688 207.241898,34.992599 
	C205.478470,35.957855 203.715042,36.923107 201.470337,38.004749 
	C201.470337,38.004749 201.001556,38.164234 200.492264,38.048653 
	C200.311127,38.328598 200.129990,38.608543 199.471008,39.004292 
	C199.471008,39.004292 199.004074,39.158321 198.396790,39.101795 
	C197.892151,39.720329 197.387497,40.338860 196.432434,41.010517 
	C196.432434,41.010517 196.003815,41.158787 195.395599,41.102573 
	C194.889740,41.720661 194.383881,42.338749 193.228699,43.231998 
	C189.153183,46.543430 185.077652,49.854858 180.268417,53.222027 
	C179.113998,53.716522 177.607956,53.901878 176.859467,54.753254 
	C169.221741,63.440876 161.707260,72.236824 154.005615,81.426628 
	C154.005615,81.426628 153.956116,81.874702 153.385635,82.087906 
	C152.976273,82.726189 152.566925,83.364479 151.858795,84.661591 
	C150.983017,86.195229 150.233109,87.818748 149.212082,89.248680 
	C138.454025,104.315155 134.410248,121.773392 132.170273,139.600067 
	C130.612747,151.995468 130.715714,164.595993 129.982391,177.099350 
	C129.038467,193.193176 128.509506,209.335892 126.799011,225.350449 
	C125.868286,234.064407 123.163193,242.622818 117.645721,249.965332 
	C115.374512,252.987808 113.823639,256.551605 111.426224,260.032562 
	C111.253609,260.338043 111.080994,260.643494 110.986923,260.979797 
	C110.986923,260.979797 110.941673,260.908539 110.418854,261.039825 
	C110.243065,261.339203 110.067268,261.638611 109.995407,261.979034 
	C109.995407,261.979034 109.907440,261.910034 109.346840,262.116150 
	C108.950493,262.744690 108.554153,263.373260 107.948837,264.535217 
	C107.611198,264.976746 107.273560,265.418274 106.374924,266.088623 
	C105.968224,266.726135 105.561523,267.363617 105.003937,268.423096 
	C105.003937,268.423096 104.943558,268.867188 104.301895,269.120453 
	C90.998451,285.674866 77.243958,301.823914 66.129829,320.097717 
	C54.841515,338.657867 44.789570,357.509766 40.883629,379.173706 
	C39.249264,388.238525 45.909199,395.144501 54.691288,392.666168 
	C63.026337,390.313995 71.249840,387.569458 79.561279,385.129974 
	C90.352570,381.962585 101.182335,378.926239 112.763489,375.987335 
	C115.161324,377.031250 117.559158,378.075165 120.258759,379.759888 
	C126.331413,384.681702 128.459000,391.626038 129.980286,398.853333 
	C131.753113,407.275482 131.770035,416.256378 137.747528,423.327698 
	C141.082153,427.272552 144.500305,431.146759 148.131851,435.681213 
	C153.073517,440.491791 158.015198,445.302368 163.225525,450.755707 
	C166.486755,452.452515 169.747986,454.149323 173.728333,456.209839 
	C186.211914,459.826202 196.005325,454.278046 205.467850,447.130371 
	C214.190918,440.541260 220.950943,431.232422 232.634689,427.868988 
	C233.441132,427.287079 234.247574,426.705200 235.524475,426.010742 
	C235.524475,426.010742 235.979446,425.846375 236.648361,425.987000 
	C237.098770,425.938080 237.549179,425.889130 238.587875,425.903412 
	C239.050446,425.549622 239.513016,425.195831 240.645538,424.986298 
	C241.097031,424.936951 241.548538,424.887573 242.657715,424.989288 
	C243.429977,424.607880 244.202225,424.226440 245.869705,423.987579 
	C248.584290,423.938599 251.298889,423.889587 254.630676,424.119202 
	C255.420563,424.359253 256.210449,424.599304 257.641357,424.987762 
	C258.076569,425.033356 258.511810,425.078918 259.180481,425.712341 
	C259.786743,425.753357 260.392975,425.794403 261.468811,425.997498 
	C261.468811,425.997498 261.949799,426.121765 262.095398,426.621429 
	C262.397186,426.694244 262.699005,426.767059 263.625793,427.113770 
	C264.421204,427.357788 265.216614,427.601807 266.465210,428.009277 
	C266.465210,428.009277 266.936798,428.107605 266.988190,428.022491 
	C266.988190,428.022491 266.904419,428.076050 267.189148,428.702606 
	C268.793030,429.416016 270.396881,430.129425 272.605347,431.095734 
	C273.363556,431.419495 274.121765,431.743225 275.031830,432.579803 
	C275.331268,432.751282 275.630676,432.922729 275.967987,432.994781 
	C275.967987,432.994781 275.915222,433.090454 276.070770,433.594299 
z"/>
<path fill="#B1FDFC" opacity="1.000000" stroke="none" 
	d="
M215.889999,31.954830 
	C223.393845,29.969494 230.897858,27.984861 238.401337,25.998117 
	C239.630508,25.672661 240.857193,25.337893 242.754547,25.208704 
	C252.994247,25.589701 262.564423,25.769423 272.134613,25.949146 
	C281.654205,28.031975 291.173798,30.114805 300.897766,32.895107 
	C302.290436,34.859711 303.308472,36.368397 304.699188,37.348206 
	C308.704559,40.170120 312.828918,42.828312 316.973083,45.445454 
	C318.555267,46.444645 320.318207,47.157650 321.999390,48.000534 
	C322.000000,48.000000 321.998779,48.001312 322.043213,48.345261 
	C322.617401,49.514336 322.960663,50.611244 323.705780,51.122517 
	C331.083496,56.184780 335.725769,63.570412 339.538696,71.237892 
	C342.260773,76.711723 344.430420,82.993401 344.723877,89.017982 
	C345.173645,98.252670 344.095428,107.655769 335.588470,114.022057 
	C334.472351,114.857330 333.809235,116.404518 333.151306,117.728798 
	C327.525574,129.052765 324.750000,141.107986 323.987274,153.682037 
	C323.747192,157.640656 323.264038,161.584854 323.039124,165.544006 
	C322.436188,176.157242 326.037445,187.135788 320.201843,197.312149 
	C319.765808,198.072479 319.671356,199.573944 320.133606,200.215027 
	C323.007294,204.200607 321.030304,207.927963 320.044983,211.872803 
	C318.597015,217.669891 315.002045,220.744431 308.886871,221.056839 
	C306.872375,221.159760 304.892426,221.937775 302.446259,222.337585 
	C298.568115,222.286270 295.140411,222.304459 291.471924,222.331696 
	C290.810394,222.532822 290.389587,222.724930 289.599304,222.870193 
	C288.495148,222.938690 287.760559,223.054016 286.669769,223.221954 
	C276.322540,226.893845 269.448792,233.928452 267.326233,244.119537 
	C265.473511,253.014999 267.179352,261.978180 272.123474,269.903656 
	C271.456421,270.688782 270.643585,271.778839 270.870575,272.076782 
	C273.784698,275.901978 276.735321,279.714966 279.951965,283.282867 
	C280.746033,284.163635 282.550354,284.556671 283.850983,284.482788 
	C288.869720,284.197693 290.174469,285.543793 289.455200,290.313477 
	C289.224274,291.844666 289.071472,294.184814 289.940369,294.942932 
	C293.234955,297.817444 291.749969,300.203674 289.762451,302.670898 
	C287.546295,305.422028 284.882629,305.380585 281.690979,304.244171 
	C279.172974,303.347687 276.352112,303.302002 273.665741,302.878418 
	C273.608765,303.289978 273.551758,303.701508 273.494781,304.113037 
	C277.819214,307.321747 282.143646,310.530457 287.759430,314.697327 
	C283.451813,317.265198 280.480194,318.769928 277.841736,320.724365 
	C276.563171,321.671448 276.021271,323.555634 274.942230,324.845123 
	C273.766632,326.250000 272.355133,327.457428 271.046448,328.750946 
	C270.042145,327.469879 268.212280,326.202179 268.191345,324.905243 
	C268.133148,321.298523 266.266235,320.985413 263.389923,320.934998 
	C259.383942,320.864807 255.322144,319.300720 251.732193,322.730255 
	C250.982025,323.446869 248.962128,322.834381 247.244583,322.834381 
	C248.027954,317.727386 247.106110,315.766937 241.521378,316.684204 
	C233.737503,317.962585 231.771484,314.969208 232.595505,307.078064 
	C232.815262,304.973602 230.889511,302.498474 229.577408,300.428986 
	C228.599762,298.887054 227.023743,297.724518 225.714203,296.393005 
	C226.040787,296.056000 226.367371,295.718994 226.693954,295.381989 
	C230.129303,296.587982 233.564651,297.794006 236.851471,299.334442 
	C237.124512,301.541748 237.417236,303.462585 238.080917,305.245300 
	C238.207321,305.584900 240.449646,305.690643 240.603577,305.370148 
	C241.265045,303.992828 242.308151,301.736786 241.733032,301.062500 
	C240.729202,299.885559 238.636414,299.637421 236.992538,298.632629 
	C235.277267,294.316681 233.757111,290.352875 228.470825,289.731171 
	C227.394730,289.604614 225.477936,286.723419 225.796295,286.164551 
	C229.223404,280.148407 224.305679,281.830994 222.024155,281.652313 
	C220.460342,278.661224 219.018600,276.022949 217.688980,273.329285 
	C216.154739,270.221039 213.694855,267.134766 213.472214,263.912170 
	C213.103638,258.577484 214.657410,253.107590 210.804489,248.326599 
	C210.308151,247.710693 210.492828,246.073441 210.955109,245.237122 
	C213.293701,241.006439 212.368134,238.514435 207.968018,236.876526 
	C206.945175,236.495789 205.500107,234.330887 205.646210,234.156326 
	C209.038940,230.103455 206.572449,225.648666 206.466446,221.481781 
	C206.351028,216.945023 204.412781,212.351761 204.831680,207.931168 
	C205.320724,202.770233 206.039810,197.929184 203.205750,193.242523 
	C203.018707,192.933212 203.895782,192.112488 203.967285,191.493744 
	C204.517624,186.731140 205.381210,182.340759 202.374710,177.482620 
	C199.972153,173.600372 200.098694,168.144455 199.170639,163.373810 
	C199.093964,162.979614 199.414001,162.314453 199.759369,162.061844 
	C203.413422,159.389008 201.025848,156.479782 200.079971,153.682312 
	C199.609253,152.290192 198.419464,151.046448 198.268066,149.657852 
	C197.685303,144.312851 197.523804,138.921600 196.928467,133.578430 
	C196.658600,131.156281 194.600800,128.354141 195.332474,126.508804 
	C197.474365,121.106827 193.764496,117.706261 191.990372,113.669121 
	C191.214081,111.902573 189.078445,110.630920 188.598892,108.854164 
	C186.518967,101.148033 184.732056,93.358047 183.037857,85.555290 
	C182.486160,83.014366 181.637405,80.001007 182.472931,77.788467 
	C186.148453,68.055618 189.583572,58.109921 197.094849,50.371998 
	C197.964737,49.475861 198.376801,48.135284 199.181076,46.769283 
	C199.907349,46.358482 200.453674,46.179165 201.341675,45.956703 
	C203.122437,44.276016 204.561523,42.638466 206.000305,41.000458 
	C206.000000,41.000000 206.000610,41.000790 206.365738,40.993507 
	C209.933136,38.662102 213.161240,36.371277 216.286636,33.948006 
	C216.525787,33.762585 216.039230,32.641174 215.889999,31.954830 
M308.268158,105.121620 
	C309.532257,104.364326 310.784180,103.585785 312.062714,102.853691 
	C316.052643,100.568977 319.970520,98.782257 319.327026,92.596397 
	C318.884583,88.343285 320.035980,83.633728 321.554840,79.527611 
	C324.734924,70.930656 321.359924,63.420712 317.093292,57.010181 
	C310.959900,47.794998 301.448029,41.772617 291.589020,36.908897 
	C279.097870,30.746662 265.625793,29.545794 251.915085,30.859932 
	C246.815674,31.348700 241.731689,32.156960 236.694656,33.106007 
	C225.604111,35.195610 216.160751,40.116138 209.677551,49.720425 
	C208.194565,51.917339 207.053116,54.341759 205.637970,56.588062 
	C200.445633,64.830116 200.830887,75.979469 206.632370,83.759056 
	C202.107269,91.810036 213.069855,92.576187 212.915802,98.646011 
	C214.610474,98.445419 215.847961,97.931419 216.813797,98.247505 
	C221.269882,99.705811 225.595428,101.578873 230.082138,102.920837 
	C232.180984,103.548599 234.539215,103.425148 236.779221,103.418732 
	C237.996475,103.415245 239.277191,102.556702 240.417984,102.747940 
	C246.197479,103.716759 252.015381,104.620796 257.667969,106.120079 
	C261.031677,107.012260 265.437531,106.715942 266.704498,111.617668 
	C266.868744,112.253166 269.316620,112.783745 270.559937,112.557259 
	C273.439178,112.032776 276.226593,110.347252 279.054626,110.339424 
	C284.485046,110.324394 289.741302,105.884399 295.339996,109.660393 
	C295.780151,109.957245 296.876953,109.351418 297.640717,109.085175 
	C300.968567,107.925095 304.286041,106.735443 308.268158,105.121620 
M225.410568,188.086288 
	C233.849136,196.392151 243.629562,198.257767 254.414658,193.600510 
	C262.313477,190.189621 267.474121,183.852783 268.026672,175.353668 
	C268.976013,160.751495 269.108063,146.081055 269.070496,131.440598 
	C269.061279,127.844185 267.722046,123.870705 265.874054,120.729668 
	C259.941345,110.646004 250.497070,107.143730 239.203995,108.120270 
	C229.601242,108.950645 219.277115,118.162888 219.074097,126.163353 
	C218.695755,141.073135 218.707748,155.994827 218.171585,170.897690 
	C217.928436,177.656143 220.096359,183.063736 225.410568,188.086288 
M232.028946,275.780396 
	C230.043869,276.923737 230.043869,276.923737 232.733368,279.932190 
	C232.622955,278.303223 232.554459,277.292572 232.028946,275.780396 
M261.691040,311.033997 
	C261.343506,310.429504 260.995972,309.824982 260.648438,309.220428 
	C260.246033,309.601868 259.843628,309.983307 259.441223,310.364746 
	C260.053497,310.739105 260.665771,311.113464 261.691040,311.033997 
M278.491608,314.811493 
	C278.771210,314.409698 279.050812,314.007904 279.330414,313.606079 
	C278.916229,313.498108 278.502075,313.390106 278.087891,313.282104 
	C278.038055,313.750885 277.988220,314.219666 278.491608,314.811493 
M241.268478,308.493744 
	C241.012238,308.737000 240.753571,308.977936 240.513229,309.235992 
	C240.506973,309.242706 240.700958,309.435913 240.801529,309.542145 
	C241.057907,309.298553 241.314285,309.054962 241.268478,308.493744 
z"/>
<path fill="#A1FDFD" opacity="1.000000" stroke="none" 
	d="
M181.002136,53.166290 
	C185.077652,49.854858 189.153183,46.543430 193.831543,43.110527 
	C194.619797,43.000118 194.805222,43.011181 194.994064,43.420250 
	C194.998535,44.879032 194.999573,45.939816 194.881561,47.210880 
	C194.560928,47.683430 194.306763,47.876427 193.651215,48.008495 
	C192.534958,48.677841 191.767487,49.338844 190.835144,50.233631 
	C190.113510,50.978279 189.556763,51.489140 188.681702,52.033916 
	C187.575836,52.712105 186.788269,53.356377 186.000366,54.000324 
	C186.000000,54.000000 186.000610,54.000832 185.702148,54.156731 
	C182.935974,57.875286 180.468292,61.437946 177.858307,65.318970 
	C177.477127,66.758125 177.238266,67.878914 176.685883,69.052284 
	C175.915115,69.736748 175.457870,70.368629 174.871094,71.292725 
	C174.494385,72.389969 174.247192,73.194984 173.645203,74.074081 
	C172.563339,75.194405 171.576523,76.144547 171.148468,77.301422 
	C165.399689,92.838318 167.775131,108.581703 170.029846,124.326950 
	C170.776855,129.543518 172.063553,134.813339 171.859253,140.009888 
	C171.347916,153.016403 170.496231,166.036423 169.052719,178.969727 
	C168.124695,187.284515 165.779968,195.432617 164.295944,203.695969 
	C162.236389,215.163818 156.230896,224.629349 149.035172,233.331177 
	C141.463058,242.488174 133.156219,251.035339 125.511353,260.135406 
	C121.621414,264.765778 118.480042,270.025024 115.000153,275.000000 
	C115.000000,275.000000 115.000305,275.000000 114.703842,275.154480 
	C110.212624,280.432831 105.656387,285.306152 101.896454,290.731354 
	C93.394554,302.998840 84.352188,315.035980 77.304527,328.122650 
	C71.384026,339.116272 67.924095,351.442993 63.482277,363.220062 
	C62.171215,366.696228 64.394348,371.723877 67.280350,371.690002 
	C70.202530,371.655701 73.331535,371.309235 75.987694,370.191223 
	C81.931030,367.689697 87.568619,364.472382 93.454247,361.820770 
	C103.963089,357.086273 113.304947,350.060577 124.699844,346.968079 
	C133.315735,344.629791 141.497681,340.733002 150.018036,337.979401 
	C152.886887,337.052246 156.927689,336.261810 159.175034,337.569855 
	C165.373093,341.177338 171.304520,345.505829 176.510757,350.427765 
	C178.658859,352.458557 177.895599,357.350128 179.849579,359.852997 
	C183.335434,364.318054 182.827698,369.116699 183.042618,374.060425 
	C183.327362,380.610718 183.980881,387.144043 184.353607,393.691620 
	C184.685654,399.524445 184.518600,405.404144 185.169769,411.195923 
	C186.104736,419.511841 191.131882,425.752289 196.426453,431.542542 
	C199.087173,430.636078 201.548798,429.795624 204.011658,428.958771 
	C208.243515,427.520874 212.517624,426.195343 216.697968,424.620758 
	C221.931854,422.649292 226.950836,419.982819 232.304642,418.476990 
	C249.821609,413.550079 266.735443,415.222229 282.758209,424.172882 
	C291.452271,429.029572 304.672516,427.667725 309.698517,419.990173 
	C314.684631,412.373505 318.316956,403.773193 321.772888,395.290497 
	C323.701996,390.555481 322.462738,384.733398 326.565369,380.505798 
	C327.490387,379.552551 327.492188,377.709595 327.934906,376.281128 
	C330.310974,368.614258 332.477203,360.873810 335.125153,353.301910 
	C338.536774,343.546112 342.082520,333.820587 346.044128,324.278656 
	C349.510345,315.929810 352.166077,307.572571 351.059692,298.392029 
	C350.966461,297.618378 351.402954,296.787628 351.556213,295.976379 
	C352.585663,290.527618 354.078522,285.114288 354.512238,279.617767 
	C355.102539,272.136322 354.858246,264.590302 355.033539,257.073425 
	C355.060211,255.929993 355.414459,254.793365 355.625671,253.655182 
	C357.113007,245.640732 358.796021,237.656036 360.017914,229.601379 
	C360.735931,224.868240 360.006104,219.832779 361.222687,215.279358 
	C362.668335,209.868622 360.823181,205.907104 358.067078,201.637863 
	C358.437500,201.170624 358.704376,200.945023 359.277710,200.663589 
	C360.344299,200.264893 361.104462,199.922028 362.019287,199.923950 
	C363.475159,202.675385 365.858032,205.065399 365.895294,207.491425 
	C366.082794,219.707703 365.761414,231.936295 365.416412,244.154831 
	C365.137939,254.017929 362.994507,264.132263 364.561096,273.661194 
	C366.249207,283.928925 364.471710,293.625549 363.896027,303.546356 
	C363.649689,307.791565 362.240967,311.963074 361.452423,316.185242 
	C360.936432,318.948090 360.783234,321.608124 357.278900,322.783325 
	C356.318787,323.105286 356.187225,326.119629 355.815552,327.927277 
	C355.098816,331.413422 355.665955,336.724152 353.601227,338.079132 
	C347.469269,342.103333 346.699493,348.776001 343.458740,354.165863 
	C342.024719,356.550842 340.135651,358.800018 339.318909,361.384460 
	C338.221588,364.856812 338.386658,368.732452 337.258698,372.189911 
	C334.558899,380.465332 331.643860,388.687439 328.398010,396.763184 
	C324.843353,405.607117 320.819427,414.262451 316.659546,423.043213 
	C315.212708,424.390930 314.106354,425.695465 312.647461,427.043427 
	C309.377197,428.950500 306.634857,431.226593 303.492767,432.562408 
	C300.316956,433.912567 296.408417,435.644409 293.418549,434.877838 
	C287.631287,433.393982 282.284210,430.225250 276.716400,427.844391 
	C271.279327,425.519470 265.972168,422.374969 260.283752,421.289551 
	C253.781693,420.048920 246.888245,420.201233 240.228745,420.665131 
	C235.431686,420.999329 230.739151,422.834381 225.641266,424.045532 
	C214.302994,427.865997 205.857880,435.367157 197.503082,442.997040 
	C192.009460,448.014008 185.480789,446.548737 181.947906,440.074890 
	C176.657242,430.380005 176.170639,419.527008 175.642075,409.193207 
	C175.162598,399.818756 176.197433,390.352173 174.076599,381.011627 
	C173.566147,378.763428 172.990555,376.401764 173.165222,374.148071 
	C174.000214,363.373260 167.396561,356.990906 159.765869,351.363617 
	C157.755981,349.881439 154.872665,349.593323 152.401749,348.724701 
	C145.392639,346.260803 138.028275,345.934570 131.490479,348.977142 
	C116.956474,355.740936 102.876274,363.473785 88.523438,370.635986 
	C82.784248,373.499878 77.008514,377.318573 70.900192,378.156281 
	C63.140705,379.220428 57.989353,378.258423 59.046623,368.656128 
	C59.621201,363.437714 59.980621,358.039276 61.632351,353.123657 
	C67.761490,334.883148 78.484840,319.091278 89.080811,303.246460 
	C91.422798,299.744324 93.046211,295.761658 95.000244,292.000122 
	C95.000000,292.000000 95.000610,292.000000 95.342224,291.956787 
	C97.122452,290.275696 98.561066,288.637848 100.260590,286.794678 
	C104.014114,282.392883 107.506752,278.196411 111.281769,273.849976 
	C112.042664,272.800018 112.521179,271.899994 113.209930,270.880981 
	C113.682358,270.560516 113.875465,270.306519 114.281860,269.849976 
	C115.042809,268.799988 115.521400,267.899994 116.303169,266.839203 
	C117.404434,265.119354 118.202522,263.560272 119.000305,262.000610 
	C119.000000,262.000000 119.000610,262.000000 119.314125,261.947571 
	C120.084991,261.263458 120.542343,260.631714 120.999847,260.000000 
	C121.000000,260.000000 120.999695,260.000000 121.298111,259.843292 
	C126.064354,254.457718 130.532166,249.228851 135.336548,243.933334 
	C136.115387,242.911118 136.557693,241.955551 137.341675,240.956726 
	C139.122223,239.275635 140.561111,237.637817 142.112793,235.743896 
	C142.483734,234.991882 142.741867,234.495941 143.313538,233.947510 
	C144.084732,233.263336 144.542374,232.631668 145.118896,231.789642 
	C145.439209,231.316940 145.693283,231.123840 146.317535,230.962646 
	C147.090042,229.950180 147.545029,228.975098 148.031799,227.682404 
	C148.375732,226.576523 148.687866,225.788269 149.350128,224.951355 
	C150.751328,223.704712 152.203171,222.673279 152.782471,221.279251 
	C155.006958,215.926132 157.849304,210.612946 158.825699,205.000336 
	C161.347656,190.503220 162.729691,175.810989 165.084961,161.280655 
	C166.938812,149.843658 166.708694,138.424820 165.910950,126.999840 
	C165.406311,119.772873 163.107254,112.572876 163.347290,105.418976 
	C163.604523,97.753181 165.914688,90.159058 167.285019,82.525780 
	C167.612808,80.699883 167.766632,78.842766 168.044037,76.647018 
	C169.724884,73.195930 171.362137,70.097816 173.112305,66.743660 
	C173.483490,65.991745 173.741745,65.495872 174.282303,64.849976 
	C175.043076,63.799965 175.521545,62.899982 176.262253,61.792862 
	C178.017044,58.779243 179.509583,55.972767 181.002136,53.166290 
z"/>
<path fill="#98FCFD" opacity="1.000000" stroke="none" 
	d="
M414.836060,416.987885 
	C414.651459,421.559540 414.628296,426.439545 409.986267,428.918365 
	C405.070953,431.543121 400.110077,430.034180 395.761536,427.190643 
	C389.150116,422.867462 382.824493,418.109467 376.255951,413.717865 
	C365.219147,406.338776 350.717590,409.453461 341.779266,417.722504 
	C334.144806,424.785370 326.433563,431.765320 318.103394,438.929443 
	C316.422211,438.865723 315.393890,438.654480 314.365570,438.443237 
	C314.761719,436.943848 314.680664,434.970154 315.627197,434.017822 
	C326.101898,423.478699 332.446747,410.382385 338.924469,397.320648 
	C341.477539,392.172699 344.514069,387.257751 347.470703,382.320709 
	C348.377136,380.807159 350.713989,379.593903 350.744507,378.206787 
	C350.890991,371.554077 355.961792,371.069336 360.174805,371.199646 
	C367.014435,371.411194 373.815613,372.866211 381.679352,373.939056 
	C378.229828,380.652283 383.368805,382.106201 386.167450,385.464600 
	C389.471527,389.429504 391.558441,394.182648 396.965302,396.105072 
	C399.453491,396.989685 401.608337,398.811981 405.000275,400.867004 
	C405.000275,395.255798 404.922150,391.449554 405.037079,387.649109 
	C405.086060,386.029358 405.572784,384.426666 405.800995,382.807800 
	C406.463074,378.112122 408.477936,373.086487 407.463531,368.778687 
	C405.020477,358.403809 405.164185,347.860504 403.693878,337.493378 
	C402.297699,327.648956 399.078339,318.043518 397.012665,308.216766 
	C394.132996,294.517578 387.480865,281.654633 383.258575,268.178314 
	C380.707977,260.037506 378.932373,251.480545 378.185516,242.989456 
	C377.124878,230.930908 377.359558,218.759995 376.981445,206.638947 
	C376.854645,202.573227 376.821747,198.475021 376.265076,194.458298 
	C374.998077,185.315933 373.557800,176.191299 371.843140,167.124649 
	C371.609985,165.891769 369.398712,165.033005 368.040527,163.538269 
	C368.023407,158.382996 368.069122,153.690475 368.479858,148.989227 
	C370.391235,147.661255 373.013763,146.537430 373.295074,144.988419 
	C374.428406,138.747986 376.048859,132.214615 375.231110,126.091034 
	C374.016541,116.995811 370.792664,108.178482 368.684326,99.181877 
	C368.396484,97.953529 369.608856,96.373596 370.126648,94.956451 
	C372.724396,99.866417 375.880432,104.567642 377.809601,109.727585 
	C382.569183,122.458221 386.226105,135.444138 386.091003,149.314850 
	C385.975433,161.182037 386.666504,173.057068 386.730804,185.684204 
	C386.633209,194.403824 386.771484,202.368912 387.013397,210.330841 
	C387.051270,211.578140 387.560059,212.811096 387.851074,214.050674 
	C388.233398,223.781387 389.135956,233.526230 388.871887,243.239365 
	C388.506866,256.667297 391.926025,269.288391 395.470337,281.968109 
	C399.661560,296.962280 404.455780,311.828217 407.762726,327.016724 
	C410.448486,339.352234 411.458038,352.065918 412.953430,364.642548 
	C413.880005,372.435547 414.325348,380.285797 414.666809,388.895294 
	C414.509949,398.782776 414.673004,407.885345 414.836060,416.987885 
z"/>
<path fill="#9DFDFC" opacity="1.000000" stroke="none" 
	d="
M368.103333,164.001022 
	C369.398712,165.033005 371.609985,165.891769 371.843140,167.124649 
	C373.557800,176.191299 374.998077,185.315933 376.265076,194.458298 
	C376.821747,198.475021 376.854645,202.573227 376.981445,206.638947 
	C377.359558,218.759995 377.124878,230.930908 378.185516,242.989456 
	C378.932373,251.480545 380.707977,260.037506 383.258575,268.178314 
	C387.480865,281.654633 394.132996,294.517578 397.012665,308.216766 
	C399.078339,318.043518 402.297699,327.648956 403.693878,337.493378 
	C405.164185,347.860504 405.020477,358.403809 407.463531,368.778687 
	C408.477936,373.086487 406.463074,378.112122 405.800995,382.807800 
	C405.572784,384.426666 405.086060,386.029358 405.037079,387.649109 
	C404.922150,391.449554 405.000275,395.255798 405.000275,400.867004 
	C401.608337,398.811981 399.453491,396.989685 396.965302,396.105072 
	C391.558441,394.182648 389.471527,389.429504 386.167450,385.464600 
	C383.368805,382.106201 378.229828,380.652283 381.679352,373.939056 
	C373.815613,372.866211 367.014435,371.411194 360.174805,371.199646 
	C355.961792,371.069336 350.890991,371.554077 350.744507,378.206787 
	C350.713989,379.593903 348.377136,380.807159 347.470703,382.320709 
	C344.514069,387.257751 341.477539,392.172699 338.924469,397.320648 
	C332.446747,410.382385 326.101898,423.478699 315.627197,434.017822 
	C314.680664,434.970154 314.761719,436.943848 314.365570,438.443237 
	C315.393890,438.654480 316.422211,438.865723 317.787781,439.061523 
	C313.037567,444.335419 306.432678,444.027039 299.460266,443.550201 
	C300.247253,441.269684 301.272156,439.242218 302.742676,437.618347 
	C306.044281,433.972473 309.567169,430.527039 313.340454,426.956848 
	C314.787292,425.609131 315.893646,424.304565 317.345642,422.955688 
	C319.831299,420.309937 322.728088,418.024353 323.970001,415.048187 
	C327.767517,405.947479 330.866241,396.557465 334.383972,387.336151 
	C335.202332,385.190948 337.679199,383.199524 337.554626,381.255127 
	C336.964294,372.040833 346.408295,367.925110 347.897217,359.899078 
	C347.957153,359.576172 348.763763,359.449371 349.102905,359.111298 
	C351.334534,356.886658 353.683258,354.754913 355.703156,352.348907 
	C357.981232,349.635376 359.953796,346.665344 361.760498,344.212463 
	C362.012482,342.085083 361.930359,340.057709 362.527435,338.255310 
	C364.217072,333.154694 366.678864,328.263275 367.909180,323.069794 
	C369.233551,317.479340 369.682587,312.035553 376.805084,310.378418 
	C379.948425,309.647064 379.876740,306.528473 376.641968,305.164520 
	C372.915314,303.593201 372.872803,301.526245 374.646393,298.580994 
	C375.490326,297.179535 376.544769,295.827545 377.024841,294.302368 
	C377.739532,292.032013 378.818848,289.456604 378.352844,287.313263 
	C376.960602,280.909912 373.952728,274.752380 373.276337,268.320007 
	C371.691833,253.251434 371.020477,238.083221 370.131989,222.946381 
	C369.601898,213.916000 369.452942,204.862930 368.889771,195.835205 
	C368.805023,194.477036 367.390930,193.201797 366.666046,191.462708 
	C367.194641,182.025146 367.648987,173.013077 368.103333,164.001022 
z"/>
<path fill="#98FCFD" opacity="1.000000" stroke="none" 
	d="
M180.635284,53.194160 
	C179.509583,55.972767 178.017044,58.779243 175.925690,61.859497 
	C174.884598,63.088844 174.442291,64.044418 174.000000,65.000000 
	C173.741745,65.495872 173.483490,65.991745 172.767029,66.788742 
	C163.614792,73.615799 161.388214,83.758881 158.159470,93.184105 
	C156.412399,98.284103 155.296738,103.852333 155.230225,109.225845 
	C155.071121,122.078552 156.490753,134.982483 155.817825,147.789276 
	C154.945358,164.394089 153.055023,180.978363 150.814423,197.464325 
	C149.713028,205.568161 148.201736,214.152634 144.455032,221.239731 
	C138.234970,233.005249 130.020355,243.711426 122.762573,254.939240 
	C121.820312,256.396942 121.570343,258.302094 120.999695,260.000000 
	C120.999695,260.000000 121.000000,260.000000 120.686340,260.052490 
	C119.915321,260.736633 119.457962,261.368317 119.000610,262.000000 
	C119.000610,262.000000 119.000000,262.000000 118.638115,262.054749 
	C117.517487,263.739655 116.758743,265.369843 115.663437,267.066589 
	C114.884415,268.088806 114.441956,269.044403 113.999496,270.000000 
	C113.875465,270.306519 113.682358,270.560516 112.873398,270.947632 
	C111.884209,272.088806 111.441795,273.044403 110.999382,273.999969 
	C107.506752,278.196411 104.014114,282.392883 99.918945,286.837891 
	C97.877800,288.724274 96.439201,290.362122 95.000603,292.000000 
	C95.000610,292.000000 95.000000,292.000000 94.701324,292.157166 
	C88.026741,301.590363 81.538490,310.791626 75.300339,320.159424 
	C65.061653,335.534790 55.460762,351.153229 53.316422,370.191254 
	C52.479610,377.620667 57.823528,385.959351 64.200706,384.807495 
	C69.883209,383.781036 75.654739,382.279694 80.879570,379.882202 
	C92.934830,374.350433 104.520607,367.786987 116.621017,362.365662 
	C122.872490,359.564850 129.716370,357.466095 136.483566,356.666595 
	C140.617371,356.178162 146.082916,357.590790 149.242935,360.209717 
	C155.542526,365.430634 161.465988,370.949005 163.192429,380.338837 
	C164.351715,386.644043 165.497086,392.917755 164.846100,399.029968 
	C162.867188,417.610077 164.446976,435.321075 174.059769,451.809387 
	C174.556412,452.661255 173.397400,454.478394 173.009232,455.846100 
	C169.747986,454.149323 166.486755,452.452515 163.092941,450.034454 
	C161.603821,444.017853 159.774475,438.791931 158.984589,433.413391 
	C157.063324,420.330750 155.940170,407.126495 153.840851,394.076569 
	C152.965469,388.634979 151.425369,382.800873 148.448227,378.294250 
	C140.773987,366.677399 127.945824,366.916351 116.907372,370.417633 
	C114.899498,371.054504 113.614349,373.969971 111.995552,375.833527 
	C101.182335,378.926239 90.352570,381.962585 79.561279,385.129974 
	C71.249840,387.569458 63.026337,390.313995 54.691288,392.666168 
	C45.909199,395.144501 39.249264,388.238525 40.883629,379.173706 
	C44.789570,357.509766 54.841515,338.657867 66.129829,320.097717 
	C77.243958,301.823914 90.998451,285.674866 104.794754,269.218994 
	C105.858902,268.878784 106.430206,268.440002 107.368759,267.992981 
	C108.894310,267.197296 110.344666,266.635590 111.158852,265.582184 
	C114.197006,261.651398 117.296478,257.724091 119.878342,253.493652 
	C125.302536,244.605942 131.479202,235.966599 135.412842,226.427719 
	C141.903397,210.688431 141.944031,193.487015 143.958740,176.786804 
	C145.105545,167.280838 146.121353,157.741074 146.671341,148.186325 
	C147.182129,139.312775 146.896240,130.396179 147.157928,121.504326 
	C147.293381,116.901970 147.285324,112.174866 148.351395,107.747124 
	C150.207077,100.039787 152.926315,92.543556 155.064087,84.897476 
	C155.378860,83.771568 154.490158,82.309181 154.158295,81.002472 
	C161.707260,72.236824 169.221741,63.440876 176.859467,54.753254 
	C177.607956,53.901878 179.113998,53.716522 180.635284,53.194160 
z"/>
<path fill="#9DFDFC" opacity="1.000000" stroke="none" 
	d="
M173.368774,456.027954 
	C173.397400,454.478394 174.556412,452.661255 174.059769,451.809387 
	C164.446976,435.321075 162.867188,417.610077 164.846100,399.029968 
	C165.497086,392.917755 164.351715,386.644043 163.192429,380.338837 
	C161.465988,370.949005 155.542526,365.430634 149.242935,360.209717 
	C146.082916,357.590790 140.617371,356.178162 136.483566,356.666595 
	C129.716370,357.466095 122.872490,359.564850 116.621017,362.365662 
	C104.520607,367.786987 92.934830,374.350433 80.879570,379.882202 
	C75.654739,382.279694 69.883209,383.781036 64.200706,384.807495 
	C57.823528,385.959351 52.479610,377.620667 53.316422,370.191254 
	C55.460762,351.153229 65.061653,335.534790 75.300339,320.159424 
	C81.538490,310.791626 88.026741,301.590363 94.701569,292.157288 
	C93.046211,295.761658 91.422798,299.744324 89.080811,303.246460 
	C78.484840,319.091278 67.761490,334.883148 61.632351,353.123657 
	C59.980621,358.039276 59.621201,363.437714 59.046623,368.656128 
	C57.989353,378.258423 63.140705,379.220428 70.900192,378.156281 
	C77.008514,377.318573 82.784248,373.499878 88.523438,370.635986 
	C102.876274,363.473785 116.956474,355.740936 131.490479,348.977142 
	C138.028275,345.934570 145.392639,346.260803 152.401749,348.724701 
	C154.872665,349.593323 157.755981,349.881439 159.765869,351.363617 
	C167.396561,356.990906 174.000214,363.373260 173.165222,374.148071 
	C172.990555,376.401764 173.566147,378.763428 174.076599,381.011627 
	C176.197433,390.352173 175.162598,399.818756 175.642075,409.193207 
	C176.170639,419.527008 176.657242,430.380005 181.947906,440.074890 
	C185.480789,446.548737 192.009460,448.014008 197.503082,442.997040 
	C205.857880,435.367157 214.302994,427.865997 225.910324,424.305420 
	C228.252655,425.799316 232.127045,423.527985 231.996994,427.840149 
	C220.950943,431.232422 214.190918,440.541260 205.467850,447.130371 
	C196.005325,454.278046 186.211914,459.826202 173.368774,456.027954 
z"/>
<path fill="#91F8FC" opacity="1.000000" stroke="none" 
	d="
M154.081955,81.214554 
	C154.490158,82.309181 155.378860,83.771568 155.064087,84.897476 
	C152.926315,92.543556 150.207077,100.039787 148.351395,107.747124 
	C147.285324,112.174866 147.293381,116.901970 147.157928,121.504326 
	C146.896240,130.396179 147.182129,139.312775 146.671341,148.186325 
	C146.121353,157.741074 145.105545,167.280838 143.958740,176.786804 
	C141.944031,193.487015 141.903397,210.688431 135.412842,226.427719 
	C131.479202,235.966599 125.302536,244.605942 119.878342,253.493652 
	C117.296478,257.724091 114.197006,261.651398 111.158852,265.582184 
	C110.344666,266.635590 108.894310,267.197296 107.368004,267.992371 
	C107.000000,268.000000 106.999298,267.999512 106.999176,267.642456 
	C106.978012,266.810211 106.956970,266.335022 106.935928,265.859833 
	C107.273560,265.418274 107.611198,264.976746 108.357361,264.204102 
	C109.146408,263.218689 109.526924,262.564362 109.907440,261.910034 
	C109.907440,261.910034 109.995407,261.979034 110.174088,261.850647 
	C110.549072,261.450989 110.745369,261.179779 110.941673,260.908539 
	C110.941673,260.908539 110.986923,260.979797 111.177742,260.844421 
	C111.560745,260.429077 111.752930,260.149139 111.945114,259.869171 
	C113.823639,256.551605 115.374512,252.987808 117.645721,249.965332 
	C123.163193,242.622818 125.868286,234.064407 126.799011,225.350449 
	C128.509506,209.335892 129.038467,193.193176 129.982391,177.099350 
	C130.715714,164.595993 130.612747,151.995468 132.170273,139.600067 
	C134.410248,121.773392 138.454025,104.315155 149.212082,89.248680 
	C150.233109,87.818748 150.983017,86.195229 152.315704,84.265442 
	C153.167114,83.204430 153.561615,82.539566 153.956116,81.874702 
	C153.956116,81.874702 154.005615,81.426628 154.081955,81.214554 
z"/>
<path fill="#91F8FC" opacity="1.000000" stroke="none" 
	d="
M112.379524,375.910431 
	C113.614349,373.969971 114.899498,371.054504 116.907372,370.417633 
	C127.945824,366.916351 140.773987,366.677399 148.448227,378.294250 
	C151.425369,382.800873 152.965469,388.634979 153.840851,394.076569 
	C155.940170,407.126495 157.063324,420.330750 158.984589,433.413391 
	C159.774475,438.791931 161.603821,444.017853 162.958618,449.713074 
	C158.015198,445.302368 153.073517,440.491791 148.338226,435.179474 
	C148.946274,433.018982 149.877884,431.282684 149.648590,429.716309 
	C149.005112,425.320465 147.808609,421.009094 146.965118,416.638367 
	C145.249420,407.748169 143.493225,398.862488 141.997284,389.934143 
	C140.666168,381.989532 132.091110,374.602600 123.956902,375.260651 
	C122.528908,375.376190 121.285599,377.774841 119.956993,379.119080 
	C117.559158,378.075165 115.161324,377.031250 112.379524,375.910431 
z"/>
<path fill="#9FFCFC" opacity="1.000000" stroke="none" 
	d="
M370.067444,94.610779 
	C369.608856,96.373596 368.396484,97.953529 368.684326,99.181877 
	C370.792664,108.178482 374.016541,116.995811 375.231110,126.091034 
	C376.048859,132.214615 374.428406,138.747986 373.295074,144.988419 
	C373.013763,146.537430 370.391235,147.661255 368.420288,148.543640 
	C368.030457,140.016052 366.902100,132.357849 359.927551,126.543098 
	C358.718842,125.247467 357.662323,124.225533 356.944946,123.037476 
	C358.883698,120.783638 361.249939,118.923820 361.949982,116.568741 
	C364.967804,106.415993 361.375305,96.708252 357.538208,87.815697 
	C353.870392,79.315430 347.641785,71.921051 342.547729,64.034821 
	C340.366760,60.658398 338.208313,57.267410 336.039642,53.883034 
	C340.355713,57.446457 344.720612,60.953342 348.956116,64.610085 
	C350.123413,65.617874 350.904785,67.072678 351.679626,68.697945 
	C351.311920,69.833702 350.708740,70.894714 351.006287,71.309219 
	C355.909058,78.139542 360.911957,84.898521 365.988922,91.600395 
	C366.122253,91.776367 367.339355,91.131332 368.051025,90.869186 
	C368.703430,92.001160 369.355835,93.133133 370.067444,94.610779 
z"/>
<path fill="#91EDFD" opacity="1.000000" stroke="none" 
	d="
M120.107880,379.439484 
	C121.285599,377.774841 122.528908,375.376190 123.956902,375.260651 
	C132.091110,374.602600 140.666168,381.989532 141.997284,389.934143 
	C143.493225,398.862488 145.249420,407.748169 146.965118,416.638367 
	C147.808609,421.009094 149.005112,425.320465 149.648590,429.716309 
	C149.877884,431.282684 148.946274,433.018982 148.212708,434.865234 
	C144.500305,431.146759 141.082153,427.272552 137.747528,423.327698 
	C131.770035,416.256378 131.753113,407.275482 129.980286,398.853333 
	C128.459000,391.626038 126.331413,384.681702 120.107880,379.439484 
z"/>
<path fill="#A8FDFD" opacity="1.000000" stroke="none" 
	d="
M335.897339,53.553131 
	C338.208313,57.267410 340.366760,60.658398 342.547729,64.034821 
	C347.641785,71.921051 353.870392,79.315430 357.538208,87.815697 
	C361.375305,96.708252 364.967804,106.415993 361.949982,116.568741 
	C361.249939,118.923820 358.883698,120.783638 356.614197,122.961990 
	C353.961456,122.436295 351.978699,121.819969 349.572357,121.100906 
	C347.135101,121.119911 345.121368,121.241661 343.110077,120.994141 
	C346.179932,116.228378 347.797211,110.948364 350.321838,106.537476 
	C354.809845,98.696060 352.400970,91.687210 350.625671,84.727631 
	C347.919617,74.119102 340.591797,65.802582 333.761871,57.552753 
	C330.603363,53.737637 325.965790,51.147064 321.998779,48.001308 
	C321.998779,48.001312 322.000000,48.000000 321.953003,47.656033 
	C320.270264,44.930630 318.634491,42.549198 316.998718,40.167767 
	C323.250824,44.519588 329.502930,48.871407 335.897339,53.553131 
z"/>
<path fill="#9FFCFC" opacity="1.000000" stroke="none" 
	d="
M232.315842,427.854553 
	C232.127045,423.527985 228.252655,425.799316 226.269058,424.259888 
	C230.739151,422.834381 235.431686,420.999329 240.228745,420.665131 
	C246.888245,420.201233 253.781693,420.048920 260.283752,421.289551 
	C265.972168,422.374969 271.279327,425.519470 276.716400,427.844391 
	C282.284210,430.225250 287.631287,433.393982 293.418549,434.877838 
	C296.408417,435.644409 300.316956,433.912567 303.492767,432.562408 
	C306.634857,431.226593 309.377197,428.950500 312.647461,427.043427 
	C309.567169,430.527039 306.044281,433.972473 302.742676,437.618347 
	C301.272156,439.242218 300.247253,441.269684 299.010193,443.474487 
	C296.931000,443.555511 294.861786,443.276062 292.332245,442.617310 
	C290.564117,441.867157 289.256287,441.496246 287.948456,441.125366 
	C286.369263,440.334412 284.790100,439.543457 282.961670,438.203857 
	C282.434814,437.457581 282.157227,437.259949 281.879608,437.062317 
	C280.456207,436.074341 279.032806,435.086395 277.159454,433.792023 
	C276.484100,433.274780 276.219360,433.143066 275.915222,433.090454 
	C275.915222,433.090454 275.967987,432.994781 275.835205,432.816101 
	C275.428314,432.447266 275.154144,432.257111 274.879974,432.066956 
	C274.121765,431.743225 273.363556,431.419495 272.222107,430.633484 
	C270.194061,429.472870 268.549255,428.774475 266.904419,428.076050 
	C266.904419,428.076050 266.988190,428.022491 266.906433,427.902771 
	C266.553802,427.803955 266.282928,427.824860 266.012054,427.845795 
	C265.216614,427.601807 264.421204,427.357788 263.293884,426.764404 
	C262.624573,426.317322 262.287170,426.219543 261.949799,426.121765 
	C261.949799,426.121765 261.468811,425.997498 261.183289,425.641174 
	C260.247498,425.231415 259.597260,425.177948 258.947021,425.124512 
	C258.511810,425.078918 258.076569,425.033356 257.260101,424.615723 
	C255.923721,424.109314 254.968597,423.974976 254.013474,423.840607 
	C251.298889,423.889587 248.584290,423.938599 245.203613,423.708435 
	C243.691696,423.898926 242.845871,424.368591 242.000031,424.838196 
	C241.548538,424.887573 241.097031,424.936951 240.122528,424.734375 
	C239.066193,424.934998 238.532883,425.387573 237.999573,425.840149 
	C237.549179,425.889130 237.098770,425.938080 236.191986,425.797394 
	C235.508423,425.779633 235.281219,425.951447 235.054016,426.123291 
	C234.247574,426.705200 233.441132,427.287079 232.315842,427.854553 
z"/>
<path fill="#98FCFD" opacity="1.000000" stroke="none" 
	d="
M368.035461,90.506783 
	C367.339355,91.131332 366.122253,91.776367 365.988922,91.600395 
	C360.911957,84.898521 355.909058,78.139542 351.006287,71.309219 
	C350.708740,70.894714 351.311920,69.833702 351.810974,69.016769 
	C359.390411,74.546112 363.434662,82.548164 368.035461,90.506783 
z"/>
<path fill="#ACFDFD" opacity="1.000000" stroke="none" 
	d="
M316.658264,40.008743 
	C318.634491,42.549198 320.270264,44.930630 321.952393,47.656563 
	C320.318207,47.157650 318.555267,46.444645 316.973083,45.445454 
	C312.828918,42.828312 308.704559,40.170120 304.699188,37.348206 
	C303.308472,36.368397 302.290436,34.859711 301.073059,33.238274 
	C306.135223,35.205883 311.226501,37.527802 316.658264,40.008743 
z"/>
<path fill="#ACFDFD" opacity="1.000000" stroke="none" 
	d="
M414.921600,416.566895 
	C414.673004,407.885345 414.509949,398.782776 414.592590,389.349060 
	C415.223999,396.348236 415.686279,403.675934 415.938141,411.010834 
	C415.996521,412.709869 415.336578,414.433533 414.921600,416.566895 
z"/>
<path fill="#ACFDFD" opacity="1.000000" stroke="none" 
	d="
M215.508545,31.975540 
	C216.039230,32.641174 216.525787,33.762585 216.286636,33.948006 
	C213.161240,36.371277 209.933136,38.662102 206.516205,40.702942 
	C206.851654,38.575073 207.401779,36.730488 207.951904,34.885906 
	C210.343643,33.922688 212.735367,32.959469 215.508545,31.975540 
z"/>
<path fill="#B8FDFC" opacity="1.000000" stroke="none" 
	d="
M387.925293,213.581451 
	C387.560059,212.811096 387.051270,211.578140 387.013397,210.330841 
	C386.771484,202.368912 386.633209,194.403824 386.753052,186.142715 
	C387.375488,187.834198 387.960541,189.818939 387.990112,191.811951 
	C388.095398,198.910507 388.011688,206.011902 387.925293,213.581451 
z"/>
<path fill="#B8FDFC" opacity="1.000000" stroke="none" 
	d="
M272.077759,25.510784 
	C262.564423,25.769423 252.994247,25.589701 243.164825,25.147614 
	C245.233093,24.581057 247.556168,24.062267 249.888931,24.014380 
	C255.995621,23.889023 262.107635,23.907728 268.214844,24.017813 
	C269.489471,24.040785 270.752533,24.704166 272.077759,25.510784 
z"/>
<path fill="#A4FDFD" opacity="1.000000" stroke="none" 
	d="
M195.000610,47.000595 
	C194.999573,45.939816 194.998535,44.879032 195.219543,43.255878 
	C195.628998,42.181931 195.816406,41.670357 196.003815,41.158787 
	C196.003815,41.158787 196.432434,41.010517 196.970459,40.954880 
	C198.007019,40.318935 198.505539,39.738625 199.004059,39.158318 
	C199.004074,39.158321 199.471008,39.004292 199.837921,39.100788 
	C200.470413,38.852936 200.735992,38.508587 201.001556,38.164234 
	C201.001556,38.164234 201.470337,38.004749 201.845032,38.228302 
	C202.813156,39.301182 203.406586,40.150513 203.819870,41.231224 
	C203.093369,41.641937 202.546982,41.821274 201.663544,42.042068 
	C199.551193,43.722553 197.775909,45.361584 195.750610,47.000717 
	C195.333939,47.000744 195.167282,47.000668 195.000610,47.000595 
z"/>
<path fill="#A8FDFD" opacity="1.000000" stroke="none" 
	d="
M204.000000,40.999847 
	C203.406586,40.150513 202.813156,39.301182 202.085663,38.170105 
	C203.715042,36.923107 205.478470,35.957855 207.596909,34.939255 
	C207.401779,36.730488 206.851654,38.575073 206.151062,40.710224 
	C206.000610,41.000790 206.000000,41.000000 205.666870,41.000122 
	C204.889145,41.000114 204.444580,40.999981 204.000000,40.999847 
z"/>
<path fill="#A1FDFD" opacity="1.000000" stroke="none" 
	d="
M288.089783,441.440979 
	C289.256287,441.496246 290.564117,441.867157 291.935730,442.537750 
	C290.743408,442.477173 289.487244,442.116882 288.089783,441.440979 
z"/>
<path fill="#A1FDFD" opacity="1.000000" stroke="none" 
	d="
M267.046783,428.389343 
	C268.549255,428.774475 270.194061,429.472870 271.919830,430.507050 
	C270.396881,430.129425 268.793030,429.416016 267.046783,428.389343 
z"/>
<path fill="#A1FDFD" opacity="1.000000" stroke="none" 
	d="
M254.322083,423.979919 
	C254.968597,423.974976 255.923721,424.109314 256.939575,424.541504 
	C256.210449,424.599304 255.420563,424.359253 254.322083,423.979919 
z"/>
<path fill="#A1FDFD" opacity="1.000000" stroke="none" 
	d="
M242.328873,424.913757 
	C242.845871,424.368591 243.691696,423.898926 244.756012,423.637146 
	C244.202225,424.226440 243.429977,424.607880 242.328873,424.913757 
z"/>
<path fill="#A1FDFD" opacity="1.000000" stroke="none" 
	d="
M259.063751,425.418427 
	C259.597260,425.177948 260.247498,425.231415 260.948486,425.560181 
	C260.392975,425.794403 259.786743,425.753357 259.063751,425.418427 
z"/>
<path fill="#91F8FC" opacity="1.000000" stroke="none" 
	d="
M107.000748,268.000610 
	C106.430206,268.440002 105.858902,268.878784 105.115585,269.092377 
	C104.943558,268.867188 105.003937,268.423096 105.386795,268.212646 
	C106.179535,268.001282 106.589417,268.000397 106.999298,267.999512 
	C106.999298,267.999512 107.000000,268.000000 107.000748,268.000610 
z"/>
<path fill="#98FCFD" opacity="1.000000" stroke="none" 
	d="
M153.670868,81.981308 
	C153.561615,82.539566 153.167114,83.204430 152.465088,83.936028 
	C152.566925,83.364479 152.976273,82.726189 153.670868,81.981308 
z"/>
<path fill="#A1FDFD" opacity="1.000000" stroke="none" 
	d="
M238.293732,425.871765 
	C238.532883,425.387573 239.066193,424.934998 239.787537,424.662231 
	C239.513016,425.195831 239.050446,425.549622 238.293732,425.871765 
z"/>
<path fill="#A8FDFD" opacity="1.000000" stroke="none" 
	d="
M198.700424,39.130054 
	C198.505539,39.738625 198.007019,40.318935 197.195679,40.928322 
	C197.387497,40.338860 197.892151,39.720329 198.700424,39.130054 
z"/>
<path fill="#A8FDFD" opacity="1.000000" stroke="none" 
	d="
M195.699707,41.130680 
	C195.816406,41.670357 195.628998,42.181931 195.216125,42.857876 
	C194.805222,43.011181 194.619797,43.000118 194.156189,42.972946 
	C194.383881,42.338749 194.889740,41.720661 195.699707,41.130680 
z"/>
<path fill="#98FCFD" opacity="1.000000" stroke="none" 
	d="
M109.627136,262.013092 
	C109.526924,262.564362 109.146408,263.218689 108.461853,263.937408 
	C108.554153,263.373260 108.950493,262.744690 109.627136,262.013092 
z"/>
<path fill="#98FCFD" opacity="1.000000" stroke="none" 
	d="
M106.999176,267.642456 
	C106.589417,268.000397 106.179535,268.001282 105.462234,268.001648 
	C105.561523,267.363617 105.968224,266.726135 106.655426,265.974243 
	C106.956970,266.335022 106.978012,266.810211 106.999176,267.642456 
z"/>
<path fill="#A1FDFD" opacity="1.000000" stroke="none" 
	d="
M262.022583,426.371582 
	C262.287170,426.219543 262.624573,426.317322 262.981384,426.627472 
	C262.699005,426.767059 262.397186,426.694244 262.022583,426.371582 
z"/>
<path fill="#A8FDFD" opacity="1.000000" stroke="none" 
	d="
M200.746918,38.106445 
	C200.735992,38.508587 200.470413,38.852936 200.076843,39.042889 
	C200.129990,38.608543 200.311127,38.328598 200.746918,38.106445 
z"/>
<path fill="#98FCFD" opacity="1.000000" stroke="none" 
	d="
M111.685669,259.950867 
	C111.752930,260.149139 111.560745,260.429077 111.138466,260.828979 
	C111.080994,260.643494 111.253609,260.338043 111.685669,259.950867 
z"/>
<path fill="#A1FDFD" opacity="1.000000" stroke="none" 
	d="
M235.289246,426.067017 
	C235.281219,425.951447 235.508423,425.779633 235.857544,425.727081 
	C235.979446,425.846375 235.524475,426.010742 235.289246,426.067017 
z"/>
<path fill="#A1FDFD" opacity="1.000000" stroke="none" 
	d="
M266.238647,427.927521 
	C266.282928,427.824860 266.553802,427.803955 266.880737,427.945312 
	C266.936798,428.107605 266.465210,428.009277 266.238647,427.927521 
z"/>
<path fill="#98FCFD" opacity="1.000000" stroke="none" 
	d="
M110.680267,260.974182 
	C110.745369,261.179779 110.549072,261.450989 110.122124,261.830109 
	C110.067268,261.638611 110.243065,261.339203 110.680267,260.974182 
z"/>
<path fill="#A1FDFD" opacity="1.000000" stroke="none" 
	d="
M274.955902,432.323364 
	C275.154144,432.257111 275.428314,432.447266 275.816284,432.865814 
	C275.630676,432.922729 275.331268,432.751282 274.955902,432.323364 
z"/>
<path fill="#A1FDFD" opacity="1.000000" stroke="none" 
	d="
M275.992981,433.342377 
	C276.219360,433.143066 276.484100,433.274780 276.845337,433.664001 
	C276.677673,433.759674 276.374207,433.676971 275.992981,433.342377 
z"/>
<path fill="#A1FDFD" opacity="1.000000" stroke="none" 
	d="
M281.958374,437.321167 
	C282.157227,437.259949 282.434814,437.457581 282.824310,437.888733 
	C282.636505,437.941498 282.336823,437.760742 281.958374,437.321167 
z"/>
<path fill="#ACFDFD" opacity="1.000000" stroke="none" 
	d="
M194.881561,47.210880 
	C195.167282,47.000668 195.333939,47.000744 196.125641,47.000618 
	C197.500824,47.000538 198.250977,47.000648 199.001129,47.000763 
	C198.376801,48.135284 197.964737,49.475861 197.094849,50.371998 
	C189.583572,58.109921 186.148453,68.055618 182.472931,77.788467 
	C181.637405,80.001007 182.486160,83.014366 183.037857,85.555290 
	C184.732056,93.358047 186.518967,101.148033 188.598892,108.854164 
	C189.078445,110.630920 191.214081,111.902573 191.990372,113.669121 
	C193.764496,117.706261 197.474365,121.106827 195.332474,126.508804 
	C194.600800,128.354141 196.658600,131.156281 196.928467,133.578430 
	C197.523804,138.921600 197.685303,144.312851 198.268066,149.657852 
	C198.419464,151.046448 199.609253,152.290192 200.079971,153.682312 
	C201.025848,156.479782 203.413422,159.389008 199.759369,162.061844 
	C199.414001,162.314453 199.093964,162.979614 199.170639,163.373810 
	C200.098694,168.144455 199.972153,173.600372 202.374710,177.482620 
	C205.381210,182.340759 204.517624,186.731140 203.967285,191.493744 
	C203.895782,192.112488 203.018707,192.933212 203.205750,193.242523 
	C206.039810,197.929184 205.320724,202.770233 204.831680,207.931168 
	C204.412781,212.351761 206.351028,216.945023 206.466446,221.481781 
	C206.572449,225.648666 209.038940,230.103455 205.646210,234.156326 
	C205.500107,234.330887 206.945175,236.495789 207.968018,236.876526 
	C212.368134,238.514435 213.293701,241.006439 210.955109,245.237122 
	C210.492828,246.073441 210.308151,247.710693 210.804489,248.326599 
	C214.657410,253.107590 213.103638,258.577484 213.472214,263.912170 
	C213.694855,267.134766 216.154739,270.221039 217.688980,273.329285 
	C219.018600,276.022949 220.460342,278.661224 222.024155,281.652313 
	C224.305679,281.830994 229.223404,280.148407 225.796295,286.164551 
	C225.477936,286.723419 227.394730,289.604614 228.470825,289.731171 
	C233.757111,290.352875 235.277267,294.316681 236.992538,298.632629 
	C233.564651,297.794006 230.129303,296.587982 226.693954,295.381989 
	C226.367371,295.718994 226.040787,296.056000 225.714203,296.393005 
	C227.023743,297.724518 228.599762,298.887054 229.577408,300.428986 
	C230.889511,302.498474 232.815262,304.973602 232.595505,307.078064 
	C231.771484,314.969208 233.737503,317.962585 241.521378,316.684204 
	C247.106110,315.766937 248.027954,317.727386 247.244583,322.834381 
	C248.962128,322.834381 250.982025,323.446869 251.732193,322.730255 
	C255.322144,319.300720 259.383942,320.864807 263.389923,320.934998 
	C266.266235,320.985413 268.133148,321.298523 268.191345,324.905243 
	C268.212280,326.202179 270.042145,327.469879 271.046448,328.750946 
	C272.355133,327.457428 273.766632,326.250000 274.942230,324.845123 
	C276.021271,323.555634 276.563171,321.671448 277.841736,320.724365 
	C280.480194,318.769928 283.451813,317.265198 287.759430,314.697327 
	C282.143646,310.530457 277.819214,307.321747 273.494781,304.113037 
	C273.551758,303.701508 273.608765,303.289978 273.665741,302.878418 
	C276.352112,303.302002 279.172974,303.347687 281.690979,304.244171 
	C284.882629,305.380585 287.546295,305.422028 289.762451,302.670898 
	C291.749969,300.203674 293.234955,297.817444 289.940369,294.942932 
	C289.071472,294.184814 289.224274,291.844666 289.455200,290.313477 
	C290.174469,285.543793 288.869720,284.197693 283.850983,284.482788 
	C282.550354,284.556671 280.746033,284.163635 279.951965,283.282867 
	C276.735321,279.714966 273.784698,275.901978 270.870575,272.076782 
	C270.643585,271.778839 271.456421,270.688782 272.385468,270.079529 
	C278.042664,275.364075 282.996857,280.708954 291.388550,281.074585 
	C293.140198,281.219299 294.496948,281.259399 296.121643,281.443604 
	C297.595337,281.396759 298.801117,281.205750 300.401917,281.058136 
	C304.133240,280.041962 307.469513,278.982422 311.234070,277.946350 
	C313.538452,277.480774 315.455048,277.108612 317.281799,276.476807 
	C320.494537,275.365601 324.038544,276.871735 323.764221,279.585907 
	C323.362335,283.562622 322.148529,287.468781 321.885895,291.445007 
	C321.585510,295.992920 322.002502,300.598846 317.474365,303.542999 
	C317.308044,303.651123 317.268036,304.250244 317.404236,304.483124 
	C320.231842,309.318573 319.225403,313.281281 314.819397,316.592773 
	C314.375610,316.926331 314.356232,317.805695 314.105286,318.417542 
	C310.396271,327.460449 306.619995,336.476654 303.025269,345.564697 
	C302.388885,347.173584 301.691162,349.593323 302.423950,350.751251 
	C304.573853,354.148407 303.033905,356.193665 300.963165,358.663025 
	C299.693665,360.176910 298.082550,362.456055 298.385712,364.058319 
	C299.844879,371.769989 295.189941,378.004150 293.918732,385.010956 
	C293.816406,385.574982 293.195984,386.136749 292.682404,386.520264 
	C287.655701,390.274261 282.164978,392.542389 275.744904,391.377594 
	C272.059998,390.709045 268.373199,391.283386 264.986084,387.939423 
	C262.751007,385.732971 258.727509,382.385559 254.322815,385.673492 
	C253.931183,385.965790 253.063416,385.570465 252.418335,385.581879 
	C250.111877,385.622650 247.750717,385.407074 245.511978,385.828644 
	C241.298630,386.621979 237.181076,387.927032 232.965378,388.702362 
	C231.990967,388.881561 230.273529,388.084595 229.763077,387.223877 
	C226.511002,381.739929 222.883774,376.346558 220.644623,370.443665 
	C219.316208,366.941681 218.112305,364.403839 214.685150,362.647675 
	C212.281509,361.416077 211.198029,359.049744 213.875305,356.579529 
	C214.676224,355.840515 215.205170,354.806793 216.029541,353.673187 
	C212.867630,351.799072 209.990295,350.093628 206.843216,348.228333 
	C207.861649,346.908661 208.778687,346.219910 208.988846,345.358673 
	C209.760635,342.195801 210.715393,338.972504 210.690979,335.778900 
	C210.682693,334.697113 207.842987,333.771881 206.555862,332.511047 
	C205.857056,331.826508 205.149490,330.422485 205.387421,329.623352 
	C207.655502,322.005585 199.194641,315.900909 202.444595,308.205261 
	C202.482010,308.116699 202.242645,307.939911 202.204117,307.786346 
	C201.095245,303.367096 199.441467,299.909210 194.929596,297.233246 
	C190.549118,294.635193 187.019791,292.376984 181.741791,294.048096 
	C179.786621,294.667145 177.016953,294.226501 175.124725,293.269104 
	C167.055786,289.186615 167.191437,289.107819 161.427444,295.747192 
	C160.590805,296.710876 157.895248,297.601257 157.527191,297.195312 
	C153.391724,292.633820 152.007233,296.518677 150.328323,299.365021 
	C148.769409,302.007904 147.341751,304.728241 145.765396,307.578888 
	C143.375427,307.578888 140.293457,306.780823 137.906891,307.730408 
	C131.088394,310.443481 129.941223,310.251953 126.272110,303.291840 
	C128.504135,300.604858 130.731445,297.923523 132.464142,295.837616 
	C128.866989,296.461670 124.433495,297.230804 120.007980,297.629028 
	C122.250961,293.272247 124.145660,289.363586 119.590668,285.508698 
	C119.215683,285.191345 119.945412,282.931732 120.700371,282.021057 
	C125.081490,276.736206 129.659210,271.615021 134.096634,266.375946 
	C136.210297,263.880402 138.044739,261.143127 140.219208,258.705872 
	C142.264145,256.413788 144.456375,254.208862 146.831024,252.268066 
	C149.064468,250.442719 152.055756,249.410599 153.955368,247.335388 
	C160.185318,240.529648 166.331070,233.611832 172.007156,226.344955 
	C176.750763,220.271912 181.342758,214.023819 180.163269,205.316055 
	C179.698318,201.883514 181.061523,198.203140 181.593552,194.635818 
	C182.389862,189.296310 183.257599,183.966202 183.960754,178.614471 
	C184.467300,174.759171 185.034363,170.877960 185.073410,167.003265 
	C185.128082,161.577209 184.643768,156.147842 184.540070,150.717041 
	C184.497208,148.472702 184.824875,146.219391 185.016373,143.972916 
	C185.388412,139.608124 186.728729,135.076248 185.984711,130.914520 
	C184.046707,120.073929 181.024124,109.432709 178.757629,98.644012 
	C175.860733,84.854530 178.208801,71.980927 186.166489,60.193409 
	C187.419556,58.337280 188.070999,56.075008 189.341019,53.957188 
	C190.787613,52.609337 191.893814,51.304825 193.112915,49.744232 
	C193.483887,48.992153 193.741943,48.496155 194.000000,48.000153 
	C194.306763,47.876427 194.560928,47.683430 194.881561,47.210880 
z"/>
<path fill="#B8FDFC" opacity="1.000000" stroke="none" 
	d="
M307.937744,105.339073 
	C304.286041,106.735443 300.968567,107.925095 297.640717,109.085175 
	C296.876953,109.351418 295.780151,109.957245 295.339996,109.660393 
	C289.741302,105.884399 284.485046,110.324394 279.054626,110.339424 
	C276.226593,110.347252 273.439178,112.032776 270.559937,112.557259 
	C269.316620,112.783745 266.868744,112.253166 266.704498,111.617668 
	C265.437531,106.715942 261.031677,107.012260 257.667969,106.120079 
	C252.015381,104.620796 246.197479,103.716759 240.417984,102.747940 
	C239.277191,102.556702 237.996475,103.415245 236.779221,103.418732 
	C234.539215,103.425148 232.180984,103.548599 230.082138,102.920837 
	C225.595428,101.578873 221.269882,99.705811 216.813797,98.247505 
	C215.847961,97.931419 214.610474,98.445419 212.915802,98.646011 
	C213.069855,92.576187 202.107269,91.810036 206.632538,83.758980 
	C200.830887,75.979469 200.445633,64.830116 205.637970,56.588062 
	C207.053116,54.341759 208.194565,51.917339 209.677551,49.720425 
	C216.160751,40.116138 225.604111,35.195610 236.694656,33.106007 
	C241.731689,32.156960 246.815674,31.348700 251.915085,30.859932 
	C265.625793,29.545794 279.097870,30.746662 291.589020,36.908897 
	C301.448029,41.772617 310.959900,47.794998 317.093292,57.010181 
	C321.359924,63.420712 324.734924,70.930656 321.554840,79.527611 
	C320.035980,83.633728 318.884583,88.343285 319.327026,92.596397 
	C319.970520,98.782257 316.052643,100.568977 312.062714,102.853691 
	C310.784180,103.585785 309.532257,104.364326 307.937744,105.339073 
z"/>
<path fill="#416B8B" opacity="1.000000" stroke="none" 
	d="
M225.139542,187.854126 
	C220.096359,183.063736 217.928436,177.656143 218.171585,170.897690 
	C218.707748,155.994827 218.695755,141.073135 219.074097,126.163353 
	C219.277115,118.162888 229.601242,108.950645 239.203995,108.120270 
	C250.497070,107.143730 259.941345,110.646004 265.874054,120.729668 
	C267.722046,123.870705 269.061279,127.844185 269.070496,131.440598 
	C269.108063,146.081055 268.976013,160.751495 268.026672,175.353668 
	C267.474121,183.852783 262.313477,190.189621 254.414658,193.600510 
	C243.629562,198.257767 233.849136,196.392151 225.139542,187.854126 
z"/>
<path fill="#ACFDFD" opacity="1.000000" stroke="none" 
	d="
M322.043213,48.345261 
	C325.965790,51.147064 330.603363,53.737637 333.761871,57.552753 
	C340.591797,65.802582 347.919617,74.119102 350.625671,84.727631 
	C352.400970,91.687210 354.809845,98.696060 350.321838,106.537476 
	C347.797211,110.948364 346.179932,116.228378 342.914062,121.180405 
	C342.141632,122.152641 341.567566,122.569336 340.667816,123.076630 
	C334.485687,127.075676 331.821747,132.488739 331.824097,139.585770 
	C331.826691,147.359360 331.970581,155.240601 330.800018,162.883026 
	C328.768372,176.147247 329.253632,188.481812 338.889587,199.228394 
	C338.593018,200.530884 338.357452,201.480728 338.309418,202.439987 
	C338.001221,208.595261 338.971619,214.916534 335.127380,220.532639 
	C334.203857,221.881866 334.144348,223.946335 334.028839,225.704285 
	C333.376221,235.637360 331.472534,237.770782 322.468750,237.882263 
	C317.914062,229.873566 310.958466,225.438644 302.896667,222.407104 
	C304.892426,221.937775 306.872375,221.159760 308.886871,221.056839 
	C315.002045,220.744431 318.597015,217.669891 320.044983,211.872803 
	C321.030304,207.927963 323.007294,204.200607 320.133606,200.215027 
	C319.671356,199.573944 319.765808,198.072479 320.201843,197.312149 
	C326.037445,187.135788 322.436188,176.157242 323.039124,165.544006 
	C323.264038,161.584854 323.747192,157.640656 323.987274,153.682037 
	C324.750000,141.107986 327.525574,129.052765 333.151306,117.728798 
	C333.809235,116.404518 334.472351,114.857330 335.588470,114.022057 
	C344.095428,107.655769 345.173645,98.252670 344.723877,89.017982 
	C344.430420,82.993401 342.260773,76.711723 339.538696,71.237892 
	C335.725769,63.570412 331.083496,56.184780 323.705780,51.122517 
	C322.960663,50.611244 322.617401,49.514336 322.043213,48.345261 
z"/>
<path fill="#436B92" opacity="1.000000" stroke="none" 
	d="
M290.993622,280.969971 
	C282.996857,280.708954 278.042664,275.364075 272.723022,270.016296 
	C267.179352,261.978180 265.473511,253.014999 267.326233,244.119537 
	C269.448792,233.928452 276.322540,226.893845 286.883911,223.430389 
	C288.292419,223.363159 289.130615,223.140091 289.968811,222.917023 
	C290.389587,222.724930 290.810394,222.532822 291.531311,222.568970 
	C291.831451,222.797195 291.982391,223.262695 292.166626,223.517700 
	C305.649628,235.539688 307.173889,250.455704 303.577911,266.597504 
	C302.336517,272.169891 299.633881,276.781189 293.349030,278.224304 
	C292.403564,278.441376 291.770966,280.020752 290.993622,280.969971 
z"/>
<path fill="#669BEB" opacity="1.000000" stroke="none" 
	d="
M291.982391,223.262695 
	C291.982391,223.262695 291.831451,222.797195 291.772064,222.559921 
	C295.140411,222.304459 298.568115,222.286270 302.446259,222.337585 
	C310.958466,225.438644 317.914062,229.873566 322.555969,238.270874 
	C323.577362,242.294418 324.592773,245.667603 324.922028,249.106491 
	C326.112335,261.537811 321.013489,271.012024 310.805786,277.922852 
	C307.469513,278.982422 304.133240,280.041962 300.411346,280.814270 
	C300.025726,280.527008 300.053162,280.039764 300.029785,280.018311 
	C300.006439,279.996887 300.035187,280.052979 300.401917,280.041962 
	C304.834808,277.334778 308.900909,274.638611 313.277466,271.806580 
	C324.874939,261.541779 322.582520,241.215332 312.862305,233.681717 
	C309.489044,230.885437 306.271301,228.385727 302.784302,225.634216 
	C299.004120,224.675842 295.493256,223.969269 291.982391,223.262695 
z"/>
<path fill="#ACFDFD" opacity="1.000000" stroke="none" 
	d="
M236.851471,299.334442 
	C238.636414,299.637421 240.729202,299.885559 241.733032,301.062500 
	C242.308151,301.736786 241.265045,303.992828 240.603577,305.370148 
	C240.449646,305.690643 238.207321,305.584900 238.080917,305.245300 
	C237.417236,303.462585 237.124512,301.541748 236.851471,299.334442 
z"/>
<path fill="#A8FDFD" opacity="1.000000" stroke="none" 
	d="
M199.181076,46.769283 
	C198.250977,47.000648 197.500824,47.000538 196.375641,47.000519 
	C197.775909,45.361584 199.551193,43.722553 201.623413,42.385441 
	C201.613571,43.791523 201.306778,44.895687 201.000000,45.999847 
	C200.453674,46.179165 199.907349,46.358482 199.181076,46.769283 
z"/>
<path fill="#ACFDFD" opacity="1.000000" stroke="none" 
	d="
M201.341675,45.956707 
	C201.306778,44.895687 201.613571,43.791523 201.960480,42.343987 
	C202.546982,41.821274 203.093369,41.641937 203.819870,41.231224 
	C204.444580,40.999981 204.889145,41.000114 205.667175,41.000580 
	C204.561523,42.638466 203.122437,44.276016 201.341675,45.956707 
z"/>
<path fill="#ACFDFD" opacity="1.000000" stroke="none" 
	d="
M232.257446,276.031189 
	C232.554459,277.292572 232.622955,278.303223 232.733368,279.932190 
	C230.043869,276.923737 230.043869,276.923737 232.257446,276.031189 
z"/>
<path fill="#ACFDFD" opacity="1.000000" stroke="none" 
	d="
M261.484528,311.260925 
	C260.665771,311.113464 260.053497,310.739105 259.441223,310.364746 
	C259.843628,309.983307 260.246033,309.601868 260.648438,309.220459 
	C260.995972,309.824982 261.343506,310.429504 261.484528,311.260925 
z"/>
<path fill="#ACFDFD" opacity="1.000000" stroke="none" 
	d="
M278.214996,314.749969 
	C277.988220,314.219666 278.038055,313.750885 278.087891,313.282104 
	C278.502075,313.390106 278.916229,313.498108 279.330444,313.606079 
	C279.050812,314.007904 278.771210,314.409698 278.214996,314.749969 
z"/>
<path fill="#ACFDFD" opacity="1.000000" stroke="none" 
	d="
M241.419571,308.652588 
	C241.314285,309.054962 241.057907,309.298553 240.801544,309.542145 
	C240.700958,309.435913 240.506973,309.242706 240.513229,309.235992 
	C240.753571,308.977936 241.012238,308.737000 241.419571,308.652588 
z"/>
<path fill="#4A75A2" opacity="1.000000" stroke="none" 
	d="
M289.599304,222.870193 
	C289.130615,223.140091 288.292419,223.363159 287.240082,223.377792 
	C287.760559,223.054016 288.495148,222.938690 289.599304,222.870193 
z"/>
<path fill="#A8FDFD" opacity="1.000000" stroke="none" 
	d="
M311.234070,277.946350 
	C321.013489,271.012024 326.112335,261.537811 324.922028,249.106491 
	C324.592773,245.667603 323.577362,242.294418 322.789551,238.502472 
	C331.472534,237.770782 333.376221,235.637360 334.028839,225.704285 
	C334.144348,223.946335 334.203857,221.881866 335.127380,220.532639 
	C338.971619,214.916534 338.001221,208.595261 338.309418,202.439987 
	C338.357452,201.480728 338.593018,200.530884 339.220856,199.275238 
	C340.362518,199.053604 341.025238,199.133408 341.922943,199.500458 
	C345.400940,200.656433 348.643921,201.525192 352.063049,202.524323 
	C352.519196,202.751648 352.771790,202.896423 353.000458,203.507812 
	C353.924164,209.322784 355.355957,214.727112 351.420654,219.707840 
	C350.845856,220.435364 351.082642,221.970108 351.244293,223.087875 
	C352.818756,233.973663 351.573334,244.365265 346.964233,254.496170 
	C345.554291,257.595276 345.321259,261.577667 345.660187,265.046997 
	C346.237305,270.954041 347.811493,276.668976 343.626770,282.100647 
	C342.558380,283.487366 343.074127,286.087250 342.842072,288.127472 
	C342.547241,290.720062 343.168854,294.134888 341.749969,295.747131 
	C337.484497,300.593842 338.887756,305.401855 340.156281,310.605713 
	C340.540924,312.183685 339.779999,314.153809 339.184296,315.815430 
	C338.829224,316.805847 337.312195,317.448853 337.110626,318.413757 
	C335.871338,324.345886 330.681366,329.329041 332.839661,336.106750 
	C333.033539,336.715576 332.369812,337.625458 332.041351,338.367676 
	C330.657715,341.494385 329.208191,344.592529 327.864136,347.735962 
	C326.712311,350.429871 325.506897,353.118744 324.619751,355.903717 
	C323.306061,360.027802 320.463409,364.712891 321.425964,368.316620 
	C324.258759,378.922455 316.091827,385.979431 314.321259,394.980042 
	C313.618286,398.553650 311.201416,401.819336 309.412994,405.143494 
	C306.535278,410.492432 304.048676,417.418518 296.885223,416.959717 
	C287.501923,416.358704 278.264648,413.728516 268.910736,412.331726 
	C262.444519,411.366150 255.780624,409.971619 249.395782,410.626984 
	C239.935593,411.597992 230.620621,414.109711 221.296295,416.199554 
	C218.598602,416.804169 215.757263,417.755676 213.539398,419.332489 
	C206.189407,424.557861 197.348877,421.052612 195.936340,412.147095 
	C195.732376,410.861084 194.891388,409.667267 194.737595,408.383759 
	C194.103378,403.090637 193.515656,397.786804 193.140839,392.470703 
	C193.016495,390.707458 194.108353,388.779175 193.742447,387.125916 
	C192.083862,379.632263 189.801712,372.456879 189.165817,364.538910 
	C188.482269,356.027771 185.164032,347.276031 179.504318,340.124847 
	C177.989914,338.211334 175.599625,336.921997 174.331543,334.895508 
	C170.517212,328.800018 163.068069,326.243561 156.389786,329.039886 
	C155.211044,329.533417 153.859879,329.601166 152.604919,329.929047 
	C147.176804,331.347382 141.596024,332.368988 136.375717,334.341797 
	C131.237061,336.283813 126.485199,339.237732 121.526253,341.671509 
	C118.858994,342.980591 116.056549,344.019165 113.414658,345.373962 
	C107.682945,348.313171 102.141838,351.659973 96.275063,354.286865 
	C92.602654,355.931244 88.532204,356.884430 84.540718,357.552155 
	C81.650177,358.035706 77.768898,358.657837 75.816498,357.211151 
	C73.153503,355.238007 71.697731,351.805969 72.859215,347.481171 
	C76.624710,333.460327 84.313255,321.387604 91.685463,309.282043 
	C97.691658,299.419495 105.359215,290.575531 112.143150,281.173920 
	C113.445763,279.368652 114.065521,277.070679 115.000305,275.000000 
	C115.000305,275.000000 115.000000,275.000000 115.343094,274.953857 
	C116.437569,274.304504 117.307945,273.802734 117.921989,273.082428 
	C124.374451,265.513245 130.627319,257.767303 137.254333,250.355438 
	C143.608978,243.248245 150.817993,236.859863 156.754028,229.437744 
	C161.478638,223.530380 166.222458,216.979340 168.476532,209.921600 
	C171.307617,201.057205 171.887817,191.415466 172.924454,182.052170 
	C174.053894,171.850601 174.923340,161.595276 175.282364,151.341537 
	C175.552551,143.625351 175.177353,135.843613 174.472534,128.147568 
	C173.674164,119.430016 171.920212,110.801529 171.072037,102.086594 
	C170.146927,92.581192 171.455246,83.199577 174.000000,74.000000 
	C174.247192,73.194984 174.494385,72.389969 175.184570,71.240082 
	C176.084854,70.263367 176.542114,69.631531 176.999390,68.999695 
	C177.238266,67.878914 177.477127,66.758125 178.203690,65.271866 
	C181.127792,61.271202 183.564194,57.636017 186.000610,54.000832 
	C186.000610,54.000832 186.000000,54.000000 186.375259,54.000206 
	C187.500351,54.000175 188.250168,53.999935 189.000000,53.999847 
	C189.000000,54.000000 189.000610,54.000526 189.000610,54.000526 
	C188.070999,56.075008 187.419556,58.337280 186.166489,60.193409 
	C178.208801,71.980927 175.860733,84.854530 178.757629,98.644012 
	C181.024124,109.432709 184.046707,120.073929 185.984711,130.914520 
	C186.728729,135.076248 185.388412,139.608124 185.016373,143.972916 
	C184.824875,146.219391 184.497208,148.472702 184.540070,150.717041 
	C184.643768,156.147842 185.128082,161.577209 185.073410,167.003265 
	C185.034363,170.877960 184.467300,174.759171 183.960754,178.614471 
	C183.257599,183.966202 182.389862,189.296310 181.593552,194.635818 
	C181.061523,198.203140 179.698318,201.883514 180.163269,205.316055 
	C181.342758,214.023819 176.750763,220.271912 172.007156,226.344955 
	C166.331070,233.611832 160.185318,240.529648 153.955368,247.335388 
	C152.055756,249.410599 149.064468,250.442719 146.831024,252.268066 
	C144.456375,254.208862 142.264145,256.413788 140.219208,258.705872 
	C138.044739,261.143127 136.210297,263.880402 134.096634,266.375946 
	C129.659210,271.615021 125.081490,276.736206 120.700371,282.021057 
	C119.945412,282.931732 119.215683,285.191345 119.590668,285.508698 
	C124.145660,289.363586 122.250961,293.272247 119.651222,297.630432 
	C118.346756,298.411987 117.407043,298.821259 116.467331,299.230530 
	C116.882446,299.685181 117.297546,300.139801 117.712646,300.594452 
	C118.475098,299.729645 119.237549,298.864807 120.000000,298.000000 
	C124.433495,297.230804 128.866989,296.461670 132.464142,295.837616 
	C130.731445,297.923523 128.504135,300.604858 126.272110,303.291840 
	C129.941223,310.251953 131.088394,310.443481 137.906891,307.730408 
	C140.293457,306.780823 143.375427,307.578888 145.765396,307.578888 
	C147.341751,304.728241 148.769409,302.007904 150.328323,299.365021 
	C152.007233,296.518677 153.391724,292.633820 157.527191,297.195312 
	C157.895248,297.601257 160.590805,296.710876 161.427444,295.747192 
	C167.191437,289.107819 167.055786,289.186615 175.124725,293.269104 
	C177.016953,294.226501 179.786621,294.667145 181.741791,294.048096 
	C187.019791,292.376984 190.549118,294.635193 194.929596,297.233246 
	C199.441467,299.909210 201.095245,303.367096 202.204117,307.786346 
	C202.242645,307.939911 202.482010,308.116699 202.444595,308.205261 
	C199.194641,315.900909 207.655502,322.005585 205.387421,329.623352 
	C205.149490,330.422485 205.857056,331.826508 206.555862,332.511047 
	C207.842987,333.771881 210.682693,334.697113 210.690979,335.778900 
	C210.715393,338.972504 209.760635,342.195801 208.988846,345.358673 
	C208.778687,346.219910 207.861649,346.908661 206.843216,348.228333 
	C209.990295,350.093628 212.867630,351.799072 216.029541,353.673187 
	C215.205170,354.806793 214.676224,355.840515 213.875305,356.579529 
	C211.198029,359.049744 212.281509,361.416077 214.685150,362.647675 
	C218.112305,364.403839 219.316208,366.941681 220.644623,370.443665 
	C222.883774,376.346558 226.511002,381.739929 229.763077,387.223877 
	C230.273529,388.084595 231.990967,388.881561 232.965378,388.702362 
	C237.181076,387.927032 241.298630,386.621979 245.511978,385.828644 
	C247.750717,385.407074 250.111877,385.622650 252.418335,385.581879 
	C253.063416,385.570465 253.931183,385.965790 254.322815,385.673492 
	C258.727509,382.385559 262.751007,385.732971 264.986084,387.939423 
	C268.373199,391.283386 272.059998,390.709045 275.744904,391.377594 
	C282.164978,392.542389 287.655701,390.274261 292.682404,386.520264 
	C293.195984,386.136749 293.816406,385.574982 293.918732,385.010956 
	C295.189941,378.004150 299.844879,371.769989 298.385712,364.058319 
	C298.082550,362.456055 299.693665,360.176910 300.963165,358.663025 
	C303.033905,356.193665 304.573853,354.148407 302.423950,350.751251 
	C301.691162,349.593323 302.388885,347.173584 303.025269,345.564697 
	C306.619995,336.476654 310.396271,327.460449 314.105286,318.417542 
	C314.356232,317.805695 314.375610,316.926331 314.819397,316.592773 
	C319.225403,313.281281 320.231842,309.318573 317.404236,304.483124 
	C317.268036,304.250244 317.308044,303.651123 317.474365,303.542999 
	C322.002502,300.598846 321.585510,295.992920 321.885895,291.445007 
	C322.148529,287.468781 323.362335,283.562622 323.764221,279.585907 
	C324.038544,276.871735 320.494537,275.365601 317.281799,276.476807 
	C315.455048,277.108612 313.538452,277.480774 311.234070,277.946350 
M126.818687,310.445007 
	C123.032631,308.832916 119.511963,308.760406 116.750877,311.300171 
	C118.652740,312.968719 119.865753,314.863373 121.412277,315.192932 
	C123.668983,315.673828 126.524132,315.713287 128.468643,314.692413 
	C130.892532,313.419769 129.452698,311.713715 126.818687,310.445007 
M109.410889,316.582184 
	C110.218079,317.172607 111.025269,317.763062 111.832443,318.353485 
	C112.098007,317.516693 112.363571,316.679932 112.629150,315.843140 
	C111.664360,315.894409 110.699562,315.945679 109.410889,316.582184 
M118.822723,317.454407 
	C118.817993,317.807159 118.809998,318.160095 118.826912,318.511841 
	C118.827347,318.520813 119.228340,318.526825 119.229118,318.517151 
	C119.257149,318.166168 119.259811,317.813141 118.822723,317.454407 
z"/>
<path fill="#A4FDFD" opacity="1.000000" stroke="none" 
	d="
M114.703842,275.154480 
	C114.065521,277.070679 113.445763,279.368652 112.143150,281.173920 
	C105.359215,290.575531 97.691658,299.419495 91.685463,309.282043 
	C84.313255,321.387604 76.624710,333.460327 72.859215,347.481171 
	C71.697731,351.805969 73.153503,355.238007 75.816498,357.211151 
	C77.768898,358.657837 81.650177,358.035706 84.540718,357.552155 
	C88.532204,356.884430 92.602654,355.931244 96.275063,354.286865 
	C102.141838,351.659973 107.682945,348.313171 113.414658,345.373962 
	C116.056549,344.019165 118.858994,342.980591 121.526253,341.671509 
	C126.485199,339.237732 131.237061,336.283813 136.375717,334.341797 
	C141.596024,332.368988 147.176804,331.347382 152.604919,329.929047 
	C153.859879,329.601166 155.211044,329.533417 156.389786,329.039886 
	C163.068069,326.243561 170.517212,328.800018 174.331543,334.895508 
	C175.599625,336.921997 177.989914,338.211334 179.504318,340.124847 
	C185.164032,347.276031 188.482269,356.027771 189.165817,364.538910 
	C189.801712,372.456879 192.083862,379.632263 193.742447,387.125916 
	C194.108353,388.779175 193.016495,390.707458 193.140839,392.470703 
	C193.515656,397.786804 194.103378,403.090637 194.737595,408.383759 
	C194.891388,409.667267 195.732376,410.861084 195.936340,412.147095 
	C197.348877,421.052612 206.189407,424.557861 213.539398,419.332489 
	C215.757263,417.755676 218.598602,416.804169 221.296295,416.199554 
	C230.620621,414.109711 239.935593,411.597992 249.395782,410.626984 
	C255.780624,409.971619 262.444519,411.366150 268.910736,412.331726 
	C278.264648,413.728516 287.501923,416.358704 296.885223,416.959717 
	C304.048676,417.418518 306.535278,410.492432 309.412994,405.143494 
	C311.201416,401.819336 313.618286,398.553650 314.321259,394.980042 
	C316.091827,385.979431 324.258759,378.922455 321.425964,368.316620 
	C320.463409,364.712891 323.306061,360.027802 324.619751,355.903717 
	C325.506897,353.118744 326.712311,350.429871 327.864136,347.735962 
	C329.208191,344.592529 330.657715,341.494385 332.041351,338.367676 
	C332.369812,337.625458 333.033539,336.715576 332.839661,336.106750 
	C330.681366,329.329041 335.871338,324.345886 337.110626,318.413757 
	C337.312195,317.448853 338.829224,316.805847 339.184296,315.815430 
	C339.779999,314.153809 340.540924,312.183685 340.156281,310.605713 
	C338.887756,305.401855 337.484497,300.593842 341.749969,295.747131 
	C343.168854,294.134888 342.547241,290.720062 342.842072,288.127472 
	C343.074127,286.087250 342.558380,283.487366 343.626770,282.100647 
	C347.811493,276.668976 346.237305,270.954041 345.660187,265.046997 
	C345.321259,261.577667 345.554291,257.595276 346.964233,254.496170 
	C351.573334,244.365265 352.818756,233.973663 351.244293,223.087875 
	C351.082642,221.970108 350.845856,220.435364 351.420654,219.707840 
	C355.355957,214.727112 353.924164,209.322784 353.368164,203.458191 
	C355.142761,202.619675 356.553162,202.249573 357.963531,201.879486 
	C360.823181,205.907104 362.668335,209.868622 361.222687,215.279358 
	C360.006104,219.832779 360.735931,224.868240 360.017914,229.601379 
	C358.796021,237.656036 357.113007,245.640732 355.625671,253.655182 
	C355.414459,254.793365 355.060211,255.929993 355.033539,257.073425 
	C354.858246,264.590302 355.102539,272.136322 354.512238,279.617767 
	C354.078522,285.114288 352.585663,290.527618 351.556213,295.976379 
	C351.402954,296.787628 350.966461,297.618378 351.059692,298.392029 
	C352.166077,307.572571 349.510345,315.929810 346.044128,324.278656 
	C342.082520,333.820587 338.536774,343.546112 335.125153,353.301910 
	C332.477203,360.873810 330.310974,368.614258 327.934906,376.281128 
	C327.492188,377.709595 327.490387,379.552551 326.565369,380.505798 
	C322.462738,384.733398 323.701996,390.555481 321.772888,395.290497 
	C318.316956,403.773193 314.684631,412.373505 309.698517,419.990173 
	C304.672516,427.667725 291.452271,429.029572 282.758209,424.172882 
	C266.735443,415.222229 249.821609,413.550079 232.304642,418.476990 
	C226.950836,419.982819 221.931854,422.649292 216.697968,424.620758 
	C212.517624,426.195343 208.243515,427.520874 204.011658,428.958771 
	C201.548798,429.795624 199.087173,430.636078 196.426453,431.542542 
	C191.131882,425.752289 186.104736,419.511841 185.169769,411.195923 
	C184.518600,405.404144 184.685654,399.524445 184.353607,393.691620 
	C183.980881,387.144043 183.327362,380.610718 183.042618,374.060425 
	C182.827698,369.116699 183.335434,364.318054 179.849579,359.852997 
	C177.895599,357.350128 178.658859,352.458557 176.510757,350.427765 
	C171.304520,345.505829 165.373093,341.177338 159.175034,337.569855 
	C156.927689,336.261810 152.886887,337.052246 150.018036,337.979401 
	C141.497681,340.733002 133.315735,344.629791 124.699844,346.968079 
	C113.304947,350.060577 103.963089,357.086273 93.454247,361.820770 
	C87.568619,364.472382 81.931030,367.689697 75.987694,370.191223 
	C73.331535,371.309235 70.202530,371.655701 67.280350,371.690002 
	C64.394348,371.723877 62.171215,366.696228 63.482277,363.220062 
	C67.924095,351.442993 71.384026,339.116272 77.304527,328.122650 
	C84.352188,315.035980 93.394554,302.998840 101.896454,290.731354 
	C105.656387,285.306152 110.212624,280.432831 114.703842,275.154480 
z"/>
<path fill="#9FFCFC" opacity="1.000000" stroke="none" 
	d="
M366.591797,191.888199 
	C367.390930,193.201797 368.805023,194.477036 368.889771,195.835205 
	C369.452942,204.862930 369.601898,213.916000 370.131989,222.946381 
	C371.020477,238.083221 371.691833,253.251434 373.276337,268.320007 
	C373.952728,274.752380 376.960602,280.909912 378.352844,287.313263 
	C378.818848,289.456604 377.739532,292.032013 377.024841,294.302368 
	C376.544769,295.827545 375.490326,297.179535 374.646393,298.580994 
	C372.872803,301.526245 372.915314,303.593201 376.641968,305.164520 
	C379.876740,306.528473 379.948425,309.647064 376.805084,310.378418 
	C369.682587,312.035553 369.233551,317.479340 367.909180,323.069794 
	C366.678864,328.263275 364.217072,333.154694 362.527435,338.255310 
	C361.930359,340.057709 362.012482,342.085083 361.760498,344.212463 
	C359.953796,346.665344 357.981232,349.635376 355.703156,352.348907 
	C353.683258,354.754913 351.334534,356.886658 349.102905,359.111298 
	C348.763763,359.449371 347.957153,359.576172 347.897217,359.899078 
	C346.408295,367.925110 336.964294,372.040833 337.554626,381.255127 
	C337.679199,383.199524 335.202332,385.190948 334.383972,387.336151 
	C330.866241,396.557465 327.767517,405.947479 323.970001,415.048187 
	C322.728088,418.024353 319.831299,420.309937 317.345642,422.955688 
	C320.819427,414.262451 324.843353,405.607117 328.398010,396.763184 
	C331.643860,388.687439 334.558899,380.465332 337.258698,372.189911 
	C338.386658,368.732452 338.221588,364.856812 339.318909,361.384460 
	C340.135651,358.800018 342.024719,356.550842 343.458740,354.165863 
	C346.699493,348.776001 347.469269,342.103333 353.601227,338.079132 
	C355.665955,336.724152 355.098816,331.413422 355.815552,327.927277 
	C356.187225,326.119629 356.318787,323.105286 357.278900,322.783325 
	C360.783234,321.608124 360.936432,318.948090 361.452423,316.185242 
	C362.240967,311.963074 363.649689,307.791565 363.896027,303.546356 
	C364.471710,293.625549 366.249207,283.928925 364.561096,273.661194 
	C362.994507,264.132263 365.137939,254.017929 365.416412,244.154831 
	C365.761414,231.936295 366.082794,219.707703 365.895294,207.491425 
	C365.858032,205.065399 363.475159,202.675385 362.216187,199.678375 
	C363.702881,196.688065 365.147339,194.288132 366.591797,191.888199 
z"/>
<path fill="#9DFDFC" opacity="1.000000" stroke="none" 
	d="
M121.298111,259.843292 
	C121.570343,258.302094 121.820312,256.396942 122.762573,254.939240 
	C130.020355,243.711426 138.234970,233.005249 144.455032,221.239731 
	C148.201736,214.152634 149.713028,205.568161 150.814423,197.464325 
	C153.055023,180.978363 154.945358,164.394089 155.817825,147.789276 
	C156.490753,134.982483 155.071121,122.078552 155.230225,109.225845 
	C155.296738,103.852333 156.412399,98.284103 158.159470,93.184105 
	C161.388214,83.758881 163.614792,73.615799 172.654114,67.044785 
	C171.362137,70.097816 169.724884,73.195930 167.784729,76.890488 
	C162.282196,88.694969 159.842850,100.383492 160.959579,112.788872 
	C161.524185,119.060730 161.964508,125.372299 161.928452,131.662857 
	C161.877502,140.549011 161.494354,149.442154 160.953995,158.314072 
	C160.430908,166.902267 159.553497,175.469589 158.782776,184.041672 
	C158.427414,187.994080 158.437302,192.062347 157.442062,195.857971 
	C154.877823,205.637466 151.845383,215.294220 149.000000,225.000000 
	C148.687866,225.788269 148.375732,226.576523 147.749542,227.832489 
	C146.956985,229.200119 146.478485,230.100052 146.000000,231.000000 
	C145.693283,231.123840 145.439209,231.316940 144.805359,231.842163 
	C143.915283,232.736679 143.457642,233.368347 143.000000,234.000000 
	C142.741867,234.495941 142.483734,234.991882 141.771133,235.787201 
	C139.877792,237.724411 138.438889,239.362198 136.717743,241.150085 
	C135.957001,242.200119 135.478500,243.100052 135.000000,244.000000 
	C130.532166,249.228851 126.064354,254.457718 121.298111,259.843292 
z"/>
<path fill="#A4FDFD" opacity="1.000000" stroke="none" 
	d="
M173.645203,74.074081 
	C171.455246,83.199577 170.146927,92.581192 171.072037,102.086594 
	C171.920212,110.801529 173.674164,119.430016 174.472534,128.147568 
	C175.177353,135.843613 175.552551,143.625351 175.282364,151.341537 
	C174.923340,161.595276 174.053894,171.850601 172.924454,182.052170 
	C171.887817,191.415466 171.307617,201.057205 168.476532,209.921600 
	C166.222458,216.979340 161.478638,223.530380 156.754028,229.437744 
	C150.817993,236.859863 143.608978,243.248245 137.254333,250.355438 
	C130.627319,257.767303 124.374451,265.513245 117.921989,273.082428 
	C117.307945,273.802734 116.437569,274.304504 115.343246,274.953857 
	C118.480042,270.025024 121.621414,264.765778 125.511353,260.135406 
	C133.156219,251.035339 141.463058,242.488174 149.035172,233.331177 
	C156.230896,224.629349 162.236389,215.163818 164.295944,203.695969 
	C165.779968,195.432617 168.124695,187.284515 169.052719,178.969727 
	C170.496231,166.036423 171.347916,153.016403 171.859253,140.009888 
	C172.063553,134.813339 170.776855,129.543518 170.029846,124.326950 
	C167.775131,108.581703 165.399689,92.838318 171.148468,77.301422 
	C171.576523,76.144547 172.563339,75.194405 173.645203,74.074081 
z"/>
<path fill="#5179B3" opacity="1.000000" stroke="none" 
	d="
M358.067078,201.637848 
	C356.553162,202.249573 355.142761,202.619675 353.364685,203.039383 
	C352.771790,202.896423 352.519196,202.751648 352.094543,202.060822 
	C352.633209,192.243286 353.594269,183.029480 353.923492,173.793152 
	C354.266479,164.170746 353.857697,154.523834 354.043579,144.892776 
	C354.201599,136.704636 353.880676,128.668701 349.995911,121.203644 
	C351.978699,121.819969 353.961456,122.436295 356.275024,123.128113 
	C357.662323,124.225533 358.718842,125.247467 359.903015,126.996162 
	C360.468903,132.322174 361.225952,136.917358 361.284698,141.521439 
	C361.450623,154.534622 361.583893,167.558578 361.218109,180.563889 
	C361.028687,187.298141 359.755066,194.001892 358.971252,200.719421 
	C358.704376,200.945023 358.437500,201.170624 358.067078,201.637848 
z"/>
<path fill="#9FFCFC" opacity="1.000000" stroke="none" 
	d="
M149.350113,224.951355 
	C151.845383,215.294220 154.877823,205.637466 157.442062,195.857971 
	C158.437302,192.062347 158.427414,187.994080 158.782776,184.041672 
	C159.553497,175.469589 160.430908,166.902267 160.953995,158.314072 
	C161.494354,149.442154 161.877502,140.549011 161.928452,131.662857 
	C161.964508,125.372299 161.524185,119.060730 160.959579,112.788872 
	C159.842850,100.383492 162.282196,88.694969 167.741150,77.243462 
	C167.766632,78.842766 167.612808,80.699883 167.285019,82.525780 
	C165.914688,90.159058 163.604523,97.753181 163.347290,105.418976 
	C163.107254,112.572876 165.406311,119.772873 165.910950,126.999840 
	C166.708694,138.424820 166.938812,149.843658 165.084961,161.280655 
	C162.729691,175.810989 161.347656,190.503220 158.825699,205.000336 
	C157.849304,210.612946 155.006958,215.926132 152.782471,221.279251 
	C152.203171,222.673279 150.751328,223.704712 149.350113,224.951355 
z"/>
<path fill="#567FBD" opacity="1.000000" stroke="none" 
	d="
M359.277710,200.663589 
	C359.755066,194.001892 361.028687,187.298141 361.218109,180.563889 
	C361.583893,167.558578 361.450623,154.534622 361.284698,141.521439 
	C361.225952,136.917358 360.468903,132.322174 360.055176,127.269859 
	C366.902100,132.357849 368.030457,140.016052 368.055237,148.552338 
	C368.069122,153.690475 368.023407,158.382996 368.040527,163.538269 
	C367.648987,173.013077 367.194641,182.025146 366.666046,191.462708 
	C365.147339,194.288132 363.702881,196.688065 362.061523,199.333588 
	C361.104462,199.922028 360.344299,200.264893 359.277710,200.663589 
z"/>
<path fill="#A4FDFD" opacity="1.000000" stroke="none" 
	d="
M185.702148,54.156727 
	C183.564194,57.636017 181.127792,61.271202 178.346008,64.953499 
	C180.468292,61.437946 182.935974,57.875286 185.702148,54.156727 
z"/>
<path fill="#9FFCFC" opacity="1.000000" stroke="none" 
	d="
M137.341675,240.956726 
	C138.438889,239.362198 139.877792,237.724411 141.658356,236.043304 
	C140.561111,237.637817 139.122223,239.275635 137.341675,240.956726 
z"/>
<path fill="#9DFDFC" opacity="1.000000" stroke="none" 
	d="
M95.342209,291.956787 
	C96.439201,290.362122 97.877800,288.724274 99.658051,287.043213 
	C98.561066,288.637848 97.122452,290.275696 95.342209,291.956787 
z"/>
<path fill="#A8FDFD" opacity="1.000000" stroke="none" 
	d="
M193.000000,50.000309 
	C191.893814,51.304825 190.787613,52.609337 189.341019,53.957188 
	C189.000610,54.000526 189.000000,54.000000 189.000000,53.666569 
	C189.000000,52.888760 189.000000,52.444378 189.000000,52.000000 
	C189.556763,51.489140 190.113510,50.978279 191.168457,50.233715 
	C192.111099,50.000107 192.555557,50.000206 193.000000,50.000309 
z"/>
<path fill="#9DFDFC" opacity="1.000000" stroke="none" 
	d="
M116.303177,266.839203 
	C116.758743,265.369843 117.517487,263.739655 118.638420,262.055359 
	C118.202522,263.560272 117.404434,265.119354 116.303177,266.839203 
z"/>
<path fill="#9FFCFC" opacity="1.000000" stroke="none" 
	d="
M316.659546,423.043213 
	C315.893646,424.304565 314.787292,425.609131 313.340454,426.956848 
	C314.106354,425.695465 315.212708,424.390930 316.659546,423.043213 
z"/>
<path fill="#9FFCFC" opacity="1.000000" stroke="none" 
	d="
M146.317535,230.962646 
	C146.478485,230.100052 146.956985,229.200119 147.717743,228.150085 
	C147.545029,228.975098 147.090042,229.950180 146.317535,230.962646 
z"/>
<path fill="#9DFDFC" opacity="1.000000" stroke="none" 
	d="
M174.282288,64.849976 
	C174.442291,64.044418 174.884598,63.088844 175.663452,62.066635 
	C175.521545,62.899982 175.043076,63.799965 174.282288,64.849976 
z"/>
<path fill="#9FFCFC" opacity="1.000000" stroke="none" 
	d="
M135.336548,243.933350 
	C135.478500,243.100052 135.957001,242.200119 136.717743,241.150085 
	C136.557693,241.955551 136.115387,242.911118 135.336548,243.933350 
z"/>
<path fill="#A4FDFD" opacity="1.000000" stroke="none" 
	d="
M193.112915,49.744232 
	C192.555557,50.000206 192.111099,50.000107 191.333328,49.999928 
	C191.767487,49.338844 192.534958,48.677841 193.651215,48.008495 
	C193.741943,48.496155 193.483887,48.992153 193.112915,49.744232 
z"/>
<path fill="#A4FDFD" opacity="1.000000" stroke="none" 
	d="
M188.681702,52.033920 
	C189.000000,52.444378 189.000000,52.888760 189.000000,53.666416 
	C188.250168,53.999935 187.500351,54.000175 186.375610,54.000530 
	C186.788269,53.356377 187.575836,52.712105 188.681702,52.033920 
z"/>
<path fill="#9DFDFC" opacity="1.000000" stroke="none" 
	d="
M111.281769,273.849976 
	C111.441795,273.044403 111.884209,272.088806 112.663155,271.066620 
	C112.521179,271.899994 112.042664,272.800018 111.281769,273.849976 
z"/>
<path fill="#9DFDFC" opacity="1.000000" stroke="none" 
	d="
M114.281860,269.849976 
	C114.441956,269.044403 114.884415,268.088806 115.663437,267.066589 
	C115.521400,267.899994 115.042809,268.799988 114.281860,269.849976 
z"/>
<path fill="#9DFDFC" opacity="1.000000" stroke="none" 
	d="
M119.314117,261.947571 
	C119.457962,261.368317 119.915321,260.736633 120.686188,260.052490 
	C120.542343,260.631714 120.084991,261.263458 119.314117,261.947571 
z"/>
<path fill="#9FFCFC" opacity="1.000000" stroke="none" 
	d="
M143.313538,233.947510 
	C143.457642,233.368347 143.915283,232.736679 144.686462,232.052521 
	C144.542374,232.631668 144.084732,233.263336 143.313538,233.947510 
z"/>
<path fill="#A4FDFD" opacity="1.000000" stroke="none" 
	d="
M176.685883,69.052284 
	C176.542114,69.631531 176.084854,70.263367 175.314087,70.947861 
	C175.457870,70.368629 175.915115,69.736748 176.685883,69.052284 
z"/>
<path fill="#4D76A9" opacity="1.000000" stroke="none" 
	d="
M349.572357,121.100906 
	C353.880676,128.668701 354.201599,136.704636 354.043579,144.892776 
	C353.857697,154.523834 354.266479,164.170746 353.923492,173.793152 
	C353.594269,183.029480 352.633209,192.243286 351.918365,201.930466 
	C348.643921,201.525192 345.400940,200.656433 342.237793,199.264038 
	C342.895081,197.390503 343.905884,196.065338 343.984589,194.686966 
	C345.018585,176.572754 346.379242,158.456467 346.593323,140.328110 
	C346.662750,134.448654 346.835480,127.453682 340.993530,122.986031 
	C341.567566,122.569336 342.141632,122.152641 342.911682,121.549667 
	C345.121368,121.241661 347.135101,121.119911 349.572357,121.100906 
z"/>
<path fill="#4A75A2" opacity="1.000000" stroke="none" 
	d="
M292.166626,223.517700 
	C295.493256,223.969269 299.004120,224.675842 302.773071,226.011963 
	C304.550415,229.126083 305.760345,231.878998 307.642670,234.048599 
	C315.683868,243.317032 315.172516,263.201019 308.289795,271.071136 
	C305.613770,274.131104 302.791077,277.062836 300.035156,280.052979 
	C300.035187,280.052979 300.006439,279.996887 299.638794,280.005066 
	C298.131989,280.442017 296.992859,280.870758 295.853699,281.299500 
	C294.496948,281.259399 293.140198,281.219299 291.388550,281.074585 
	C291.770966,280.020752 292.403564,278.441376 293.349030,278.224304 
	C299.633881,276.781189 302.336517,272.169891 303.577911,266.597504 
	C307.173889,250.455704 305.649628,235.539688 292.166626,223.517700 
z"/>
<path fill="#4D76A9" opacity="1.000000" stroke="none" 
	d="
M296.121643,281.443604 
	C296.992859,280.870758 298.131989,280.442017 299.662170,280.026520 
	C300.053162,280.039764 300.025726,280.527008 300.016296,280.770874 
	C298.801117,281.205750 297.595337,281.396759 296.121643,281.443604 
z"/>
<path fill="#4A75A2" opacity="1.000000" stroke="none" 
	d="
M340.667816,123.076630 
	C346.835480,127.453682 346.662750,134.448654 346.593323,140.328110 
	C346.379242,158.456467 345.018585,176.572754 343.984589,194.686966 
	C343.905884,196.065338 342.895081,197.390503 342.002747,198.976807 
	C341.025238,199.133408 340.362518,199.053604 339.368561,198.926971 
	C329.253632,188.481812 328.768372,176.147247 330.800018,162.883026 
	C331.970581,155.240601 331.826691,147.359360 331.824097,139.585770 
	C331.821747,132.488739 334.485687,127.075676 340.667816,123.076630 
z"/>
<path fill="#4D76A9" opacity="1.000000" stroke="none" 
	d="
M300.401917,280.041962 
	C302.791077,277.062836 305.613770,274.131104 308.289795,271.071136 
	C315.172516,263.201019 315.683868,243.317032 307.642670,234.048599 
	C305.760345,231.878998 304.550415,229.126083 303.042358,226.263763 
	C306.271301,228.385727 309.489044,230.885437 312.852814,234.074966 
	C313.249146,235.873550 313.232391,237.144699 313.792145,238.065292 
	C318.048950,245.066345 319.146271,252.544693 317.038635,260.385803 
	C315.981537,264.318665 314.342743,268.095215 312.967041,271.942444 
	C308.900909,274.638611 304.834808,277.334778 300.401917,280.041962 
z"/>
<path fill="#567FBD" opacity="1.000000" stroke="none" 
	d="
M313.277466,271.806580 
	C314.342743,268.095215 315.981537,264.318665 317.038635,260.385803 
	C319.146271,252.544693 318.048950,245.066345 313.792145,238.065292 
	C313.232391,237.144699 313.249146,235.873550 313.008362,234.371521 
	C322.582520,241.215332 324.874939,261.541779 313.277466,271.806580 
z"/>
<path fill="#ACFDFD" opacity="1.000000" stroke="none" 
	d="
M127.153366,310.606689 
	C129.452698,311.713715 130.892532,313.419769 128.468643,314.692413 
	C126.524132,315.713287 123.668983,315.673828 121.412277,315.192932 
	C119.865753,314.863373 118.652740,312.968719 116.750877,311.300171 
	C119.511963,308.760406 123.032631,308.832916 127.153366,310.606689 
z"/>
<path fill="#ACFDFD" opacity="1.000000" stroke="none" 
	d="
M109.572830,316.289581 
	C110.699562,315.945679 111.664360,315.894409 112.629143,315.843140 
	C112.363571,316.679932 112.098007,317.516693 111.832451,318.353485 
	C111.025269,317.763062 110.218079,317.172607 109.572830,316.289581 
z"/>
<path fill="#ACFDFD" opacity="1.000000" stroke="none" 
	d="
M119.643234,298.001343 
	C119.237549,298.864807 118.475098,299.729645 117.712646,300.594452 
	C117.297546,300.139801 116.882446,299.685181 116.467331,299.230530 
	C117.407043,298.821259 118.346756,298.411987 119.643234,298.001343 
z"/>
<path fill="#ACFDFD" opacity="1.000000" stroke="none" 
	d="
M119.044342,317.457397 
	C119.259811,317.813141 119.257149,318.166168 119.229118,318.517151 
	C119.228340,318.526825 118.827347,318.520813 118.826912,318.511841 
	C118.809998,318.160095 118.817993,317.807159 119.044342,317.457397 
z"/>
</svg>