<?xml version="1.0" standalone="no"?>
<!DOCTYPE svg PUBLIC "-//W3C//DTD SVG 20010904//EN"
 "http://www.w3.org/TR/2001/REC-SVG-20010904/DTD/svg10.dtd">
<svg version="1.0" xmlns="http://www.w3.org/2000/svg"
 width="500.000000pt" height="500.000000pt" viewBox="0 0 500.000000 500.000000"
 preserveAspectRatio="xMidYMid meet">

<g transform="translate(0.000000,500.000000) scale(0.100000,-0.100000)"
fill="#000000" stroke="none">
<path d="M2360 3921 c-71 -23 -138 -80 -161 -136 -8 -19 -14 -119 -17 -283 -4
-220 -2 -258 12 -297 32 -82 129 -144 227 -145 108 0 191 50 231 138 17 38 20
74 25 285 6 263 4 278 -51 350 -53 69 -188 114 -266 88z"/>
<path d="M3420 3789 c-38 -15 -70 -50 -90 -96 -16 -35 -19 -77 -22 -295 l-3
-253 28 -48 c73 -123 240 -144 302 -37 18 32 20 55 23 287 2 155 -1 266 -7
290 -16 57 -59 109 -115 138 -53 27 -76 30 -116 14z"/>
<path d="M2841 2769 c-44 -18 -117 -87 -146 -141 -26 -46 -30 -63 -29 -133 0
-101 25 -155 101 -225 108 -99 224 -95 343 12 86 78 110 212 56 323 -30 60
-115 142 -169 162 -39 14 -123 15 -156 2z"/>
</g>
</svg>
